firamono-bold.sfdir
StartChar: quotedbl
Encoding: 34 34 990
Width: 600
Flags: W
LayerCount: 2
Fore
SplineSet
129 742 m 1,0,-1
 279 742 l 1,1,-1
 260 462 l 1,2,-1
 148 462 l 1,3,-1
 129 742 l 1,0,-1
320 742 m 1,4,-1
 471 742 l 1,5,-1
 452 462 l 1,6,-1
 339 462 l 1,7,-1
 320 742 l 1,4,-1
EndSplineSet
EndChar
StartChar: parenleft
Encoding: 40 40 1006
Width: 600
Flags: W
LayerCount: 2
Fore
SplineSet
278.5 200 m 128,-1,1
 296 134 296 134 336.5 69.5 c 128,-1,2
 377 5 377 5 450 -75 c 1,3,-1
 359 -158 l 1,4,5
 232 -49 232 -49 166.5 72.5 c 128,-1,6
 101 194 101 194 101 350 c 256,7,8
 101 506 101 506 166.5 627.5 c 128,-1,9
 232 749 232 749 359 858 c 1,10,-1
 450 775 l 1,11,12
 348 663 348 663 304.5 567.5 c 128,-1,13
 261 472 261 472 261 350 c 0,14,0
 261 266 261 266 278.5 200 c 128,-1,1
EndSplineSet
EndChar
StartChar: parenright
Encoding: 41 41 1007
Width: 600
Flags: W
LayerCount: 2
Fore
SplineSet
295.5 567.5 m 128,-1,1
 252 663 252 663 150 775 c 1,2,-1
 241 858 l 1,3,4
 368 749 368 749 433.5 627.5 c 128,-1,5
 499 506 499 506 499 350 c 256,6,7
 499 194 499 194 433.5 72.5 c 128,-1,8
 368 -49 368 -49 241 -158 c 1,9,-1
 150 -75 l 1,10,11
 223 5 223 5 263.5 69.5 c 128,-1,12
 304 134 304 134 321.5 200 c 128,-1,13
 339 266 339 266 339 350 c 0,14,0
 339 472 339 472 295.5 567.5 c 128,-1,1
EndSplineSet
EndChar
StartChar: one
Encoding: 49 49 899
Width: 600
Flags: W
LayerCount: 2
Fore
SplineSet
551 120 m 1,0,-1
 551 0 l 1,1,-1
 101 0 l 1,2,-1
 101 120 l 1,3,-1
 268 120 l 1,4,-1
 268 538 l 1,5,-1
 125 448 l 1,6,-1
 58 557 l 1,7,-1
 282 693 l 1,8,-1
 422 693 l 1,9,-1
 422 120 l 1,10,-1
 551 120 l 1,0,-1
EndSplineSet
EndChar
StartChar: two
Encoding: 50 50 900
Width: 600
Flags: W
LayerCount: 2
Fore
SplineSet
406 684 m 128,-1,1
 460 657 460 657 487.5 611.5 c 128,-1,2
 515 566 515 566 515 512 c 0,3,4
 515 455 515 455 489 402 c 128,-1,5
 463 349 463 349 403.5 283.5 c 128,-1,6
 344 218 344 218 235 121 c 1,7,-1
 531 121 l 1,8,-1
 514 0 l 1,9,-1
 54 0 l 1,10,-1
 54 112 l 1,11,12
 177 231 177 231 238 297.5 c 128,-1,13
 299 364 299 364 326.5 410.5 c 128,-1,14
 354 457 354 457 354 498 c 0,15,16
 354 541 354 541 330 565 c 128,-1,17
 306 589 306 589 261 589 c 0,18,19
 222 589 222 589 193 572.5 c 128,-1,20
 164 556 164 556 136 519 c 1,21,-1
 40 592 l 1,22,23
 81 649 81 649 138.5 680 c 128,-1,24
 196 711 196 711 276 711 c 0,25,0
 352 711 352 711 406 684 c 128,-1,1
EndSplineSet
EndChar
StartChar: three
Encoding: 51 51 901
Width: 600
Flags: W
LayerCount: 2
Fore
SplineSet
397.5 687 m 128,-1,1
 451 663 451 663 479.5 622.5 c 128,-1,2
 508 582 508 582 508 533 c 0,3,4
 508 469 508 469 470.5 428 c 128,-1,5
 433 387 433 387 366 367 c 1,6,7
 530 345 530 345 530 195 c 0,8,9
 530 136 530 136 497.5 87.5 c 128,-1,10
 465 39 465 39 404 11 c 128,-1,11
 343 -17 343 -17 262 -17 c 0,12,13
 186 -17 186 -17 124 10 c 128,-1,14
 62 37 62 37 18 87 c 1,15,-1
 107 170 l 1,16,17
 164 104 164 104 251 104 c 0,18,19
 304 104 304 104 336 131 c 128,-1,20
 368 158 368 158 368 206 c 0,21,22
 368 310 368 310 251 310 c 2,23,-1
 188 310 l 1,24,-1
 206 418 l 1,25,-1
 250 418 l 2,26,27
 298 418 298 418 326.5 441.5 c 128,-1,28
 355 465 355 465 355 509 c 0,29,30
 355 548 355 548 327 570.5 c 128,-1,31
 299 593 299 593 254 593 c 0,32,33
 179 593 179 593 116 533 c 1,34,-1
 35 617 l 1,35,36
 132 711 132 711 272 711 c 0,37,0
 344 711 344 711 397.5 687 c 128,-1,1
EndSplineSet
EndChar
StartChar: four
Encoding: 52 52 902
Width: 600
Flags: W
LayerCount: 2
Fore
SplineSet
553 146 m 1,0,-1
 484 146 l 1,1,-1
 484 0 l 1,2,-1
 333 0 l 1,3,-1
 332 146 l 1,4,-1
 45 146 l 1,5,-1
 45 250 l 1,6,-1
 237 711 l 1,7,-1
 371 661 l 1,8,-1
 208 264 l 1,9,-1
 332 264 l 1,10,-1
 350 431 l 1,11,-1
 484 431 l 1,12,-1
 484 264 l 1,13,-1
 553 264 l 1,14,-1
 553 146 l 1,0,-1
EndSplineSet
EndChar
StartChar: five
Encoding: 53 53 903
Width: 600
Flags: W
LayerCount: 2
Fore
SplineSet
497 580 m 1,0,-1
 244 580 l 1,1,-1
 244 430 l 1,2,3
 293 453 293 453 346 453 c 0,4,5
 400 453 400 453 444.5 425.5 c 128,-1,6
 489 398 489 398 515 347 c 128,-1,7
 541 296 541 296 541 228 c 0,8,9
 541 158 541 158 507 102 c 128,-1,10
 473 46 473 46 411 14.5 c 128,-1,11
 349 -17 349 -17 269 -17 c 0,12,13
 196 -17 196 -17 137.5 10.5 c 128,-1,14
 79 38 79 38 39 87 c 1,15,-1
 130 170 l 1,16,17
 155 138 155 138 187.5 121 c 128,-1,18
 220 104 220 104 257 104 c 0,19,20
 312 104 312 104 345 137.5 c 128,-1,21
 378 171 378 171 378 225 c 0,22,23
 378 344 378 344 284 344 c 0,24,25
 241 344 241 344 200 321 c 1,26,-1
 93 321 l 1,27,-1
 93 693 l 1,28,-1
 515 693 l 1,29,-1
 497 580 l 1,0,-1
EndSplineSet
EndChar
StartChar: six
Encoding: 54 54 904
Width: 600
Flags: W
LayerCount: 2
Fore
SplineSet
459 438 m 128,-1,1
 503 411 503 411 528.5 358.5 c 128,-1,2
 554 306 554 306 554 235 c 0,3,4
 554 165 554 165 523.5 107.5 c 128,-1,5
 493 50 493 50 437.5 16.5 c 128,-1,6
 382 -17 382 -17 308 -17 c 0,7,8
 178 -17 178 -17 114 75.5 c 128,-1,9
 50 168 50 168 50 313 c 0,10,11
 50 430 50 430 86.5 520 c 128,-1,12
 123 610 123 610 191 660.5 c 128,-1,13
 259 711 259 711 351 711 c 0,14,15
 436 711 436 711 501 666 c 1,16,-1
 441 570 l 1,17,18
 401 598 401 598 353 598 c 0,19,20
 295 598 295 598 257.5 546.5 c 128,-1,21
 220 495 220 495 215 402 c 1,22,23
 245 433 245 433 283.5 449 c 128,-1,24
 322 465 322 465 360 465 c 0,25,0
 415 465 415 465 459 438 c 128,-1,1
374.5 132 m 128,-1,27
 396 168 396 168 396 226 c 0,28,29
 396 295 396 295 376.5 325.5 c 128,-1,30
 357 356 357 356 319 356 c 0,31,32
 291 356 291 356 264 342 c 128,-1,33
 237 328 237 328 215 303 c 1,34,35
 216 196 216 196 237.5 146 c 128,-1,36
 259 96 259 96 310 96 c 0,37,26
 353 96 353 96 374.5 132 c 128,-1,27
EndSplineSet
EndChar
StartChar: seven
Encoding: 55 55 905
Width: 600
Flags: W
LayerCount: 2
Fore
SplineSet
114 31 m 1,0,-1
 372 574 l 1,1,-1
 68 574 l 1,2,-1
 68 693 l 1,3,-1
 532 693 l 1,4,-1
 532 586 l 1,5,-1
 264 -16 l 1,6,-1
 114 31 l 1,0,-1
EndSplineSet
EndChar
StartChar: semicolon
Encoding: 59 59 992
Width: 600
Flags: W
LayerCount: 2
Fore
SplineSet
374 508 m 128,-1,1
 404 477 404 477 404 434 c 256,2,3
 404 391 404 391 374 360.5 c 128,-1,4
 344 330 344 330 300 330 c 256,5,6
 256 330 256 330 225.5 360.5 c 128,-1,7
 195 391 195 391 195 434 c 256,8,9
 195 477 195 477 225.5 508 c 128,-1,10
 256 539 256 539 300 539 c 256,11,0
 344 539 344 539 374 508 c 128,-1,1
374.5 167 m 128,-1,13
 404 137 404 137 404 93 c 0,14,15
 404 67 404 67 395 39 c 128,-1,16
 386 11 386 11 363 -40 c 2,17,-1
 294 -198 l 1,18,-1
 191 -198 l 1,19,-1
 240 7 l 1,20,21
 219 21 219 21 207 44 c 128,-1,22
 195 67 195 67 195 94 c 0,23,24
 195 138 195 138 225 167.5 c 128,-1,25
 255 197 255 197 300 197 c 256,26,12
 345 197 345 197 374.5 167 c 128,-1,13
EndSplineSet
EndChar
StartChar: equal
Encoding: 61 61 1081
Width: 600
Flags: W
LayerCount: 2
Fore
SplineSet
527 354 m 1,0,-1
 73 354 l 1,1,-1
 73 478 l 1,2,-1
 527 478 l 1,3,-1
 527 354 l 1,0,-1
527 145 m 1,4,-1
 73 145 l 1,5,-1
 73 268 l 1,6,-1
 527 268 l 1,7,-1
 527 145 l 1,4,-1
EndSplineSet
EndChar
StartChar: greater
Encoding: 62 62 1085
Width: 600
Flags: W
LayerCount: 2
Fore
SplineSet
531 371 m 1,0,-1
 531 257 l 1,1,-1
 141 15 l 1,2,-1
 70 123 l 1,3,-1
 394 314 l 1,4,-1
 70 499 l 1,5,-1
 140 613 l 1,6,-1
 531 371 l 1,0,-1
EndSplineSet
EndChar
StartChar: B
Encoding: 66 66 16
Width: 600
Flags: W
LayerCount: 2
Fore
SplineSet
492.5 46 m 128,-1,1
 414 0 414 0 286 0 c 2,2,-1
 56 0 l 1,3,-1
 56 693 l 1,4,-1
 276 693 l 2,5,6
 395 693 395 693 468 651.5 c 128,-1,7
 541 610 541 610 541 516 c 0,8,9
 541 457 541 457 505 419 c 128,-1,10
 469 381 469 381 414 367 c 1,11,12
 480 356 480 356 525.5 317.5 c 128,-1,13
 571 279 571 279 571 203 c 0,14,0
 571 92 571 92 492.5 46 c 128,-1,1
350.5 558.5 m 128,-1,16
 325 577 325 577 270 577 c 2,17,-1
 220 577 l 1,18,-1
 220 416 l 1,19,-1
 276 416 l 2,20,21
 328 416 328 416 352 435.5 c 128,-1,22
 376 455 376 455 376 499 c 0,23,15
 376 540 376 540 350.5 558.5 c 128,-1,16
372.5 284 m 128,-1,25
 343 306 343 306 287 306 c 2,26,-1
 220 306 l 1,27,-1
 220 120 l 1,28,-1
 280 120 l 2,29,30
 337 120 337 120 369.5 139 c 128,-1,31
 402 158 402 158 402 210 c 256,32,24
 402 262 402 262 372.5 284 c 128,-1,25
EndSplineSet
EndChar
StartChar: E
Encoding: 69 69 27
Width: 600
Flags: W
LayerCount: 2
Fore
SplineSet
257 409 m 1,0,-1
 497 409 l 1,1,-1
 497 295 l 1,2,-1
 257 295 l 1,3,-1
 257 118 l 1,4,-1
 546 118 l 1,5,-1
 546 0 l 1,6,-1
 93 0 l 1,7,-1
 93 693 l 1,8,-1
 546 693 l 1,9,-1
 529 576 l 1,10,-1
 257 576 l 1,11,-1
 257 409 l 1,0,-1
EndSplineSet
EndChar
StartChar: I
Encoding: 73 73 46
Width: 600
Flags: W
LayerCount: 2
Fore
SplineSet
525 573 m 1,0,-1
 382 573 l 1,1,-1
 382 121 l 1,2,-1
 525 121 l 1,3,-1
 525 0 l 1,4,-1
 75 0 l 1,5,-1
 75 121 l 1,6,-1
 218 121 l 1,7,-1
 218 573 l 1,8,-1
 75 573 l 1,9,-1
 75 693 l 1,10,-1
 525 693 l 1,11,-1
 525 573 l 1,0,-1
EndSplineSet
EndChar
StartChar: K
Encoding: 75 75 59
Width: 600
Flags: W
LayerCount: 2
Fore
SplineSet
59 0 m 1,0,-1
 59 693 l 1,1,-1
 223 693 l 1,2,-1
 223 0 l 1,3,-1
 59 0 l 1,0,-1
417 693 m 1,4,-1
 589 693 l 1,5,-1
 393 382 l 1,6,-1
 608 0 l 1,7,-1
 419 0 l 1,8,-1
 228 370 l 1,9,-1
 417 693 l 1,4,-1
EndSplineSet
EndChar
StartChar: M
Encoding: 77 77 67
Width: 600
Flags: W
LayerCount: 2
Fore
SplineSet
583 0 m 1,0,-1
 439 0 l 1,1,-1
 431 297 l 2,2,3
 430 319 430 319 430 357 c 0,4,5
 430 407 430 407 433 454.5 c 128,-1,6
 436 502 436 502 440 554 c 1,7,-1
 362 118 l 1,8,-1
 238 118 l 1,9,-1
 153 554 l 1,10,11
 164 439 164 439 164 347 c 1,12,-1
 163 294 l 1,13,-1
 158 0 l 1,14,-1
 17 0 l 1,15,-1
 56 693 l 1,16,-1
 225 693 l 1,17,-1
 302 245 l 1,18,-1
 375 693 l 1,19,-1
 544 693 l 1,20,-1
 583 0 l 1,0,-1
EndSplineSet
EndChar
StartChar: N
Encoding: 78 78 68
Width: 600
Flags: W
LayerCount: 2
Fore
SplineSet
167 557 m 1,0,1
 177 481 177 481 184 410.5 c 128,-1,2
 191 340 191 340 191 261 c 2,3,-1
 191 0 l 1,4,-1
 52 0 l 1,5,-1
 52 693 l 1,6,-1
 257 693 l 1,7,-1
 433 138 l 1,8,9
 409 292 409 292 409 428 c 2,10,-1
 409 693 l 1,11,-1
 548 693 l 1,12,-1
 548 0 l 1,13,-1
 349 0 l 1,14,-1
 167 557 l 1,0,1
EndSplineSet
EndChar
StartChar: O
Encoding: 79 79 74
Width: 600
Flags: W
LayerCount: 2
Fore
SplineSet
505.5 80.5 m 128,-1,1
 434 -17 434 -17 300 -17 c 0,2,3
 165 -17 165 -17 94 79.5 c 128,-1,4
 23 176 23 176 23 347 c 0,5,6
 23 516 23 516 94.5 613.5 c 128,-1,7
 166 711 166 711 300 711 c 0,8,9
 435 711 435 711 506 614.5 c 128,-1,10
 577 518 577 518 577 347 c 0,11,0
 577 178 577 178 505.5 80.5 c 128,-1,1
383.5 533 m 128,-1,13
 358 591 358 591 300 591 c 256,14,15
 242 591 242 591 216.5 533 c 128,-1,16
 191 475 191 475 191 347 c 256,17,18
 191 219 191 219 216.5 161 c 128,-1,19
 242 103 242 103 300 103 c 0,20,21
 359 103 359 103 384 161 c 128,-1,22
 409 219 409 219 409 347 c 256,23,12
 409 475 409 475 383.5 533 c 128,-1,13
EndSplineSet
EndChar
StartChar: P
Encoding: 80 80 86
Width: 600
Flags: W
LayerCount: 2
Fore
SplineSet
502.5 290.5 m 128,-1,1
 429 231 429 231 302 231 c 2,2,-1
 226 231 l 1,3,-1
 226 0 l 1,4,-1
 62 0 l 1,5,-1
 62 693 l 1,6,-1
 280 693 l 2,7,8
 424 693 424 693 500 636.5 c 128,-1,9
 576 580 576 580 576 467 c 0,10,0
 576 350 576 350 502.5 290.5 c 128,-1,1
283 576 m 2,12,-1
 226 576 l 1,13,-1
 226 349 l 1,14,-1
 291 349 l 2,15,16
 347 349 347 349 377.5 378 c 128,-1,17
 408 407 408 407 408 467 c 0,18,11
 408 576 408 576 283 576 c 2,12,-1
EndSplineSet
EndChar
StartChar: S
Encoding: 83 83 93
Width: 600
Flags: W
LayerCount: 2
Fore
SplineSet
534 88 m 128,-1,1
 500 38 500 38 436.5 10.5 c 128,-1,2
 373 -17 373 -17 286 -17 c 0,3,4
 114 -17 114 -17 12 83 c 1,5,-1
 95 175 l 1,6,7
 174 105 174 105 282 105 c 0,8,9
 334 105 334 105 365.5 127.5 c 128,-1,10
 397 150 397 150 397 190 c 0,11,12
 397 228 397 228 370.5 249.5 c 128,-1,13
 344 271 344 271 272 293 c 0,14,15
 150 330 150 330 99 380 c 128,-1,16
 48 430 48 430 48 509 c 0,17,18
 48 571 48 571 82.5 617 c 128,-1,19
 117 663 117 663 176.5 687 c 128,-1,20
 236 711 236 711 309 711 c 0,21,22
 462 711 462 711 557 621 c 1,23,-1
 480 532 l 1,24,25
 445 561 445 561 404.5 575.5 c 128,-1,26
 364 590 364 590 321 590 c 0,27,28
 273 590 273 590 245.5 572.5 c 128,-1,29
 218 555 218 555 218 522 c 0,30,31
 218 500 218 500 230.5 485 c 128,-1,32
 243 470 243 470 272 457 c 128,-1,33
 301 444 301 444 359 426 c 0,34,35
 465 394 465 394 516.5 343.5 c 128,-1,36
 568 293 568 293 568 203 c 0,37,0
 568 138 568 138 534 88 c 128,-1,1
EndSplineSet
EndChar
StartChar: T
Encoding: 84 84 99
Width: 600
Flags: W
LayerCount: 2
Fore
SplineSet
381 0 m 1,0,-1
 217 0 l 1,1,-1
 217 567 l 1,2,-1
 22 567 l 1,3,-1
 22 693 l 1,4,-1
 583 693 l 1,5,-1
 567 567 l 1,6,-1
 381 567 l 1,7,-1
 381 0 l 1,0,-1
EndSplineSet
EndChar
StartChar: U
Encoding: 85 85 104
Width: 600
Flags: W
LayerCount: 2
Fore
SplineSet
558 232 m 2,0,1
 558 160 558 160 529 103.5 c 128,-1,2
 500 47 500 47 442 15 c 128,-1,3
 384 -17 384 -17 300 -17 c 0,4,5
 174 -17 174 -17 108 50 c 128,-1,6
 42 117 42 117 42 232 c 2,7,-1
 42 693 l 1,8,-1
 207 693 l 1,9,-1
 207 293 l 2,10,11
 207 226 207 226 214 186 c 128,-1,12
 221 146 221 146 241.5 125.5 c 128,-1,13
 262 105 262 105 300 105 c 256,14,15
 338 105 338 105 358.5 125.5 c 128,-1,16
 379 146 379 146 386 186 c 128,-1,17
 393 226 393 226 393 293 c 2,18,-1
 393 693 l 1,19,-1
 558 693 l 1,20,-1
 558 232 l 2,0,1
EndSplineSet
EndChar
StartChar: W
Encoding: 87 87 116
Width: 600
Flags: W
LayerCount: 2
Fore
SplineSet
522 0 m 1,0,-1
 352 0 l 1,1,-1
 301 496 l 1,2,-1
 245 0 l 1,3,-1
 72 0 l 1,4,-1
 -3 693 l 1,5,-1
 150 693 l 1,6,-1
 174 140 l 1,7,-1
 231 613 l 1,8,-1
 373 613 l 1,9,-1
 426 140 l 1,10,-1
 460 693 l 1,11,-1
 603 693 l 1,12,-1
 522 0 l 1,0,-1
EndSplineSet
EndChar
StartChar: Y
Encoding: 89 89 122
Width: 600
Flags: W
LayerCount: 2
Fore
SplineSet
382 0 m 1,0,-1
 218 0 l 1,1,-1
 218 259 l 1,2,-1
 -8 693 l 1,3,-1
 172 693 l 1,4,-1
 303 395 l 1,5,-1
 435 693 l 1,6,-1
 608 693 l 1,7,-1
 382 260 l 1,8,-1
 382 0 l 1,0,-1
EndSplineSet
EndChar
StartChar: Z
Encoding: 90 90 127
Width: 600
Flags: W
LayerCount: 2
Fore
SplineSet
562 131 m 1,0,-1
 545 0 l 1,1,-1
 39 0 l 1,2,-1
 39 123 l 1,3,-1
 368 566 l 1,4,-1
 75 566 l 1,5,-1
 75 693 l 1,6,-1
 554 693 l 1,7,-1
 554 569 l 1,8,-1
 232 131 l 1,9,-1
 562 131 l 1,0,-1
EndSplineSet
EndChar
StartChar: grave
Encoding: 96 96 1435
Width: 600
Flags: W
LayerCount: 2
Fore
SplineSet
163 716 m 1,0,-1
 224 835 l 1,1,-1
 442 702 l 1,2,-1
 399 622 l 1,3,-1
 163 716 l 1,0,-1
EndSplineSet
EndChar
StartChar: a
Encoding: 97 97 136
Width: 600
Flags: W
LayerCount: 2
Fore
SplineSet
525 110 m 128,-1,1
 533 96 533 96 552 89 c 1,2,-1
 519 -15 l 1,3,4
 471 -10 471 -10 439 6.5 c 128,-1,5
 407 23 407 23 389 55 c 1,6,7
 359 20 359 20 313 1.5 c 128,-1,8
 267 -17 267 -17 215 -17 c 0,9,10
 133 -17 133 -17 84 29.5 c 128,-1,11
 35 76 35 76 35 150 c 0,12,13
 35 236 35 236 103 283.5 c 128,-1,14
 171 331 171 331 294 331 c 2,15,-1
 365 331 l 1,16,-1
 365 350 l 2,17,18
 365 432 365 432 260 432 c 0,19,20
 233 432 233 432 192.5 424.5 c 128,-1,21
 152 417 152 417 114 404 c 1,22,-1
 78 509 l 1,23,24
 129 528 129 528 184.5 538.5 c 128,-1,25
 240 549 240 549 285 549 c 0,26,27
 517 549 517 549 517 361 c 2,28,-1
 517 153 l 2,29,0
 517 124 517 124 525 110 c 128,-1,1
323.5 111.5 m 128,-1,31
 351 127 351 127 365 154 c 1,32,-1
 365 241 l 1,33,-1
 326 241 l 2,34,35
 198 241 198 241 198 161 c 0,36,37
 198 130 198 130 216.5 113 c 128,-1,38
 235 96 235 96 269 96 c 0,39,30
 296 96 296 96 323.5 111.5 c 128,-1,31
EndSplineSet
EndChar
StartChar: b
Encoding: 98 98 148
Width: 600
Flags: W
LayerCount: 2
Fore
SplineSet
288.5 530 m 128,-1,1
 324 549 324 549 364 549 c 0,2,3
 463 549 463 549 511.5 475 c 128,-1,4
 560 401 560 401 560 267 c 0,5,6
 560 184 560 184 535 120 c 128,-1,7
 510 56 510 56 462 19.5 c 128,-1,8
 414 -17 414 -17 347 -17 c 0,9,10
 307 -17 307 -17 273 0 c 128,-1,11
 239 17 239 17 216 48 c 1,12,-1
 210 0 l 1,13,-1
 70 0 l 1,14,-1
 70 742 l 1,15,-1
 228 759 l 1,16,-1
 228 477 l 1,17,0
 253 511 253 511 288.5 530 c 128,-1,1
397 265 m 0,19,20
 397 358 397 358 376 395 c 128,-1,21
 355 432 355 432 314 432 c 0,22,23
 265 432 265 432 228 370 c 1,24,-1
 228 146 l 1,25,26
 259 98 259 98 306 98 c 0,27,18
 397 98 397 98 397 265 c 0,19,20
EndSplineSet
EndChar
StartChar: d
Encoding: 100 100 155
Width: 600
Flags: W
LayerCount: 2
Fore
SplineSet
530 742 m 1,0,-1
 530 0 l 1,1,-1
 390 0 l 1,2,-1
 382 58 l 1,3,4
 358 24 358 24 321 3.5 c 128,-1,5
 284 -17 284 -17 235 -17 c 0,6,7
 139 -17 139 -17 89.5 59 c 128,-1,8
 40 135 40 135 40 267 c 0,9,10
 40 349 40 349 66 413 c 128,-1,11
 92 477 92 477 140 513 c 128,-1,12
 188 549 188 549 252 549 c 0,13,14
 324 549 324 549 372 499 c 1,15,-1
 372 759 l 1,16,-1
 530 742 l 1,0,-1
227 392.5 m 128,-1,18
 203 352 203 352 203 266 c 0,19,20
 203 174 203 174 224.5 136.5 c 128,-1,21
 246 99 246 99 285 99 c 0,22,23
 335 99 335 99 372 160 c 1,24,-1
 372 389 l 1,25,26
 355 411 355 411 336.5 422 c 128,-1,27
 318 433 318 433 294 433 c 0,28,17
 251 433 251 433 227 392.5 c 128,-1,18
EndSplineSet
EndChar
StartChar: g
Encoding: 103 103 170
Width: 600
Flags: W
LayerCount: 2
Fore
SplineSet
578 500 m 1,0,1
 526 479 526 479 425 479 c 1,2,3
 477 456 477 456 502.5 424 c 128,-1,4
 528 392 528 392 528 342 c 0,5,6
 528 291 528 291 500 250.5 c 128,-1,7
 472 210 472 210 421 187 c 128,-1,8
 370 164 370 164 303 164 c 0,9,10
 270 164 270 164 241 170 c 1,11,12
 233 166 233 166 228.5 157.5 c 128,-1,13
 224 149 224 149 224 140 c 0,14,15
 224 125 224 125 235.5 116.5 c 128,-1,16
 247 108 247 108 282 108 c 2,17,-1
 370 108 l 2,18,19
 430 108 430 108 476 88 c 128,-1,20
 522 68 522 68 547 33 c 128,-1,21
 572 -2 572 -2 572 -46 c 0,22,23
 572 -129 572 -129 499.5 -175.5 c 128,-1,24
 427 -222 427 -222 288 -222 c 0,25,26
 189 -222 189 -222 132.5 -201.5 c 128,-1,27
 76 -181 76 -181 53.5 -144 c 128,-1,28
 31 -107 31 -107 31 -51 c 1,29,-1
 171 -51 l 1,30,31
 171 -76 171 -76 180.5 -90 c 128,-1,32
 190 -104 190 -104 216 -111 c 128,-1,33
 242 -118 242 -118 292 -118 c 0,34,35
 362 -118 362 -118 388.5 -102 c 128,-1,36
 415 -86 415 -86 415 -57 c 0,37,38
 415 -33 415 -33 395.5 -18.5 c 128,-1,39
 376 -4 376 -4 338 -4 c 2,40,-1
 254 -4 l 2,41,42
 172 -4 172 -4 131 25.5 c 128,-1,43
 90 55 90 55 90 101 c 0,44,45
 90 131 90 131 105.5 157.5 c 128,-1,46
 121 184 121 184 149 202 c 1,47,48
 99 229 99 229 77 265.5 c 128,-1,49
 55 302 55 302 55 354 c 0,50,51
 55 413 55 413 85 457 c 128,-1,52
 115 501 115 501 169 524.5 c 128,-1,53
 223 548 223 548 292 548 c 1,54,55
 372 546 372 546 428 563.5 c 128,-1,56
 484 581 484 581 542 616 c 1,57,-1
 578 500 l 1,0,1
236.5 421 m 128,-1,59
 215 397 215 397 215 356 c 0,60,61
 215 313 215 313 237 289 c 128,-1,62
 259 265 259 265 296 265 c 0,63,64
 335 265 335 265 356 288.5 c 128,-1,65
 377 312 377 312 377 358 c 0,66,67
 377 445 377 445 296 445 c 0,68,58
 258 445 258 445 236.5 421 c 128,-1,59
EndSplineSet
EndChar
StartChar: h
Encoding: 104 104 175
Width: 600
Flags: W
LayerCount: 2
Fore
SplineSet
228 478 m 1,0,1
 295 549 295 549 384 549 c 0,2,3
 454 549 454 549 492 507.5 c 128,-1,4
 530 466 530 466 530 390 c 2,5,-1
 530 0 l 1,6,-1
 372 0 l 1,7,-1
 372 346 l 2,8,9
 372 394 372 394 361 413 c 128,-1,10
 350 432 350 432 321 432 c 0,11,12
 297 432 297 432 274.5 415.5 c 128,-1,13
 252 399 252 399 228 367 c 1,14,-1
 228 0 l 1,15,-1
 70 0 l 1,16,-1
 70 742 l 1,17,-1
 228 758 l 1,18,-1
 228 478 l 1,0,1
EndSplineSet
EndChar
StartChar: j
Encoding: 106 106 190
Width: 600
Flags: W
LayerCount: 2
Fore
SplineSet
436.5 783.5 m 128,-1,1
 463 758 463 758 463 720 c 256,2,3
 463 682 463 682 436.5 656.5 c 128,-1,4
 410 631 410 631 370 631 c 0,5,6
 328 631 328 631 302 656 c 128,-1,7
 276 681 276 681 276 720 c 0,8,9
 276 758 276 758 302.5 783.5 c 128,-1,10
 329 809 329 809 370 809 c 0,11,0
 410 809 410 809 436.5 783.5 c 128,-1,1
472 154 m 2,12,13
 472 41 472 41 430 -33.5 c 128,-1,14
 388 -108 388 -108 305.5 -152.5 c 128,-1,15
 223 -197 223 -197 94 -222 c 1,16,-1
 70 -101 l 1,17,18
 155 -82 155 -82 207.5 -54 c 128,-1,19
 260 -26 260 -26 287 21.5 c 128,-1,20
 314 69 314 69 314 144 c 2,21,-1
 314 423 l 1,22,-1
 124 423 l 1,23,-1
 124 531 l 1,24,-1
 472 531 l 1,25,-1
 472 154 l 2,12,13
EndSplineSet
EndChar
StartChar: l
Encoding: 108 108 196
Width: 600
Flags: W
LayerCount: 2
Fore
SplineSet
347 167 m 2,0,1
 347 108 347 108 415 108 c 0,2,3
 452 108 452 108 491 124 c 1,4,-1
 528 18 l 1,5,6
 464 -17 464 -17 375 -17 c 0,7,8
 282 -17 282 -17 235.5 36.5 c 128,-1,9
 189 90 189 90 189 187 c 2,10,-1
 189 634 l 1,11,-1
 33 634 l 1,12,-1
 33 742 l 1,13,-1
 347 742 l 1,14,-1
 347 167 l 2,0,1
EndSplineSet
EndChar
StartChar: s
Encoding: 115 115 229
Width: 600
Flags: W
LayerCount: 2
Fore
SplineSet
347.5 108.5 m 128,-1,1
 371 121 371 121 371 146 c 0,2,3
 371 164 371 164 361.5 175 c 128,-1,4
 352 186 352 186 326 196.5 c 128,-1,5
 300 207 300 207 245 222 c 0,6,7
 165 243 165 243 123 280.5 c 128,-1,8
 81 318 81 318 81 384 c 0,9,10
 81 457 81 457 141.5 503 c 128,-1,11
 202 549 202 549 311 549 c 0,12,13
 437 549 437 549 526 484 c 1,14,-1
 463 391 l 1,15,16
 390 436 390 436 316 436 c 0,17,18
 277 436 277 436 258.5 426 c 128,-1,19
 240 416 240 416 240 395 c 0,20,21
 240 381 240 381 249.5 371.5 c 128,-1,22
 259 362 259 362 285.5 352 c 128,-1,23
 312 342 312 342 365 327 c 0,24,25
 422 311 422 311 458.5 292 c 128,-1,26
 495 273 495 273 515 241 c 128,-1,27
 535 209 535 209 535 159 c 0,28,29
 535 103 535 103 501 63 c 128,-1,30
 467 23 467 23 410 3 c 128,-1,31
 353 -17 353 -17 284 -17 c 0,32,33
 210 -17 210 -17 150 4 c 128,-1,34
 90 25 90 25 48 63 c 1,35,-1
 127 152 l 1,36,37
 199 96 199 96 283 96 c 0,38,0
 324 96 324 96 347.5 108.5 c 128,-1,1
EndSplineSet
EndChar
StartChar: t
Encoding: 116 116 236
Width: 600
Flags: W
LayerCount: 2
Fore
SplineSet
374 -17 m 0,1,2
 272 -17 272 -17 220.5 35 c 128,-1,3
 169 87 169 87 169 181 c 2,4,-1
 169 422 l 1,5,-1
 58 422 l 1,6,-1
 58 531 l 1,7,-1
 169 531 l 1,8,-1
 169 646 l 1,9,-1
 327 665 l 1,10,-1
 327 531 l 1,11,-1
 498 531 l 1,12,-1
 482 422 l 1,13,-1
 327 422 l 1,14,-1
 327 181 l 2,15,16
 327 142 327 142 345 125 c 128,-1,17
 363 108 363 108 403 108 c 0,18,19
 453 108 453 108 496 132 c 1,20,-1
 548 31 l 1,21,0
 473 -17 473 -17 374 -17 c 0,1,2
EndSplineSet
EndChar
StartChar: u
Encoding: 117 117 241
Width: 600
Flags: W
LayerCount: 2
Fore
SplineSet
228 168 m 2,0,1
 228 131 228 131 241.5 115.5 c 128,-1,2
 255 100 255 100 282 100 c 0,3,4
 306 100 306 100 331 115.5 c 128,-1,5
 356 131 356 131 372 158 c 1,6,-1
 372 531 l 1,7,-1
 530 531 l 1,8,-1
 530 0 l 1,9,-1
 392 0 l 1,10,-1
 385 62 l 1,11,12
 359 24 359 24 315 3.5 c 128,-1,13
 271 -17 271 -17 222 -17 c 0,14,15
 147 -17 147 -17 108.5 26.5 c 128,-1,16
 70 70 70 70 70 148 c 2,17,-1
 70 531 l 1,18,-1
 228 531 l 1,19,-1
 228 168 l 2,0,1
EndSplineSet
EndChar
StartChar: w
Encoding: 119 119 253
Width: 600
Flags: W
LayerCount: 2
Fore
SplineSet
347 0 m 1,0,-1
 301 357 l 1,1,-1
 253 0 l 1,2,-1
 82 0 l 1,3,-1
 3 531 l 1,4,-1
 148 531 l 1,5,-1
 183 99 l 1,6,-1
 238 464 l 1,7,-1
 372 464 l 1,8,-1
 421 99 l 1,9,-1
 457 531 l 1,10,-1
 597 531 l 1,11,-1
 521 0 l 1,12,-1
 347 0 l 1,0,-1
EndSplineSet
EndChar
StartChar: x
Encoding: 120 120 258
Width: 600
Flags: W
LayerCount: 2
Fore
SplineSet
22 0 m 1,0,-1
 204 279 l 1,1,-1
 39 531 l 1,2,-1
 216 531 l 1,3,-1
 301 361 l 1,4,-1
 383 531 l 1,5,-1
 551 531 l 1,6,-1
 395 285 l 1,7,-1
 578 0 l 1,8,-1
 399 0 l 1,9,-1
 294 199 l 1,10,-1
 193 0 l 1,11,-1
 22 0 l 1,0,-1
EndSplineSet
EndChar
StartChar: braceright
Encoding: 125 125 1003
Width: 600
Flags: W
LayerCount: 2
Fore
SplineSet
317.5 805 m 128,-1,1
 374 770 374 770 374 688 c 0,2,3
 374 678 374 678 372 656 c 2,4,-1
 357 512 l 1,5,-1
 356 499 l 1,6,7
 356 414 356 414 495 414 c 1,8,-1
 495 286 l 1,9,10
 356 286 356 286 356 201 c 1,11,-1
 357 188 l 1,12,-1
 372 45 l 2,13,14
 374 21 374 21 374 11 c 0,15,16
 374 -71 374 -71 317 -105.5 c 128,-1,17
 260 -140 260 -140 133 -140 c 1,18,-1
 133 -30 l 1,19,20
 183 -30 183 -30 206.5 -16.5 c 128,-1,21
 230 -3 230 -3 226 33 c 2,22,-1
 211 181 l 2,23,24
 210 190 210 190 210 206 c 0,25,26
 210 272 210 272 250.5 305.5 c 128,-1,27
 291 339 291 339 367 350 c 1,28,29
 288 362 288 362 249 394 c 128,-1,30
 210 426 210 426 210 492 c 0,31,32
 210 510 210 510 211 519 c 2,33,-1
 226 667 l 2,34,35
 230 702 230 702 206 716 c 128,-1,36
 182 730 182 730 133 730 c 1,37,-1
 133 840 l 1,38,0
 261 840 261 840 317.5 805 c 128,-1,1
EndSplineSet
EndChar
StartChar: asciitilde
Encoding: 126 126 1077
Width: 600
Flags: W
LayerCount: 2
Fore
SplineSet
267.5 414.5 m 128,-1,1
 295 399 295 399 327 371 c 0,2,3
 350 350 350 350 366.5 340 c 128,-1,4
 383 330 383 330 401 330 c 0,5,6
 428 330 428 330 448.5 348.5 c 128,-1,7
 469 367 469 367 490 408 c 1,8,-1
 578 369 l 1,9,10
 543 292 543 292 501 251 c 128,-1,11
 459 210 459 210 397 210 c 0,12,13
 361 210 361 210 334.5 225 c 128,-1,14
 308 240 308 240 274 269 c 0,15,16
 249 290 249 290 232.5 300 c 128,-1,17
 216 310 216 310 199 310 c 0,18,19
 172 310 172 310 151.5 291 c 128,-1,20
 131 272 131 272 110 232 c 1,21,-1
 22 272 l 1,22,23
 58 346 58 346 99.5 388 c 128,-1,24
 141 430 141 430 203 430 c 0,25,0
 240 430 240 430 267.5 414.5 c 128,-1,1
EndSplineSet
EndChar
StartChar: cent
Encoding: 162 162 1055
Width: 600
Flags: W
LayerCount: 2
Fore
SplineSet
392 543 m 1,0,1
 464 531 464 531 521 483 c 1,2,-1
 453 388 l 1,3,4
 427 409 427 409 403 418 c 128,-1,5
 379 427 379 427 352 427 c 0,6,7
 298 427 298 427 271 388 c 128,-1,8
 244 349 244 349 244 262 c 0,9,10
 244 177 244 177 271.5 142.5 c 128,-1,11
 299 108 299 108 351 108 c 0,12,13
 377 108 377 108 399 117 c 128,-1,14
 421 126 421 126 450 147 c 1,15,-1
 521 46 l 1,16,17
 463 0 463 0 392 -12 c 1,18,-1
 392 -161 l 1,19,-1
 279 -161 l 1,20,-1
 279 -9 l 1,21,22
 184 10 184 10 131.5 82 c 128,-1,23
 79 154 79 154 79 262 c 0,24,25
 79 371 79 371 132.5 446.5 c 128,-1,26
 186 522 186 522 280 541 c 1,27,-1
 280 692 l 1,28,-1
 392 692 l 1,29,-1
 392 543 l 1,0,1
EndSplineSet
EndChar
StartChar: sterling
Encoding: 163 163 1064
Width: 600
Flags: W
LayerCount: 2
Fore
SplineSet
470.5 686 m 128,-1,1
 521 661 521 661 558 609 c 1,2,-1
 461 539 l 1,3,4
 441 568 441 568 419 580 c 128,-1,5
 397 592 397 592 366 592 c 0,6,7
 281 592 281 592 281 498 c 2,8,-1
 281 402 l 1,9,-1
 464 402 l 1,10,-1
 464 319 l 1,11,-1
 281 319 l 1,12,-1
 281 243 l 2,13,14
 281 201 281 201 267 170.5 c 128,-1,15
 253 140 253 140 217 120 c 1,16,-1
 542 120 l 1,17,-1
 524 0 l 1,18,-1
 42 0 l 1,19,-1
 42 114 l 1,20,21
 79 126 79 126 96.5 142.5 c 128,-1,22
 114 159 114 159 119.5 182.5 c 128,-1,23
 125 206 125 206 125 248 c 2,24,-1
 125 319 l 1,25,-1
 52 319 l 1,26,-1
 52 402 l 1,27,-1
 125 402 l 1,28,-1
 125 502 l 2,29,30
 125 563 125 563 151.5 610 c 128,-1,31
 178 657 178 657 229.5 684 c 128,-1,32
 281 711 281 711 353 711 c 0,33,0
 420 711 420 711 470.5 686 c 128,-1,1
EndSplineSet
EndChar
StartChar: currency
Encoding: 164 164 1056
Width: 600
Flags: W
LayerCount: 2
Fore
SplineSet
183 531 m 1,0,1
 231 560 231 560 301 560 c 0,2,3
 369 560 369 560 418 531 c 1,4,-1
 498 611 l 1,5,-1
 569 540 l 1,6,-1
 491 461 l 1,7,8
 523 408 523 408 523 342 c 0,9,10
 523 275 523 275 490 222 c 1,11,-1
 569 143 l 1,12,-1
 498 73 l 1,13,-1
 418 151 l 1,14,15
 369 123 369 123 301 123 c 0,16,17
 232 123 232 123 182 151 c 1,18,-1
 102 71 l 1,19,-1
 31 142 l 1,20,-1
 111 223 l 1,21,22
 80 273 80 273 80 342 c 0,23,24
 80 412 80 412 110 461 c 1,25,-1
 31 541 l 1,26,-1
 102 612 l 1,27,-1
 183 531 l 1,0,1
227.5 424 m 128,-1,29
 202 395 202 395 202 342 c 0,30,31
 202 288 202 288 227.5 259 c 128,-1,32
 253 230 253 230 301 230 c 256,33,34
 349 230 349 230 373.5 259 c 128,-1,35
 398 288 398 288 398 342 c 0,36,37
 398 395 398 395 373.5 424 c 128,-1,38
 349 453 349 453 301 453 c 256,39,28
 253 453 253 453 227.5 424 c 128,-1,29
EndSplineSet
EndChar
StartChar: yen
Encoding: 165 165 1065
Width: 600
Flags: W
LayerCount: 2
Fore
SplineSet
415 352 m 1,0,-1
 514 352 l 1,1,-1
 514 270 l 1,2,-1
 380 270 l 1,3,-1
 380 202 l 1,4,-1
 514 202 l 1,5,-1
 514 120 l 1,6,-1
 380 120 l 1,7,-1
 380 0 l 1,8,-1
 222 0 l 1,9,-1
 222 120 l 1,10,-1
 90 120 l 1,11,-1
 90 202 l 1,12,-1
 222 202 l 1,13,-1
 222 270 l 1,14,-1
 90 270 l 1,15,-1
 90 352 l 1,16,-1
 186 352 l 1,17,-1
 8 693 l 1,18,-1
 176 693 l 1,19,-1
 302 408 l 1,20,-1
 306 408 l 1,21,-1
 429 693 l 1,22,-1
 592 693 l 1,23,-1
 415 352 l 1,0,-1
EndSplineSet
EndChar
StartChar: section
Encoding: 167 167 1382
Width: 600
Flags: W
LayerCount: 2
Fore
SplineSet
421.5 696 m 128,-1,1
 471 681 471 681 511 655 c 1,2,-1
 456 563 l 1,3,4
 395 601 395 601 326 601 c 0,5,6
 291 601 291 601 272.5 588.5 c 128,-1,7
 254 576 254 576 254 554 c 0,8,9
 254 537 254 537 262.5 526 c 128,-1,10
 271 515 271 515 295 504 c 128,-1,11
 319 493 319 493 370 477 c 0,12,13
 447 453 447 453 484.5 417.5 c 128,-1,14
 522 382 522 382 522 321 c 0,15,16
 522 280 522 280 500.5 247.5 c 128,-1,17
 479 215 479 215 443 192 c 1,18,19
 499 148 499 148 499 78 c 0,20,21
 499 31 499 31 471.5 -6 c 128,-1,22
 444 -43 444 -43 393.5 -63.5 c 128,-1,23
 343 -84 343 -84 277 -84 c 0,24,25
 165 -84 165 -84 84 -28 c 1,26,-1
 137 69 l 1,27,28
 205 26 205 26 269 26 c 0,29,30
 306 26 306 26 327 39 c 128,-1,31
 348 52 348 52 348 73 c 0,32,33
 348 90 348 90 340 101 c 128,-1,34
 332 112 332 112 307 124 c 128,-1,35
 282 136 282 136 229 152 c 0,36,37
 153 176 153 176 115.5 211 c 128,-1,38
 78 246 78 246 78 307 c 0,39,40
 78 347 78 347 100.5 379 c 128,-1,41
 123 411 123 411 160 434 c 1,42,43
 102 480 102 480 102 548 c 0,44,45
 102 595 102 595 129 632 c 128,-1,46
 156 669 156 669 205 690 c 128,-1,47
 254 711 254 711 319 711 c 0,48,0
 372 711 372 711 421.5 696 c 128,-1,1
216 330 m 0,50,51
 216 308 216 308 227 294.5 c 128,-1,52
 238 281 238 281 266 268.5 c 128,-1,53
 294 256 294 256 357 234 c 1,54,55
 384 271 384 271 384 300 c 0,56,57
 384 321 384 321 373 334 c 128,-1,58
 362 347 362 347 333 360 c 128,-1,59
 304 373 304 373 242 394 c 1,60,49
 216 364 216 364 216 330 c 0,50,51
EndSplineSet
EndChar
StartChar: dieresis
Encoding: 168 168 1433
Width: 600
Flags: W
LayerCount: 2
Fore
SplineSet
126 660.5 m 128,-1,1
 102 684 102 684 102 718 c 0,2,3
 102 751 102 751 126 774 c 128,-1,4
 150 797 150 797 184 797 c 0,5,6
 219 797 219 797 243 774 c 128,-1,7
 267 751 267 751 267 718 c 0,8,9
 267 684 267 684 243 660.5 c 128,-1,10
 219 637 219 637 184 637 c 0,11,0
 150 637 150 637 126 660.5 c 128,-1,1
357.5 660.5 m 128,-1,13
 333 684 333 684 333 718 c 0,14,15
 333 751 333 751 357.5 774 c 128,-1,16
 382 797 382 797 416 797 c 256,17,18
 450 797 450 797 474 774 c 128,-1,19
 498 751 498 751 498 718 c 0,20,21
 498 684 498 684 474.5 660.5 c 128,-1,22
 451 637 451 637 416 637 c 0,23,12
 382 637 382 637 357.5 660.5 c 128,-1,13
EndSplineSet
EndChar
StartChar: copyright
Encoding: 169 169 1380
Width: 600
Flags: W
LayerCount: 2
Fore
SplineSet
456.5 715 m 128,-1,1
 522 671 522 671 556.5 594.5 c 128,-1,2
 591 518 591 518 591 424 c 256,3,4
 591 330 591 330 556.5 254.5 c 128,-1,5
 522 179 522 179 456.5 135.5 c 128,-1,6
 391 92 391 92 301 92 c 0,7,8
 209 92 209 92 143 135.5 c 128,-1,9
 77 179 77 179 43 254.5 c 128,-1,10
 9 330 9 330 9 424 c 256,11,12
 9 518 9 518 44 594.5 c 128,-1,13
 79 671 79 671 145 715 c 128,-1,14
 211 759 211 759 301 759 c 256,15,0
 391 759 391 759 456.5 715 c 128,-1,1
144.5 615 m 128,-1,17
 92 541 92 541 92 424 c 0,18,19
 92 308 92 308 144.5 234.5 c 128,-1,20
 197 161 197 161 301 161 c 0,21,22
 404 161 404 161 456.5 234.5 c 128,-1,23
 509 308 509 308 509 424 c 0,24,25
 509 541 509 541 457 615 c 128,-1,26
 405 689 405 689 301 689 c 256,27,16
 197 689 197 689 144.5 615 c 128,-1,17
374.5 610.5 m 128,-1,29
 402 599 402 599 426 574 c 1,30,-1
 377 514 l 1,31,32
 363 525 363 525 350 530.5 c 128,-1,33
 337 536 337 536 321 536 c 0,34,35
 290 536 290 536 272 509.5 c 128,-1,36
 254 483 254 483 254 425 c 0,37,38
 254 316 254 316 321 316 c 0,39,40
 355 316 355 316 386 343 c 1,41,-1
 431 277 l 1,42,43
 377 228 377 228 311 228 c 0,44,45
 231 228 231 228 186 279.5 c 128,-1,46
 141 331 141 331 141 425 c 0,47,48
 141 516 141 516 188 569 c 128,-1,49
 235 622 235 622 310 622 c 0,50,28
 347 622 347 622 374.5 610.5 c 128,-1,29
EndSplineSet
EndChar
StartChar: guillemotleft
Encoding: 171 171 1031
Width: 600
Flags: W
LayerCount: 2
Fore
SplineSet
222 17 m 1,0,-1
 52 237 l 1,1,-1
 52 337 l 1,2,-1
 222 556 l 1,3,-1
 313 499 l 1,4,-1
 197 287 l 1,5,-1
 313 74 l 1,6,-1
 222 17 l 1,0,-1
457 17 m 1,7,-1
 286 237 l 1,8,-1
 286 337 l 1,9,-1
 457 556 l 1,10,-1
 548 499 l 1,11,-1
 433 287 l 1,12,-1
 548 74 l 1,13,-1
 457 17 l 1,7,-1
EndSplineSet
EndChar
StartChar: uni00B5
Encoding: 181 181 1095
Width: 600
Flags: W
LayerCount: 2
Fore
SplineSet
524 188 m 2,0,1
 524 99 524 99 536 0 c 1,2,-1
 394 -14 l 1,3,4
 385 19 385 19 381 63 c 1,5,6
 358 26 358 26 329 5.5 c 128,-1,7
 300 -15 300 -15 266 -15 c 0,8,9
 238 -15 238 -15 219.5 -5 c 128,-1,10
 201 5 201 5 180 33 c 1,11,12
 199 -7 199 -7 207.5 -38.5 c 128,-1,13
 216 -70 216 -70 216 -115 c 2,14,-1
 216 -205 l 1,15,-1
 67 -221 l 1,16,-1
 67 531 l 1,17,-1
 224 531 l 1,18,-1
 224 229 l 2,19,20
 224 180 224 180 227 154.5 c 128,-1,21
 230 129 230 129 242 115.5 c 128,-1,22
 254 102 254 102 279 102 c 256,23,24
 304 102 304 102 326.5 117 c 128,-1,25
 349 132 349 132 366 159 c 1,26,-1
 366 531 l 1,27,-1
 524 531 l 1,28,-1
 524 188 l 2,0,1
EndSplineSet
EndChar
StartChar: paragraph
Encoding: 182 182 1379
Width: 600
Flags: W
LayerCount: 2
Fore
SplineSet
581 -210 m 1,0,-1
 449 -221 l 1,1,-1
 449 586 l 1,2,-1
 366 586 l 1,3,-1
 366 -210 l 1,4,-1
 234 -221 l 1,5,-1
 234 265 l 1,6,7
 128 274 128 274 73.5 329.5 c 128,-1,8
 19 385 19 385 19 478 c 0,9,10
 19 575 19 575 84 634 c 128,-1,11
 149 693 149 693 271 693 c 2,12,-1
 581 693 l 1,13,-1
 581 -210 l 1,0,-1
EndSplineSet
EndChar
StartChar: periodcentered
Encoding: 183 183 979
Width: 600
Flags: W
LayerCount: 2
Fore
SplineSet
221.5 420.5 m 128,-1,1
 254 453 254 453 300 453 c 256,2,3
 346 453 346 453 378.5 420.5 c 128,-1,4
 411 388 411 388 411 342 c 256,5,6
 411 296 411 296 378.5 263.5 c 128,-1,7
 346 231 346 231 300 231 c 256,8,9
 254 231 254 231 221.5 263.5 c 128,-1,10
 189 296 189 296 189 342 c 256,11,0
 189 388 189 388 221.5 420.5 c 128,-1,1
EndSplineSet
EndChar
StartChar: cedilla
Encoding: 184 184 1431
Width: 600
Flags: W
LayerCount: 2
Fore
SplineSet
298 -119 m 128,-1,1
 276 -112 276 -112 228 -112 c 1,2,-1
 242 16 l 1,3,-1
 330 16 l 1,4,-1
 330 -48 l 1,5,6
 381 -54 381 -54 407 -80 c 128,-1,7
 433 -106 433 -106 433 -147 c 0,8,9
 433 -198 433 -198 392 -230 c 128,-1,10
 351 -262 351 -262 284 -262 c 0,11,12
 250 -262 250 -262 219.5 -253.5 c 128,-1,13
 189 -245 189 -245 167 -232 c 1,14,-1
 203 -159 l 1,15,16
 237 -176 237 -176 267 -176 c 0,17,18
 320 -176 320 -176 320 -145 c 0,19,0
 320 -126 320 -126 298 -119 c 128,-1,1
EndSplineSet
EndChar
StartChar: ordmasculine
Encoding: 186 186 276
Width: 600
Flags: W
LayerCount: 2
Fore
SplineSet
418 729.5 m 128,-1,1
 468 700 468 700 495 648.5 c 128,-1,2
 522 597 522 597 522 532 c 0,3,4
 522 465 522 465 495 413 c 128,-1,5
 468 361 468 361 418 332.5 c 128,-1,6
 368 304 368 304 300 304 c 0,7,8
 197 304 197 304 137.5 366.5 c 128,-1,9
 78 429 78 429 78 532 c 0,10,11
 78 597 78 597 105 648.5 c 128,-1,12
 132 700 132 700 182.5 729.5 c 128,-1,13
 233 759 233 759 300 759 c 0,14,0
 368 759 368 759 418 729.5 c 128,-1,1
217 532 m 0,16,17
 217 464 217 464 238 433.5 c 128,-1,18
 259 403 259 403 300 403 c 256,19,20
 341 403 341 403 362 433.5 c 128,-1,21
 383 464 383 464 383 532 c 0,22,23
 383 661 383 661 300 661 c 256,24,15
 217 661 217 661 217 532 c 0,16,17
507 0 m 1,25,-1
 93 0 l 1,26,-1
 93 108 l 1,27,-1
 507 108 l 1,28,-1
 507 0 l 1,25,-1
EndSplineSet
EndChar
StartChar: guillemotright
Encoding: 187 187 1032
Width: 600
Flags: W
LayerCount: 2
Fore
SplineSet
52 499 m 1,0,-1
 143 556 l 1,1,-1
 313 337 l 1,2,-1
 313 237 l 1,3,-1
 143 17 l 1,4,-1
 52 74 l 1,5,-1
 167 287 l 1,6,-1
 52 499 l 1,0,-1
286 499 m 1,7,-1
 377 556 l 1,8,-1
 548 337 l 1,9,-1
 548 237 l 1,10,-1
 377 17 l 1,11,-1
 286 74 l 1,12,-1
 402 287 l 1,13,-1
 286 499 l 1,7,-1
EndSplineSet
EndChar
StartChar: Oslash
Encoding: 216 216 82
Width: 600
Flags: W
LayerCount: 2
Fore
SplineSet
546 535.5 m 128,-1,1
 577 455 577 455 577 347 c 0,2,3
 577 178 577 178 505.5 80.5 c 128,-1,4
 434 -17 434 -17 300 -17 c 0,5,6
 275 -17 275 -17 248 -12 c 1,7,-1
 220 -109 l 1,8,-1
 109 -76 l 1,9,-1
 143 34 l 1,10,11
 85 79 85 79 54 159.5 c 128,-1,12
 23 240 23 240 23 347 c 0,13,14
 23 516 23 516 94.5 613.5 c 128,-1,15
 166 711 166 711 300 711 c 0,16,17
 324 711 324 711 351 706 c 1,18,-1
 380 803 l 1,19,-1
 491 770 l 1,20,-1
 457 660 l 1,21,0
 515 616 515 616 546 535.5 c 128,-1,1
212 535.5 m 128,-1,23
 185 477 185 477 185 347 c 0,24,25
 185 224 185 224 208 166 c 1,26,-1
 332 590 l 1,27,28
 312 594 312 594 300 594 c 0,29,22
 239 594 239 594 212 535.5 c 128,-1,23
388.5 158.5 m 128,-1,31
 415 217 415 217 415 347 c 0,32,33
 415 471 415 471 393 526 c 1,34,-1
 270 104 l 1,35,36
 282 100 282 100 300 100 c 0,37,30
 362 100 362 100 388.5 158.5 c 128,-1,31
EndSplineSet
EndChar
StartChar: Thorn
Encoding: 222 222 87
Width: 600
Flags: W
LayerCount: 2
Fore
SplineSet
224 581 m 1,0,-1
 279 581 l 2,1,2
 422 581 422 581 499 524 c 128,-1,3
 576 467 576 467 576 354 c 0,4,5
 576 234 576 234 504.5 175 c 128,-1,6
 433 116 433 116 301 116 c 2,7,-1
 224 116 l 1,8,-1
 224 0 l 1,9,-1
 59 0 l 1,10,-1
 59 693 l 1,11,-1
 224 693 l 1,12,-1
 224 581 l 1,0,-1
224 464 m 1,13,-1
 224 235 l 1,14,-1
 290 235 l 2,15,16
 347 235 347 235 376.5 262.5 c 128,-1,17
 406 290 406 290 406 353 c 0,18,19
 406 410 406 410 375.5 437 c 128,-1,20
 345 464 345 464 284 464 c 2,21,-1
 224 464 l 1,13,-1
EndSplineSet
EndChar
StartChar: divide
Encoding: 247 247 1079
Width: 600
Flags: W
LayerCount: 2
Fore
SplineSet
364 596.5 m 128,-1,1
 390 570 390 570 390 532 c 0,2,3
 390 496 390 496 364 469.5 c 128,-1,4
 338 443 338 443 300 443 c 256,5,6
 262 443 262 443 236 469.5 c 128,-1,7
 210 496 210 496 210 532 c 0,8,9
 210 570 210 570 236 596.5 c 128,-1,10
 262 623 262 623 300 623 c 256,11,0
 338 623 338 623 364 596.5 c 128,-1,1
517 258 m 1,12,-1
 83 258 l 1,13,-1
 83 379 l 1,14,-1
 517 379 l 1,15,-1
 517 258 l 1,12,-1
364 168.5 m 128,-1,17
 390 142 390 142 390 104 c 0,18,19
 390 67 390 67 364 40.5 c 128,-1,20
 338 14 338 14 300 14 c 256,21,22
 262 14 262 14 236 40.5 c 128,-1,23
 210 67 210 67 210 104 c 0,24,25
 210 142 210 142 236 168.5 c 128,-1,26
 262 195 262 195 300 195 c 256,27,16
 338 195 338 195 364 168.5 c 128,-1,17
EndSplineSet
EndChar
StartChar: dcroat
Encoding: 273 273 158
Width: 600
Flags: W
LayerCount: 2
Fore
SplineSet
592 593 m 1,0,-1
 512 593 l 1,1,-1
 512 0 l 1,2,-1
 372 0 l 1,3,-1
 364 58 l 1,4,5
 339 24 339 24 302 3.5 c 128,-1,6
 265 -17 265 -17 216 -17 c 0,7,8
 120 -17 120 -17 70.5 59 c 128,-1,9
 21 135 21 135 21 267 c 0,10,11
 21 349 21 349 47 413 c 128,-1,12
 73 477 73 477 121 513 c 128,-1,13
 169 549 169 549 233 549 c 0,14,15
 306 549 306 549 354 499 c 1,16,-1
 354 593 l 1,17,-1
 231 593 l 1,18,-1
 231 685 l 1,19,-1
 354 685 l 1,20,-1
 354 759 l 1,21,-1
 512 742 l 1,22,-1
 512 685 l 1,23,-1
 592 685 l 1,24,-1
 592 593 l 1,0,-1
354 389 m 1,25,26
 319 433 319 433 276 433 c 256,27,28
 233 433 233 433 208.5 392.5 c 128,-1,29
 184 352 184 352 184 266 c 0,30,31
 184 174 184 174 205.5 136.5 c 128,-1,32
 227 99 227 99 267 99 c 0,33,34
 317 99 317 99 354 160 c 1,35,-1
 354 389 l 1,25,26
EndSplineSet
Colour: ff0000
EndChar
StartChar: Hbar
Encoding: 294 294 44
Width: 600
Flags: W
LayerCount: 2
Fore
SplineSet
598 500 m 1,0,-1
 543 500 l 1,1,-1
 543 0 l 1,2,-1
 379 0 l 1,3,-1
 379 297 l 1,4,-1
 221 297 l 1,5,-1
 221 0 l 1,6,-1
 57 0 l 1,7,-1
 57 500 l 1,8,-1
 2 500 l 1,9,-1
 2 592 l 1,10,-1
 57 592 l 1,11,-1
 57 693 l 1,12,-1
 221 693 l 1,13,-1
 221 592 l 1,14,-1
 379 592 l 1,15,-1
 379 693 l 1,16,-1
 543 693 l 1,17,-1
 543 592 l 1,18,-1
 598 592 l 1,19,-1
 598 500 l 1,0,-1
379 500 m 1,20,-1
 221 500 l 1,21,-1
 221 424 l 1,22,-1
 379 424 l 1,23,-1
 379 500 l 1,20,-1
EndSplineSet
Colour: ff0000
EndChar
StartChar: Iogonek
Encoding: 302 302 55
Width: 600
Flags: W
LayerCount: 2
Fore
SplineSet
382 573 m 1,0,-1
 382 121 l 1,1,-1
 525 121 l 1,2,-1
 525 0 l 1,3,-1
 382 0 l 1,4,5
 317 -22 317 -22 292 -49 c 128,-1,6
 267 -76 267 -76 267 -110 c 0,7,8
 267 -134 267 -134 282.5 -146.5 c 128,-1,9
 298 -159 298 -159 325 -159 c 0,10,11
 349 -159 349 -159 379 -152 c 1,12,-1
 367 -245 l 1,13,14
 338 -253 338 -253 308 -253 c 0,15,16
 242 -253 242 -253 199.5 -220.5 c 128,-1,17
 157 -188 157 -188 157 -130 c 0,18,19
 157 -47 157 -47 237 0 c 1,20,-1
 75 0 l 1,21,-1
 75 121 l 1,22,-1
 218 121 l 1,23,-1
 218 573 l 1,24,-1
 75 573 l 1,25,-1
 75 693 l 1,26,-1
 525 693 l 1,27,-1
 525 573 l 1,28,-1
 382 573 l 1,0,-1
EndSplineSet
Colour: ff0000
EndChar
StartChar: iogonek
Encoding: 303 303 188
Width: 600
Flags: W
LayerCount: 2
Fore
SplineSet
231.5 656.5 m 128,-1,1
 205 682 205 682 205 720 c 256,2,3
 205 758 205 758 231.5 783.5 c 128,-1,4
 258 809 258 809 299 809 c 256,5,6
 340 809 340 809 366 783.5 c 128,-1,7
 392 758 392 758 392 720 c 0,8,9
 392 681 392 681 366 656 c 128,-1,10
 340 631 340 631 299 631 c 256,11,0
 258 631 258 631 231.5 656.5 c 128,-1,1
530 108 m 1,12,-1
 530 0 l 1,13,-1
 394 0 l 1,14,15
 329 -22 329 -22 304 -49 c 128,-1,16
 279 -76 279 -76 279 -110 c 0,17,18
 279 -134 279 -134 294.5 -146.5 c 128,-1,19
 310 -159 310 -159 337 -159 c 0,20,21
 361 -159 361 -159 391 -152 c 1,22,-1
 379 -245 l 1,23,24
 350 -253 350 -253 320 -253 c 0,25,26
 254 -253 254 -253 211.5 -220.5 c 128,-1,27
 169 -188 169 -188 169 -130 c 0,28,29
 169 -47 169 -47 249 0 c 1,30,-1
 86 0 l 1,31,-1
 86 108 l 1,32,-1
 236 108 l 1,33,-1
 236 423 l 1,34,-1
 91 423 l 1,35,-1
 91 531 l 1,36,-1
 394 531 l 1,37,-1
 394 108 l 1,38,-1
 530 108 l 1,12,-1
EndSplineSet
Colour: ff0000
EndChar
StartChar: dotlessi
Encoding: 305 305 179
Width: 600
Flags: W
LayerCount: 2
Fore
SplineSet
394 108 m 1,0,-1
 530 108 l 1,1,-1
 530 0 l 1,2,-1
 86 0 l 1,3,-1
 86 108 l 1,4,-1
 236 108 l 1,5,-1
 236 423 l 1,6,-1
 91 423 l 1,7,-1
 91 531 l 1,8,-1
 394 531 l 1,9,-1
 394 108 l 1,0,-1
EndSplineSet
EndChar
StartChar: ij
Encoding: 307 307 186
Width: 600
Flags: W
LayerCount: 2
Fore
SplineSet
250.5 783.5 m 128,-1,1
 277 758 277 758 277 720 c 0,2,3
 277 681 277 681 250.5 656 c 128,-1,4
 224 631 224 631 182 631 c 0,5,6
 142 631 142 631 115.5 656.5 c 128,-1,7
 89 682 89 682 89 720 c 256,8,9
 89 758 89 758 115.5 783.5 c 128,-1,10
 142 809 142 809 182 809 c 0,11,0
 224 809 224 809 250.5 783.5 c 128,-1,1
523 783.5 m 128,-1,13
 550 758 550 758 550 720 c 256,14,15
 550 682 550 682 523 656.5 c 128,-1,16
 496 631 496 631 456 631 c 0,17,18
 415 631 415 631 388.5 656.5 c 128,-1,19
 362 682 362 682 362 720 c 256,20,21
 362 758 362 758 388.5 783.5 c 128,-1,22
 415 809 415 809 456 809 c 0,23,12
 496 809 496 809 523 783.5 c 128,-1,13
545 122 m 2,24,25
 545 21 545 21 511 -44.5 c 128,-1,26
 477 -110 477 -110 412.5 -150.5 c 128,-1,27
 348 -191 348 -191 245 -222 c 1,28,-1
 193 -105 l 1,29,30
 264 -83 264 -83 305 -59 c 128,-1,31
 346 -35 346 -35 367 4.5 c 128,-1,32
 388 44 388 44 388 108 c 2,33,-1
 388 424 l 1,34,-1
 260 424 l 1,35,-1
 260 108 l 1,36,-1
 312 108 l 1,37,-1
 312 0 l 1,38,-1
 35 0 l 1,39,-1
 35 108 l 1,40,-1
 104 108 l 1,41,-1
 104 424 l 1,42,-1
 40 424 l 1,43,-1
 40 531 l 1,44,-1
 545 531 l 1,45,-1
 545 122 l 2,24,25
EndSplineSet
Colour: ff0000
EndChar
StartChar: lslash
Encoding: 322 322 201
Width: 600
Flags: W
LayerCount: 2
Fore
SplineSet
528 18 m 1,0,1
 464 -17 464 -17 375 -17 c 0,2,3
 282 -17 282 -17 235.5 36.5 c 128,-1,4
 189 90 189 90 189 187 c 2,5,-1
 189 258 l 1,6,-1
 144 231 l 1,7,-1
 89 319 l 1,8,-1
 189 380 l 1,9,-1
 189 634 l 1,10,-1
 33 634 l 1,11,-1
 33 742 l 1,12,-1
 347 742 l 1,13,-1
 347 477 l 1,14,-1
 412 517 l 1,15,-1
 468 428 l 1,16,-1
 347 354 l 1,17,-1
 347 167 l 2,18,19
 347 108 347 108 415 108 c 0,20,21
 452 108 452 108 491 124 c 1,22,-1
 528 18 l 1,0,1
EndSplineSet
Colour: ff0000
EndChar
StartChar: napostrophe
Encoding: 329 329 205
Width: 600
Flags: W
LayerCount: 2
Fore
SplineSet
114 742.5 m 128,-1,1
 136 721 136 721 136 689 c 0,2,3
 136 671 136 671 130.5 655 c 128,-1,4
 125 639 125 639 112 615 c 2,5,-1
 71 535 l 1,6,-1
 -7 535 l 1,7,-1
 14 627 l 1,8,9
 -17 653 -17 653 -17 689 c 0,10,11
 -17 720 -17 720 5 742 c 128,-1,12
 27 764 27 764 59 764 c 0,13,0
 92 764 92 764 114 742.5 c 128,-1,1
90 531 m 1,14,-1
 228 531 l 1,15,-1
 239 470 l 1,16,17
 274 510 274 510 314 529.5 c 128,-1,18
 354 549 354 549 404 549 c 0,19,20
 472 549 472 549 511 507 c 128,-1,21
 550 465 550 465 550 390 c 2,22,-1
 550 0 l 1,23,-1
 392 0 l 1,24,-1
 392 344 l 2,25,26
 392 393 392 393 381 412.5 c 128,-1,27
 370 432 370 432 341 432 c 0,28,29
 295 432 295 432 248 371 c 1,30,-1
 248 0 l 1,31,-1
 90 0 l 1,32,-1
 90 531 l 1,14,-1
EndSplineSet
Colour: ff0000
EndChar
StartChar: Eng
Encoding: 330 330 72
Width: 600
Flags: W
LayerCount: 2
Fore
SplineSet
548 693 m 1,0,-1
 548 -27 l 2,1,2
 548 -124 548 -124 495.5 -176 c 128,-1,3
 443 -228 443 -228 348 -228 c 0,4,5
 305 -228 305 -228 273 -216.5 c 128,-1,6
 241 -205 241 -205 212 -183 c 1,7,-1
 272 -91 l 1,8,9
 292 -100 292 -100 303.5 -104 c 128,-1,10
 315 -108 315 -108 332 -108 c 0,11,12
 358 -108 358 -108 371 -92.5 c 128,-1,13
 384 -77 384 -77 384 -41 c 2,14,-1
 384 0 l 1,15,-1
 349 0 l 1,16,-1
 167 557 l 1,17,18
 177 481 177 481 184 410.5 c 128,-1,19
 191 340 191 340 191 261 c 2,20,-1
 191 0 l 1,21,-1
 52 0 l 1,22,-1
 52 693 l 1,23,-1
 257 693 l 1,24,-1
 433 138 l 1,25,26
 409 292 409 292 409 428 c 2,27,-1
 409 693 l 1,28,-1
 548 693 l 1,0,-1
EndSplineSet
Colour: ff0000
EndChar
StartChar: eng
Encoding: 331 331 208
Width: 600
Flags: W
LayerCount: 2
Fore
SplineSet
505 -76 m 128,-1,1
 480 -129 480 -129 435.5 -160.5 c 128,-1,2
 391 -192 391 -192 319 -222 c 1,3,-1
 263 -106 l 1,4,5
 302 -89 302 -89 324.5 -71.5 c 128,-1,6
 347 -54 347 -54 359.5 -25 c 128,-1,7
 372 4 372 4 372 50 c 2,8,-1
 372 344 l 2,9,10
 372 394 372 394 361.5 413 c 128,-1,11
 351 432 351 432 321 432 c 0,12,13
 297 432 297 432 274.5 415.5 c 128,-1,14
 252 399 252 399 228 367 c 1,15,-1
 228 0 l 1,16,-1
 70 0 l 1,17,-1
 70 531 l 1,18,-1
 208 531 l 1,19,-1
 219 470 l 1,20,21
 289 549 289 549 384 549 c 0,22,23
 454 549 454 549 492 507.5 c 128,-1,24
 530 466 530 466 530 390 c 2,25,-1
 530 60 l 2,26,0
 530 -23 530 -23 505 -76 c 128,-1,1
EndSplineSet
Colour: ff0000
EndChar
StartChar: OE
Encoding: 338 338 85
Width: 600
Flags: W
LayerCount: 2
Fore
SplineSet
271 706.5 m 128,-1,1
 292 702 292 702 320 693 c 1,2,-1
 596 693 l 1,3,-1
 580 582 l 1,4,-1
 398 582 l 1,5,6
 431 516 431 516 437 406 c 1,7,-1
 558 406 l 1,8,-1
 558 296 l 1,9,-1
 438 296 l 1,10,11
 432 185 432 185 393 111 c 1,12,-1
 597 111 l 1,13,-1
 597 0 l 1,14,-1
 316 0 l 1,15,16
 288 -9 288 -9 268.5 -13 c 128,-1,17
 249 -17 249 -17 225 -17 c 0,18,19
 113 -17 113 -17 61.5 75.5 c 128,-1,20
 10 168 10 168 10 347 c 0,21,22
 10 711 10 711 225 711 c 0,23,0
 250 711 250 711 271 706.5 c 128,-1,1
179.5 574 m 128,-1,25
 163 549 163 549 156 495 c 128,-1,26
 149 441 149 441 149 347 c 0,27,28
 149 210 149 210 166.5 152 c 128,-1,29
 184 94 184 94 226 94 c 0,30,31
 269 94 269 94 286.5 151.5 c 128,-1,32
 304 209 304 209 304 347 c 0,33,34
 304 443 304 443 297 497 c 128,-1,35
 290 551 290 551 273 575 c 128,-1,36
 256 599 256 599 226 599 c 256,37,24
 196 599 196 599 179.5 574 c 128,-1,25
EndSplineSet
EndChar
StartChar: oe
Encoding: 339 339 221
Width: 600
Flags: W
LayerCount: 2
Fore
SplineSet
567 481 m 128,-1,1
 606 413 606 413 606 276 c 0,2,3
 606 250 606 250 603 226 c 1,4,-1
 369 226 l 1,5,6
 375 154 375 154 398 120.5 c 128,-1,7
 421 87 421 87 462 87 c 0,8,9
 484 87 484 87 503.5 94.5 c 128,-1,10
 523 102 523 102 546 119 c 1,11,-1
 606 40 l 1,12,13
 539 -17 539 -17 454 -17 c 0,14,15
 352 -17 352 -17 302 63 c 1,16,17
 283 24 283 24 253 3.5 c 128,-1,18
 223 -17 223 -17 176 -17 c 0,19,20
 83 -17 83 -17 37.5 56 c 128,-1,21
 -8 129 -8 129 -8 266 c 0,22,23
 -8 398 -8 398 37.5 473.5 c 128,-1,24
 83 549 83 549 176 549 c 0,25,26
 225 549 225 549 255.5 527.5 c 128,-1,27
 286 506 286 506 305 465 c 1,28,29
 350 549 350 549 438 549 c 0,30,0
 528 549 528 549 567 481 c 128,-1,1
387 419 m 128,-1,32
 372 388 372 388 368 312 c 1,33,-1
 487 312 l 1,34,35
 486 387 486 387 475 418.5 c 128,-1,36
 464 450 464 450 432 450 c 0,37,31
 402 450 402 450 387 419 c 128,-1,32
136 394.5 m 128,-1,39
 123 357 123 357 123 266 c 0,40,41
 123 202 123 202 128.5 166 c 128,-1,42
 134 130 134 130 147 114.5 c 128,-1,43
 160 99 160 99 182 99 c 256,44,45
 204 99 204 99 216.5 114.5 c 128,-1,46
 229 130 229 130 235 166 c 128,-1,47
 241 202 241 202 241 267 c 0,48,49
 241 357 241 357 227.5 394.5 c 128,-1,50
 214 432 214 432 182 432 c 0,51,38
 149 432 149 432 136 394.5 c 128,-1,39
EndSplineSet
EndChar
StartChar: uni0162
Encoding: 354 354 102
Width: 600
Flags: W
LayerCount: 2
Fore
SplineSet
347 0 m 1,0,-1
 347 -48 l 1,1,2
 398 -54 398 -54 424 -80 c 128,-1,3
 450 -106 450 -106 450 -147 c 0,4,5
 450 -198 450 -198 409 -230 c 128,-1,6
 368 -262 368 -262 301 -262 c 0,7,8
 267 -262 267 -262 236 -253.5 c 128,-1,9
 205 -245 205 -245 183 -232 c 1,10,-1
 220 -159 l 1,11,12
 254 -176 254 -176 284 -176 c 0,13,14
 336 -176 336 -176 336 -145 c 0,15,16
 336 -126 336 -126 314 -119 c 128,-1,17
 292 -112 292 -112 244 -112 c 1,18,-1
 256 0 l 1,19,-1
 217 0 l 1,20,-1
 217 567 l 1,21,-1
 22 567 l 1,22,-1
 22 693 l 1,23,-1
 583 693 l 1,24,-1
 567 567 l 1,25,-1
 381 567 l 1,26,-1
 381 0 l 1,27,-1
 347 0 l 1,0,-1
EndSplineSet
Colour: ff0000
EndChar
StartChar: Tbar
Encoding: 358 358 100
Width: 600
Flags: W
LayerCount: 2
Fore
SplineSet
381 567 m 1,0,-1
 381 406 l 1,1,-1
 498 406 l 1,2,-1
 498 314 l 1,3,-1
 381 314 l 1,4,-1
 381 0 l 1,5,-1
 217 0 l 1,6,-1
 217 314 l 1,7,-1
 101 314 l 1,8,-1
 101 406 l 1,9,-1
 217 406 l 1,10,-1
 217 567 l 1,11,-1
 22 567 l 1,12,-1
 22 693 l 1,13,-1
 583 693 l 1,14,-1
 567 567 l 1,15,-1
 381 567 l 1,0,-1
EndSplineSet
Colour: ff0000
EndChar
StartChar: Uogonek
Encoding: 370 370 112
Width: 600
Flags: W
LayerCount: 2
Fore
SplineSet
558 693 m 1,0,-1
 558 232 l 2,1,2
 558 144 558 144 515 81 c 128,-1,3
 472 18 472 18 390 -5 c 1,4,5
 334 -27 334 -27 312 -52.5 c 128,-1,6
 290 -78 290 -78 290 -110 c 0,7,8
 290 -134 290 -134 305.5 -146.5 c 128,-1,9
 321 -159 321 -159 348 -159 c 0,10,11
 372 -159 372 -159 402 -152 c 1,12,-1
 390 -245 l 1,13,14
 361 -253 361 -253 331 -253 c 0,15,16
 265 -253 265 -253 222.5 -220.5 c 128,-1,17
 180 -188 180 -188 180 -130 c 0,18,19
 180 -56 180 -56 241 -13 c 1,20,21
 143 2 143 2 92.5 67 c 128,-1,22
 42 132 42 132 42 232 c 2,23,-1
 42 693 l 1,24,-1
 207 693 l 1,25,-1
 207 293 l 2,26,27
 207 226 207 226 214 186 c 128,-1,28
 221 146 221 146 241.5 125.5 c 128,-1,29
 262 105 262 105 300 105 c 256,30,31
 338 105 338 105 358.5 125.5 c 128,-1,32
 379 146 379 146 386 186 c 128,-1,33
 393 226 393 226 393 293 c 2,34,-1
 393 693 l 1,35,-1
 558 693 l 1,0,-1
EndSplineSet
Colour: ff0000
EndChar
StartChar: florin
Encoding: 402 402 1060
Width: 600
Flags: W
LayerCount: 2
Fore
SplineSet
533 725 m 1,1,-1
 489 622 l 1,2,3
 444 642 444 642 402 642 c 0,4,5
 362 642 362 642 347 626.5 c 128,-1,6
 332 611 332 611 332 572 c 2,7,-1
 332 531 l 1,8,-1
 458 531 l 1,9,-1
 440 421 l 1,10,-1
 332 421 l 1,11,-1
 332 63 l 2,12,13
 332 -21 332 -21 306 -76 c 128,-1,14
 280 -131 280 -131 235 -164 c 128,-1,15
 190 -197 190 -197 121 -222 c 1,16,-1
 66 -107 l 1,17,18
 105 -89 105 -89 127.5 -71.5 c 128,-1,19
 150 -54 150 -54 162.5 -25 c 128,-1,20
 175 4 175 4 175 50 c 2,21,-1
 175 421 l 1,22,-1
 93 421 l 1,23,-1
 93 531 l 1,24,-1
 175 531 l 1,25,-1
 175 578 l 2,26,27
 175 658 175 658 227.5 708.5 c 128,-1,28
 280 759 280 759 378 759 c 0,29,0
 460 759 460 759 533 725 c 1,1,-1
EndSplineSet
Colour: ff0000
EndChar
StartChar: uni0237
Encoding: 567 567 191
Width: 600
Flags: W
LayerCount: 2
Fore
SplineSet
472 154 m 2,0,1
 472 41 472 41 430 -33.5 c 128,-1,2
 388 -108 388 -108 305.5 -152.5 c 128,-1,3
 223 -197 223 -197 94 -222 c 1,4,-1
 70 -101 l 1,5,6
 155 -82 155 -82 207.5 -54 c 128,-1,7
 260 -26 260 -26 287 21.5 c 128,-1,8
 314 69 314 69 314 144 c 2,9,-1
 314 423 l 1,10,-1
 124 423 l 1,11,-1
 124 531 l 1,12,-1
 472 531 l 1,13,-1
 472 154 l 2,0,1
EndSplineSet
EndChar
StartChar: uni02B9
Encoding: 697 697 1427
Width: 600
Flags: W
LayerCount: 2
Fore
SplineSet
270 693 m 1,0,-1
 412 693 l 1,1,-1
 294 414 l 1,2,-1
 189 414 l 1,3,-1
 270 693 l 1,0,-1
EndSplineSet
Colour: ff0000
EndChar
StartChar: breve
Encoding: 728 728 1429
Width: 600
Flags: W
LayerCount: 2
Fore
SplineSet
178.5 662.5 m 128,-1,1
 135 713 135 713 128 786 c 1,2,-1
 215 801 l 1,3,4
 224 763 224 763 245.5 741.5 c 128,-1,5
 267 720 267 720 300 720 c 256,6,7
 333 720 333 720 354.5 741.5 c 128,-1,8
 376 763 376 763 385 801 c 1,9,-1
 472 786 l 1,10,11
 465 714 465 714 421 663 c 128,-1,12
 377 612 377 612 300 612 c 0,13,0
 222 612 222 612 178.5 662.5 c 128,-1,1
EndSplineSet
Colour: ff0000
EndChar
StartChar: dotaccent
Encoding: 729 729 1434
Width: 600
Flags: W
LayerCount: 2
Fore
SplineSet
367 783.5 m 128,-1,1
 393 758 393 758 393 720 c 0,2,3
 393 681 393 681 367 656 c 128,-1,4
 341 631 341 631 300 631 c 256,5,6
 259 631 259 631 232.5 656.5 c 128,-1,7
 206 682 206 682 206 720 c 256,8,9
 206 758 206 758 232.5 783.5 c 128,-1,10
 259 809 259 809 300 809 c 256,11,0
 341 809 341 809 367 783.5 c 128,-1,1
EndSplineSet
Colour: ff0000
EndChar
StartChar: hungarumlaut
Encoding: 733 733 1436
Width: 600
Flags: W
LayerCount: 2
Fore
SplineSet
214 857 m 1,0,-1
 321 808 l 1,1,-1
 197 625 l 1,2,-1
 115 661 l 1,3,-1
 214 857 l 1,0,-1
378 857 m 1,4,-1
 484 806 l 1,5,-1
 359 624 l 1,6,-1
 278 663 l 1,7,-1
 378 857 l 1,4,-1
EndSplineSet
Colour: ff0000
EndChar
StartChar: gravecomb
Encoding: 768 768 1417
Width: 0
GlyphClass: 4
Flags: W
LayerCount: 2
Fore
SplineSet
-158 703 m 1,0,-1
 -201 622 l 1,1,-1
 -437 716 l 1,2,-1
 -376 835 l 1,3,-1
 -158 703 l 1,0,-1
EndSplineSet
EndChar
StartChar: acutecomb
Encoding: 769 769 1406
Width: 0
GlyphClass: 4
Flags: W
LayerCount: 2
Fore
SplineSet
-162 716 m 1,0,-1
 -399 622 l 1,1,-1
 -442 703 l 1,2,-1
 -224 835 l 1,3,-1
 -162 716 l 1,0,-1
EndSplineSet
EndChar
StartChar: uni0302
Encoding: 770 770 1410
Width: 0
GlyphClass: 4
Flags: W
LayerCount: 2
Fore
SplineSet
-110 651 m 1,0,-1
 -166 586 l 1,1,-1
 -299 671 l 1,2,-1
 -432 586 l 1,3,-1
 -489 651 l 1,4,-1
 -347 781 l 1,5,-1
 -251 781 l 1,6,-1
 -110 651 l 1,0,-1
EndSplineSet
EndChar
StartChar: uni0307
Encoding: 775 775 1416
Width: 0
GlyphClass: 4
Flags: W
LayerCount: 2
Fore
SplineSet
-232 746.5 m 128,-1,1
 -206 721 -206 721 -206 682 c 0,2,3
 -206 644 -206 644 -232 618.5 c 128,-1,4
 -258 593 -258 593 -299 593 c 256,5,6
 -340 593 -340 593 -366.5 618.5 c 128,-1,7
 -393 644 -393 644 -393 682 c 0,8,9
 -393 721 -393 721 -366.5 746.5 c 128,-1,10
 -340 772 -340 772 -299 772 c 256,11,0
 -258 772 -258 772 -232 746.5 c 128,-1,1
EndSplineSet
Colour: ff0000
EndChar
StartChar: uni030C
Encoding: 780 780 1408
Width: 0
GlyphClass: 4
Flags: W
LayerCount: 2
Fore
SplineSet
-110 719 m 1,0,-1
 -251 589 l 1,1,-1
 -347 589 l 1,2,-1
 -489 719 l 1,3,-1
 -432 784 l 1,4,-1
 -299 699 l 1,5,-1
 -166 784 l 1,6,-1
 -110 719 l 1,0,-1
EndSplineSet
Colour: ff0000
EndChar
StartChar: uni0314
Encoding: 788 788 1413
Width: 0
GlyphClass: 4
Flags: W
LayerCount: 2
Fore
SplineSet
-360 589 m 128,-1,1
 -382 611 -382 611 -382 644 c 0,2,3
 -382 678 -382 678 -359 726 c 2,4,-1
 -310 824 l 1,5,-1
 -230 824 l 1,6,-1
 -257 709 l 1,7,8
 -225 682 -225 682 -225 644 c 0,9,10
 -225 611 -225 611 -247.5 589 c 128,-1,11
 -270 567 -270 567 -304 567 c 256,12,0
 -338 567 -338 567 -360 589 c 128,-1,1
EndSplineSet
Colour: ff0000
EndChar
StartChar: uni0326
Encoding: 806 806 1412
Width: 0
GlyphClass: 4
Flags: W
LayerCount: 2
Fore
SplineSet
-243 -87 m 128,-1,1
 -221 -109 -221 -109 -221 -143 c 0,2,3
 -221 -179 -221 -179 -244 -225 c 2,4,-1
 -293 -322 l 1,5,-1
 -373 -322 l 1,6,-1
 -346 -207 l 1,7,8
 -378 -180 -378 -180 -378 -143 c 0,9,10
 -378 -110 -378 -110 -355.5 -87.5 c 128,-1,11
 -333 -65 -333 -65 -299 -65 c 256,12,0
 -265 -65 -265 -65 -243 -87 c 128,-1,1
EndSplineSet
Colour: ff0000
EndChar
StartChar: uni0342
Encoding: 834 834 1456
Width: 0
GlyphClass: 4
Flags: W
LayerCount: 2
Fore
SplineSet
-282 642 m 128,-1,1
 -298 649 -298 649 -317 662 c 0,2,3
 -342 680 -342 680 -358 680 c 0,4,5
 -376 680 -376 680 -387 670 c 128,-1,6
 -398 660 -398 660 -411 636 c 1,7,-1
 -490 674 l 1,8,9
 -469 727 -469 727 -436.5 759.5 c 128,-1,10
 -404 792 -404 792 -361 792 c 0,11,12
 -338 792 -338 792 -321.5 785 c 128,-1,13
 -305 778 -305 778 -286 765 c 0,14,15
 -273 756 -273 756 -264 751.5 c 128,-1,16
 -255 747 -255 747 -245 747 c 0,17,18
 -229 747 -229 747 -218 757 c 128,-1,19
 -207 767 -207 767 -193 790 c 1,20,-1
 -114 752 l 1,21,22
 -135 699 -135 699 -168 667 c 128,-1,23
 -201 635 -201 635 -244 635 c 0,24,0
 -266 635 -266 635 -282 642 c 128,-1,1
EndSplineSet
Colour: ff0000
EndChar
StartChar: uni0370
Encoding: 880 880 600
Width: 600
Flags: W
LayerCount: 2
Fore
SplineSet
259 294 m 1,0,-1
 259 0 l 1,1,-1
 96 0 l 1,2,-1
 96 693 l 1,3,-1
 259 693 l 1,4,-1
 259 426 l 1,5,-1
 505 426 l 1,6,-1
 505 294 l 1,7,-1
 259 294 l 1,0,-1
EndSplineSet
Colour: ff0000
EndChar
StartChar: uni0371
Encoding: 881 881 751
Width: 600
Flags: W
LayerCount: 2
Fore
SplineSet
533 210 m 1,0,-1
 269 210 l 1,1,-1
 269 0 l 1,2,-1
 111 0 l 1,3,-1
 111 382 l 2,4,5
 111 457 111 457 89 525 c 1,6,-1
 235 545 l 1,7,8
 251 512 251 512 260 467 c 128,-1,9
 269 422 269 422 269 345 c 2,10,-1
 269 331 l 1,11,-1
 533 331 l 1,12,-1
 533 210 l 1,0,-1
EndSplineSet
Colour: ff0000
EndChar
StartChar: uni0372
Encoding: 882 882 601
Width: 600
Flags: W
LayerCount: 2
Fore
SplineSet
584 693 m 1,0,-1
 584 400 l 1,1,-1
 463 400 l 1,2,-1
 463 569 l 1,3,-1
 382 569 l 1,4,-1
 382 0 l 1,5,-1
 218 0 l 1,6,-1
 218 569 l 1,7,-1
 138 569 l 1,8,-1
 138 400 l 1,9,-1
 17 400 l 1,10,-1
 17 693 l 1,11,-1
 584 693 l 1,0,-1
EndSplineSet
Colour: ff0000
EndChar
StartChar: uni0373
Encoding: 883 883 752
Width: 600
Flags: W
LayerCount: 2
Fore
SplineSet
569 413 m 1,0,-1
 377 413 l 1,1,-1
 377 -205 l 1,2,-1
 219 -222 l 1,3,-1
 219 413 l 1,4,-1
 137 413 l 2,5,6
 73 413 73 413 35 402 c 1,7,-1
 11 513 l 1,8,9
 54 531 54 531 132 531 c 2,10,-1
 569 531 l 1,11,-1
 569 413 l 1,0,-1
EndSplineSet
Colour: ff0000
EndChar
StartChar: uni0375
Encoding: 885 885 1405
Width: 600
Flags: W
LayerCount: 2
Fore
SplineSet
331 -133 m 1,0,-1
 189 -133 l 1,1,-1
 307 146 l 1,2,-1
 412 146 l 1,3,-1
 331 -133 l 1,0,-1
EndSplineSet
Colour: ff0000
EndChar
StartChar: uni0377
Encoding: 887 887 753
Width: 600
Flags: W
LayerCount: 2
Fore
SplineSet
535 127.5 m 128,-1,1
 544 110 544 110 569 98 c 1,2,-1
 523 -17 l 1,3,4
 453 -2 453 -2 416.5 36.5 c 128,-1,5
 380 75 380 75 380 144 c 0,6,7
 380 180 380 180 391.5 265 c 128,-1,8
 403 350 403 350 413 396 c 1,9,-1
 227 0 l 1,10,-1
 66 0 l 1,11,-1
 66 531 l 1,12,-1
 215 531 l 1,13,-1
 215 360 l 2,14,15
 215 239 215 239 188 137 c 1,16,-1
 368 531 l 1,17,-1
 526 531 l 1,18,-1
 526 179 l 2,19,0
 526 145 526 145 535 127.5 c 128,-1,1
EndSplineSet
Colour: ff0000
EndChar
StartChar: uni037B
Encoding: 891 891 754
Width: 600
Flags: W
LayerCount: 2
Fore
SplineSet
148 2 m 128,-1,1
 98 21 98 21 60 53 c 1,2,-1
 130 153 l 1,3,4
 162 131 162 131 190 119.5 c 128,-1,5
 218 108 218 108 248 108 c 0,6,7
 304 108 304 108 335 143.5 c 128,-1,8
 366 179 366 179 366 262 c 0,9,10
 366 351 366 351 341 389 c 128,-1,11
 316 427 316 427 258 427 c 0,12,13
 224 427 224 427 193.5 417 c 128,-1,14
 163 407 163 407 128 387 c 1,15,-1
 60 482 l 1,16,17
 108 516 108 516 156.5 532.5 c 128,-1,18
 205 549 205 549 268 549 c 0,19,20
 397 549 397 549 464 473 c 128,-1,21
 531 397 531 397 531 262 c 0,22,23
 531 179 531 179 498 116 c 128,-1,24
 465 53 465 53 403.5 18 c 128,-1,25
 342 -17 342 -17 257 -17 c 0,26,0
 198 -17 198 -17 148 2 c 128,-1,1
EndSplineSet
Colour: ff0000
EndChar
StartChar: tonos
Encoding: 900 900 1458
Width: 600
Flags: W
LayerCount: 2
Fore
SplineSet
396 815 m 1,0,-1
 308 587 l 1,1,-1
 205 604 l 1,2,-1
 243 847 l 1,3,-1
 396 815 l 1,0,-1
EndSplineSet
Colour: ff0000
EndChar
StartChar: dieresistonos
Encoding: 901 901 1460
Width: 600
Flags: W
LayerCount: 2
Fore
SplineSet
411 930 m 1,0,-1
 340 740 l 1,1,-1
 252 754 l 1,2,-1
 281 954 l 1,3,-1
 411 930 l 1,0,-1
225.5 736 m 128,-1,5
 249 713 249 713 249 680 c 256,6,7
 249 647 249 647 225.5 624 c 128,-1,8
 202 601 202 601 169 601 c 0,9,10
 134 601 134 601 111 624 c 128,-1,11
 88 647 88 647 88 680 c 0,12,13
 88 714 88 714 111 736.5 c 128,-1,14
 134 759 134 759 169 759 c 0,15,4
 202 759 202 759 225.5 736 c 128,-1,5
489 736.5 m 128,-1,17
 512 714 512 714 512 680 c 0,18,19
 512 647 512 647 488.5 624 c 128,-1,20
 465 601 465 601 431 601 c 256,21,22
 397 601 397 601 374 624 c 128,-1,23
 351 647 351 647 351 680 c 0,24,25
 351 714 351 714 374 736.5 c 128,-1,26
 397 759 397 759 431 759 c 0,27,16
 466 759 466 759 489 736.5 c 128,-1,17
EndSplineSet
Colour: ff0000
EndChar
StartChar: Alpha
Encoding: 913 913 567
Width: 600
Flags: W
LayerCount: 2
Fore
SplineSet
197 150 m 1,0,-1
 161 0 l 1,1,-1
 -11 0 l 1,2,-1
 201 693 l 1,3,-1
 400 693 l 1,4,-1
 612 0 l 1,5,-1
 436 0 l 1,6,-1
 400 150 l 1,7,-1
 197 150 l 1,0,-1
373 268 m 1,8,-1
 298 575 l 1,9,-1
 223 268 l 1,10,-1
 373 268 l 1,8,-1
EndSplineSet
Colour: ff0000
EndChar
StartChar: uni0394
Encoding: 916 916 570
Width: 600
Flags: W
LayerCount: 2
Fore
SplineSet
612 0 m 1,0,-1
 -11 0 l 1,1,-1
 201 693 l 1,2,-1
 400 693 l 1,3,-1
 612 0 l 1,0,-1
192 133 m 1,4,-1
 404 133 l 1,5,-1
 298 575 l 1,6,-1
 192 133 l 1,4,-1
EndSplineSet
Colour: ff0000
EndChar
StartChar: Theta
Encoding: 920 920 574
Width: 600
Flags: W
LayerCount: 2
Fore
SplineSet
505.5 80.5 m 128,-1,1
 434 -17 434 -17 300 -17 c 0,2,3
 165 -17 165 -17 94 79.5 c 128,-1,4
 23 176 23 176 23 347 c 0,5,6
 23 516 23 516 94.5 613.5 c 128,-1,7
 166 711 166 711 300 711 c 0,8,9
 435 711 435 711 506 614.5 c 128,-1,10
 577 518 577 518 577 347 c 0,11,0
 577 178 577 178 505.5 80.5 c 128,-1,1
387 533 m 128,-1,13
 359 591 359 591 300 591 c 256,14,15
 241 591 241 591 213 533.5 c 128,-1,16
 185 476 185 476 185 347 c 0,17,18
 185 219 185 219 213 161 c 128,-1,19
 241 103 241 103 300 103 c 0,20,21
 360 103 360 103 387.5 160.5 c 128,-1,22
 415 218 415 218 415 347 c 0,23,12
 415 475 415 475 387 533 c 128,-1,13
224 307 m 1,24,-1
 224 398 l 1,25,-1
 375 398 l 1,26,-1
 375 307 l 1,27,-1
 224 307 l 1,24,-1
EndSplineSet
Colour: ff0000
EndChar
StartChar: Lambda
Encoding: 923 923 577
Width: 600
Flags: W
LayerCount: 2
Fore
SplineSet
607 0 m 1,0,-1
 431 0 l 1,1,-1
 299 571 l 1,2,-1
 166 0 l 1,3,-1
 -7 0 l 1,4,-1
 201 693 l 1,5,-1
 400 693 l 1,6,-1
 607 0 l 1,0,-1
EndSplineSet
Colour: ff0000
EndChar
StartChar: Xi
Encoding: 926 926 580
Width: 600
Flags: W
LayerCount: 2
Fore
SplineSet
528 563 m 1,0,-1
 53 563 l 1,1,-1
 53 693 l 1,2,-1
 547 693 l 1,3,-1
 528 563 l 1,0,-1
484 291 m 1,4,-1
 112 291 l 1,5,-1
 112 413 l 1,6,-1
 484 413 l 1,7,-1
 484 291 l 1,4,-1
547 0 m 1,8,-1
 53 0 l 1,9,-1
 53 135 l 1,10,-1
 547 135 l 1,11,-1
 547 0 l 1,8,-1
EndSplineSet
Colour: ff0000
EndChar
StartChar: Sigma
Encoding: 931 931 584
Width: 600
Flags: W
LayerCount: 2
Fore
SplineSet
234 122 m 1,0,-1
 546 122 l 1,1,-1
 546 0 l 1,2,-1
 55 0 l 1,3,-1
 55 119 l 1,4,-1
 267 341 l 1,5,-1
 55 574 l 1,6,-1
 55 693 l 1,7,-1
 546 693 l 1,8,-1
 546 574 l 1,9,-1
 236 574 l 1,10,-1
 423 376 l 1,11,-1
 423 311 l 1,12,-1
 234 122 l 1,0,-1
EndSplineSet
Colour: ff0000
EndChar
StartChar: Phi
Encoding: 934 934 587
Width: 600
Flags: W
LayerCount: 2
Fore
SplineSet
357 614 m 1,0,1
 477 609 477 609 536.5 546 c 128,-1,2
 596 483 596 483 596 350 c 256,3,4
 596 217 596 217 536 150.5 c 128,-1,5
 476 84 476 84 357 80 c 1,6,-1
 357 0 l 1,7,-1
 243 0 l 1,8,-1
 243 80 l 1,9,10
 121 84 121 84 62.5 150 c 128,-1,11
 4 216 4 216 4 350 c 256,12,13
 4 484 4 484 62 546.5 c 128,-1,14
 120 609 120 609 243 614 c 1,15,-1
 243 693 l 1,16,-1
 357 693 l 1,17,-1
 357 614 l 1,0,1
173 482.5 m 128,-1,19
 150 440 150 440 150 350 c 0,20,21
 150 258 150 258 172 214.5 c 128,-1,22
 194 171 194 171 253 170 c 1,23,-1
 253 526 l 1,24,18
 196 525 196 525 173 482.5 c 128,-1,19
347 170 m 1,25,26
 406 171 406 171 428 215 c 128,-1,27
 450 259 450 259 450 350 c 0,28,29
 450 440 450 440 427 482.5 c 128,-1,30
 404 525 404 525 347 526 c 1,31,-1
 347 170 l 1,25,26
EndSplineSet
Colour: ff0000
EndChar
StartChar: Psi
Encoding: 936 936 589
Width: 600
Flags: W
LayerCount: 2
Fore
SplineSet
228 183 m 1,0,1
 11 213 11 213 11 423 c 2,2,-1
 11 693 l 1,3,-1
 150 693 l 1,4,-1
 150 419 l 2,5,6
 150 357 150 357 167.5 327.5 c 128,-1,7
 185 298 185 298 239 288 c 1,8,-1
 239 693 l 1,9,-1
 363 693 l 1,10,-1
 363 289 l 1,11,12
 414 300 414 300 432 329 c 128,-1,13
 450 358 450 358 450 419 c 2,14,-1
 450 693 l 1,15,-1
 589 693 l 1,16,-1
 589 423 l 2,17,18
 589 323 589 323 535 261.5 c 128,-1,19
 481 200 481 200 372 184 c 1,20,-1
 372 0 l 1,21,-1
 228 0 l 1,22,-1
 228 183 l 1,0,1
EndSplineSet
Colour: ff0000
EndChar
StartChar: uni03A9
Encoding: 937 937 590
Width: 600
Flags: W
LayerCount: 2
Fore
SplineSet
217 538 m 128,-1,1
 191 486 191 486 191 377 c 0,2,3
 191 263 191 263 210 202 c 128,-1,4
 229 141 229 141 273 115 c 1,5,-1
 273 0 l 1,6,-1
 34 0 l 1,7,-1
 34 117 l 1,8,-1
 150 117 l 1,9,10
 23 183 23 183 23 377 c 0,11,12
 23 474 23 474 55.5 549.5 c 128,-1,13
 88 625 88 625 150.5 668 c 128,-1,14
 213 711 213 711 300 711 c 256,15,16
 387 711 387 711 449.5 668 c 128,-1,17
 512 625 512 625 544.5 549.5 c 128,-1,18
 577 474 577 474 577 377 c 0,19,20
 577 185 577 185 449 117 c 1,21,-1
 566 117 l 1,22,-1
 566 0 l 1,23,-1
 327 0 l 1,24,-1
 327 115 l 1,25,26
 372 140 372 140 390.5 201 c 128,-1,27
 409 262 409 262 409 377 c 0,28,29
 409 486 409 486 383 538 c 128,-1,30
 357 590 357 590 300 590 c 256,31,0
 243 590 243 590 217 538 c 128,-1,1
EndSplineSet
Colour: ff0000
EndChar
StartChar: beta
Encoding: 946 946 716
Width: 600
Flags: W
LayerCount: 2
Fore
SplineSet
511.5 354.5 m 128,-1,1
 566 311 566 311 566 210 c 0,2,3
 566 143 566 143 539 90.5 c 128,-1,4
 512 38 512 38 461.5 9 c 128,-1,5
 411 -20 411 -20 343 -20 c 0,6,7
 276 -20 276 -20 212 22 c 1,8,-1
 212 -200 l 1,9,-1
 53 -227 l 1,10,-1
 53 549 l 2,11,12
 53 616 53 616 82.5 664.5 c 128,-1,13
 112 713 112 713 164.5 738.5 c 128,-1,14
 217 764 217 764 284 764 c 0,15,16
 354 764 354 764 406 738 c 128,-1,17
 458 712 458 712 485.5 667 c 128,-1,18
 513 622 513 622 513 567 c 0,19,20
 513 503 513 503 480.5 463 c 128,-1,21
 448 423 448 423 380 406 c 1,22,0
 457 398 457 398 511.5 354.5 c 128,-1,1
375 128 m 128,-1,24
 404 158 404 158 404 220 c 0,25,26
 404 278 404 278 371.5 308.5 c 128,-1,27
 339 339 339 339 287 339 c 2,28,-1
 254 339 l 1,29,-1
 264 451 l 1,30,-1
 284 451 l 2,31,32
 316 451 316 451 334.5 477.5 c 128,-1,33
 353 504 353 504 353 552 c 0,34,35
 353 599 353 599 335 623 c 128,-1,36
 317 647 317 647 284 647 c 0,37,38
 250 647 250 647 231 624.5 c 128,-1,39
 212 602 212 602 212 558 c 2,40,-1
 212 123 l 1,41,42
 253 98 253 98 299 98 c 0,43,23
 346 98 346 98 375 128 c 128,-1,24
EndSplineSet
Colour: ff0000
EndChar
StartChar: zeta
Encoding: 950 950 720
Width: 600
Flags: W
LayerCount: 2
Fore
SplineSet
565 647 m 1,0,1
 405 532 405 532 332 438 c 128,-1,2
 259 344 259 344 259 259 c 0,3,4
 259 220 259 220 270.5 196.5 c 128,-1,5
 282 173 282 173 309 156 c 128,-1,6
 336 139 336 139 389 119 c 0,7,8
 457 93 457 93 491.5 74 c 128,-1,9
 526 55 526 55 541.5 31.5 c 128,-1,10
 557 8 557 8 557 -28 c 0,11,12
 557 -91 557 -91 512.5 -138.5 c 128,-1,13
 468 -186 468 -186 375 -226 c 1,14,-1
 317 -131 l 1,15,16
 358 -109 358 -109 376.5 -91 c 128,-1,17
 395 -73 395 -73 395 -47 c 0,18,19
 395 -32 395 -32 381.5 -22 c 128,-1,20
 368 -12 368 -12 327 3 c 0,21,22
 240 36 240 36 191.5 65 c 128,-1,23
 143 94 143 94 118.5 138.5 c 128,-1,24
 94 183 94 183 94 253 c 0,25,26
 94 357 94 357 169.5 451 c 128,-1,27
 245 545 245 545 415 641 c 1,28,29
 396 632 396 632 353.5 629.5 c 128,-1,30
 311 627 311 627 233 627 c 2,31,-1
 128 627 l 1,32,-1
 145 742 l 1,33,-1
 548 742 l 1,34,-1
 565 647 l 1,0,1
EndSplineSet
Colour: ff0000
EndChar
StartChar: theta
Encoding: 952 952 722
Width: 600
Flags: W
LayerCount: 2
Fore
SplineSet
491 660.5 m 128,-1,1
 558 562 558 562 558 373 c 256,2,3
 558 184 558 184 490.5 83.5 c 128,-1,4
 423 -17 423 -17 300 -17 c 256,5,6
 177 -17 177 -17 109.5 82.5 c 128,-1,7
 42 182 42 182 42 372 c 0,8,9
 42 559 42 559 109.5 659 c 128,-1,10
 177 759 177 759 300 759 c 0,11,0
 424 759 424 759 491 660.5 c 128,-1,1
223.5 594.5 m 128,-1,13
 198 544 198 544 195 417 c 1,14,-1
 405 417 l 1,15,16
 403 504 403 504 390.5 553.5 c 128,-1,17
 378 603 378 603 356 624 c 128,-1,18
 334 645 334 645 300 645 c 0,19,12
 249 645 249 645 223.5 594.5 c 128,-1,13
194 324 m 1,20,21
 198 197 198 197 223.5 147 c 128,-1,22
 249 97 249 97 300 97 c 0,23,24
 334 97 334 97 356 117.5 c 128,-1,25
 378 138 378 138 390.5 188 c 128,-1,26
 403 238 403 238 405 324 c 1,27,-1
 194 324 l 1,20,21
EndSplineSet
Colour: ff0000
EndChar
StartChar: iota
Encoding: 953 953 723
Width: 600
Flags: W
LayerCount: 2
Fore
SplineSet
38 416 m 1,0,-1
 51 531 l 1,1,-1
 359 531 l 1,2,-1
 359 166 l 2,3,4
 359 108 359 108 428 108 c 0,5,6
 464 108 464 108 503 124 c 1,7,-1
 541 18 l 1,8,9
 475 -17 475 -17 387 -17 c 0,10,11
 301 -17 301 -17 251 31 c 128,-1,12
 201 79 201 79 201 160 c 2,13,-1
 201 416 l 1,14,-1
 38 416 l 1,0,-1
EndSplineSet
Colour: ff0000
EndChar
StartChar: kappa
Encoding: 954 954 724
Width: 600
Flags: W
LayerCount: 2
Fore
SplineSet
560 489 m 1,0,-1
 397 287 l 1,1,-1
 507 154 l 2,2,3
 525 132 525 132 542 122 c 128,-1,4
 559 112 559 112 582 107 c 1,5,-1
 529 -18 l 1,6,7
 475 -13 475 -13 441.5 11 c 128,-1,8
 408 35 408 35 370 93 c 1,9,-1
 236 278 l 1,10,-1
 431 547 l 1,11,-1
 560 489 l 1,0,-1
224 442.5 m 128,-1,13
 232 391 232 391 232 337 c 2,14,-1
 232 0 l 1,15,-1
 74 0 l 1,16,-1
 74 348 l 2,17,18
 74 451 74 451 52 531 c 1,19,-1
 204 531 l 1,20,12
 216 494 216 494 224 442.5 c 128,-1,13
EndSplineSet
Colour: ff0000
EndChar
StartChar: nu
Encoding: 957 957 727
Width: 600
Flags: W
LayerCount: 2
Fore
SplineSet
121 308.5 m 128,-1,1
 72 444 72 444 15 498 c 1,2,-1
 160 548 l 1,3,4
 206 492 206 492 242.5 382 c 128,-1,5
 279 272 279 272 300 119 c 1,6,-1
 423 549 l 1,7,-1
 575 514 l 1,8,-1
 383 0 l 1,9,-1
 204 0 l 1,10,0
 170 173 170 173 121 308.5 c 128,-1,1
EndSplineSet
Colour: ff0000
EndChar
StartChar: xi
Encoding: 958 958 728
Width: 600
Flags: W
LayerCount: 2
Fore
SplineSet
572 697 m 1,1,-1
 504 613 l 1,2,3
 448 648 448 648 378 648 c 0,4,5
 331 648 331 648 302 628 c 128,-1,6
 273 608 273 608 273 571 c 0,7,8
 273 526 273 526 301.5 507 c 128,-1,9
 330 488 330 488 388 488 c 2,10,-1
 485 488 l 1,11,-1
 471 384 l 1,12,-1
 384 384 l 2,13,14
 314 384 314 384 276 355.5 c 128,-1,15
 238 327 238 327 238 273 c 0,16,17
 238 233 238 233 253 209.5 c 128,-1,18
 268 186 268 186 302.5 168.5 c 128,-1,19
 337 151 337 151 416 121 c 0,20,21
 468 102 468 102 498.5 83.5 c 128,-1,22
 529 65 529 65 545 38.5 c 128,-1,23
 561 12 561 12 561 -29 c 0,24,25
 561 -91 561 -91 516.5 -138.5 c 128,-1,26
 472 -186 472 -186 378 -226 c 1,27,-1
 321 -131 l 1,28,29
 397 -91 397 -91 397 -41 c 0,30,31
 397 -23 397 -23 384.5 -12.5 c 128,-1,32
 372 -2 372 -2 336 12 c 0,33,34
 232 53 232 53 181.5 81 c 128,-1,35
 131 109 131 109 103 151 c 128,-1,36
 75 193 75 193 75 262 c 0,37,38
 75 340 75 340 123.5 385 c 128,-1,39
 172 430 172 430 247 444 c 1,40,41
 185 465 185 465 149.5 499.5 c 128,-1,42
 114 534 114 534 114 590 c 0,43,44
 114 640 114 640 147 678.5 c 128,-1,45
 180 717 180 717 236.5 738 c 128,-1,46
 293 759 293 759 359 759 c 0,47,0
 484 759 484 759 572 697 c 1,1,-1
EndSplineSet
Colour: ff0000
EndChar
StartChar: pi
Encoding: 960 960 730
Width: 600
Flags: W
LayerCount: 2
Fore
SplineSet
507 417 m 1,0,-1
 507 179 l 2,1,2
 507 147 507 147 517 128.5 c 128,-1,3
 527 110 527 110 551 99 c 1,4,-1
 505 -17 l 1,5,6
 354 9 354 9 354 158 c 2,7,-1
 354 417 l 1,8,-1
 247 417 l 1,9,-1
 247 0 l 1,10,-1
 96 0 l 1,11,-1
 96 415 l 1,12,13
 59 412 59 412 30 401 c 1,14,-1
 4 509 l 1,15,16
 59 531 59 531 115 531 c 2,17,-1
 577 531 l 1,18,-1
 577 417 l 1,19,-1
 507 417 l 1,0,-1
EndSplineSet
Colour: ff0000
EndChar
StartChar: uni03C2
Encoding: 962 962 732
Width: 600
Flags: W
LayerCount: 2
Fore
SplineSet
552 483 m 1,1,-1
 484 389 l 1,2,3
 433 427 433 427 369 427 c 0,4,5
 311 427 311 427 277 390.5 c 128,-1,6
 243 354 243 354 243 279 c 0,7,8
 243 234 243 234 256 207.5 c 128,-1,9
 269 181 269 181 298 162 c 128,-1,10
 327 143 327 143 384 121 c 0,11,12
 437 101 437 101 468.5 82.5 c 128,-1,13
 500 64 500 64 517 37.5 c 128,-1,14
 534 11 534 11 534 -29 c 0,15,16
 534 -91 534 -91 489.5 -138.5 c 128,-1,17
 445 -186 445 -186 352 -226 c 1,18,-1
 293 -129 l 1,19,20
 332 -109 332 -109 351.5 -91 c 128,-1,21
 371 -73 371 -73 371 -48 c 0,22,23
 371 -26 371 -26 352.5 -13 c 128,-1,24
 334 0 334 0 277 22 c 0,25,26
 211 47 211 47 169 76.5 c 128,-1,27
 127 106 127 106 102.5 155 c 128,-1,28
 78 204 78 204 78 279 c 0,29,30
 78 355 78 355 113 416.5 c 128,-1,31
 148 478 148 478 211.5 513.5 c 128,-1,32
 275 549 275 549 357 549 c 0,33,0
 470 549 470 549 552 483 c 1,1,-1
EndSplineSet
Colour: ff0000
EndChar
StartChar: sigma
Encoding: 963 963 733
Width: 600
Flags: W
LayerCount: 2
Fore
SplineSet
578 426 m 1,0,-1
 479 434 l 1,1,2
 558 371 558 371 558 254 c 0,3,4
 558 129 558 129 489.5 56 c 128,-1,5
 421 -17 421 -17 300 -17 c 0,6,7
 178 -17 178 -17 110 56.5 c 128,-1,8
 42 130 42 130 42 263 c 0,9,10
 42 391 42 391 111 465.5 c 128,-1,11
 180 540 180 540 307 540 c 0,12,13
 406 540 406 540 578 529 c 1,14,-1
 578 426 l 1,0,-1
371 138 m 128,-1,16
 394 177 394 177 394 263 c 0,17,18
 394 335 394 335 381.5 375 c 128,-1,19
 369 415 369 415 346 436 c 1,20,21
 296 435 296 435 265.5 420.5 c 128,-1,22
 235 406 235 406 220 368.5 c 128,-1,23
 205 331 205 331 205 263 c 0,24,25
 205 177 205 177 228 138 c 128,-1,26
 251 99 251 99 300 99 c 0,27,15
 348 99 348 99 371 138 c 128,-1,16
EndSplineSet
Colour: ff0000
EndChar
StartChar: tau
Encoding: 964 964 734
Width: 600
Flags: W
LayerCount: 2
Fore
SplineSet
353 415 m 1,0,-1
 353 166 l 2,1,2
 353 108 353 108 420 108 c 0,3,4
 458 108 458 108 497 124 c 1,5,-1
 534 18 l 1,6,7
 470 -17 470 -17 381 -17 c 0,8,9
 294 -17 294 -17 244.5 31 c 128,-1,10
 195 79 195 79 195 160 c 2,11,-1
 195 415 l 1,12,-1
 148 415 l 2,13,14
 84 415 84 415 45 404 c 1,15,-1
 21 513 l 1,16,17
 65 531 65 531 143 531 c 2,18,-1
 536 531 l 1,19,-1
 536 415 l 1,20,-1
 353 415 l 1,0,-1
EndSplineSet
Colour: ff0000
EndChar
StartChar: upsilon
Encoding: 965 965 735
Width: 600
Flags: W
LayerCount: 2
Fore
SplineSet
551 256 m 0,1,2
 551 165 551 165 515 103.5 c 128,-1,3
 479 42 479 42 418 12.5 c 128,-1,4
 357 -17 357 -17 282 -17 c 0,5,6
 184 -17 184 -17 124.5 34 c 128,-1,7
 65 85 65 85 65 180 c 2,8,-1
 65 531 l 1,9,-1
 223 531 l 1,10,-1
 223 189 l 2,11,12
 223 141 223 141 240.5 120 c 128,-1,13
 258 99 258 99 293 99 c 0,14,15
 339 99 339 99 366 139.5 c 128,-1,16
 393 180 393 180 393 265 c 0,17,18
 393 389 393 389 366 531 c 1,19,-1
 522 531 l 1,20,0
 551 388 551 388 551 256 c 0,1,2
EndSplineSet
Colour: ff0000
EndChar
StartChar: psi
Encoding: 968 968 738
Width: 600
Flags: W
LayerCount: 2
Fore
SplineSet
361 91 m 1,0,1
 397 99 397 99 415 116.5 c 128,-1,2
 433 134 433 134 440 167 c 128,-1,3
 447 200 447 200 447 260 c 0,4,5
 447 322 447 322 441.5 382 c 128,-1,6
 436 442 436 442 425 531 c 1,7,-1
 552 531 l 1,8,9
 580 398 580 398 580 256 c 0,10,11
 580 131 580 131 529.5 68.5 c 128,-1,12
 479 6 479 6 361 -13 c 1,13,-1
 361 -205 l 1,14,-1
 240 -222 l 1,15,-1
 240 -13 l 1,16,17
 125 -1 125 -1 76.5 54.5 c 128,-1,18
 28 110 28 110 28 203 c 2,19,-1
 28 531 l 1,20,-1
 160 531 l 1,21,-1
 160 205 l 2,22,23
 160 153 160 153 179 125.5 c 128,-1,24
 198 98 198 98 240 91 c 1,25,-1
 240 531 l 1,26,-1
 361 531 l 1,27,-1
 361 91 l 1,0,1
EndSplineSet
Colour: ff0000
EndChar
StartChar: omega
Encoding: 969 969 739
Width: 600
Flags: W
LayerCount: 2
Fore
SplineSet
571.5 380 m 128,-1,1
 586 309 586 309 586 242 c 0,2,3
 586 114 586 114 547 48.5 c 128,-1,4
 508 -17 508 -17 433 -17 c 0,5,6
 379 -17 379 -17 346.5 7 c 128,-1,7
 314 31 314 31 299 87 c 1,8,9
 283 32 283 32 252 7.5 c 128,-1,10
 221 -17 221 -17 171 -17 c 0,11,12
 94 -17 94 -17 54 48 c 128,-1,13
 14 113 14 113 14 242 c 0,14,15
 14 360 14 360 67 531 c 1,16,-1
 191 531 l 1,17,18
 172 453 172 453 162.5 386 c 128,-1,19
 153 319 153 319 153 251 c 0,20,21
 153 169 153 169 163 134 c 128,-1,22
 173 99 173 99 201 99 c 0,23,24
 219 99 219 99 227.5 112 c 128,-1,25
 236 125 236 125 239.5 153 c 128,-1,26
 243 181 243 181 243 234 c 2,27,-1
 243 342 l 1,28,-1
 358 362 l 1,29,-1
 358 239 l 2,30,31
 358 183 358 183 361.5 154 c 128,-1,32
 365 125 365 125 374 112 c 128,-1,33
 383 99 383 99 402 99 c 0,34,35
 430 99 430 99 438.5 132.5 c 128,-1,36
 447 166 447 166 447 251 c 0,37,38
 447 317 447 317 437.5 384 c 128,-1,39
 428 451 428 451 409 531 c 1,40,-1
 533 531 l 1,41,0
 557 451 557 451 571.5 380 c 128,-1,1
EndSplineSet
Colour: ff0000
EndChar
StartChar: uni03D0
Encoding: 976 976 763
Width: 600
Flags: W
LayerCount: 2
Fore
SplineSet
505 378 m 128,-1,1
 548 325 548 325 548 231 c 0,2,3
 548 160 548 160 517 103.5 c 128,-1,4
 486 47 486 47 429.5 15 c 128,-1,5
 373 -17 373 -17 298 -17 c 0,6,7
 53 -17 53 -17 53 344 c 0,8,9
 53 471 53 471 90.5 565 c 128,-1,10
 128 659 128 659 192 709 c 128,-1,11
 256 759 256 759 334 759 c 0,12,13
 418 759 418 759 460.5 717 c 128,-1,14
 503 675 503 675 503 615 c 0,15,16
 503 480 503 480 327 422 c 1,17,18
 360 431 360 431 387 431 c 0,19,0
 462 431 462 431 505 378 c 128,-1,1
253.5 597.5 m 128,-1,21
 223 547 223 547 215 435 c 1,22,-1
 237 443 l 1,23,24
 305 469 305 469 333.5 507.5 c 128,-1,25
 362 546 362 546 362 601 c 0,26,27
 362 624 362 624 351.5 636 c 128,-1,28
 341 648 341 648 323 648 c 0,29,20
 284 648 284 648 253.5 597.5 c 128,-1,21
362 131 m 128,-1,31
 385 164 385 164 385 226 c 0,32,33
 385 290 385 290 365 324 c 128,-1,34
 345 358 345 358 305 358 c 0,35,36
 289 358 289 358 272.5 353.5 c 128,-1,37
 256 349 256 349 232 339 c 2,38,-1
 212 331 l 1,39,40
 213 205 213 205 234 151.5 c 128,-1,41
 255 98 255 98 299 98 c 0,42,30
 339 98 339 98 362 131 c 128,-1,31
EndSplineSet
Colour: ff0000
EndChar
StartChar: uni03D5
Encoding: 981 981 765
Width: 600
Flags: W
LayerCount: 2
Fore
SplineSet
551.5 130 m 128,-1,1
 523 73 523 73 476.5 42.5 c 128,-1,2
 430 12 430 12 374 5 c 1,3,-1
 373 -205 l 1,4,-1
 225 -222 l 1,5,-1
 226 5 l 1,6,7
 170 11 170 11 123.5 41 c 128,-1,8
 77 71 77 71 48 127 c 128,-1,9
 19 183 19 183 19 264 c 256,10,11
 19 345 19 345 47.5 402 c 128,-1,12
 76 459 76 459 123 490 c 128,-1,13
 170 521 170 521 225 527 c 1,14,-1
 225 742 l 1,15,-1
 373 758 l 1,16,-1
 373 527 l 1,17,18
 429 521 429 521 476 491 c 128,-1,19
 523 461 523 461 551.5 405 c 128,-1,20
 580 349 580 349 580 268 c 256,21,0
 580 187 580 187 551.5 130 c 128,-1,1
443 268 m 0,23,24
 443 423 443 423 361 435 c 1,25,-1
 361 98 l 1,26,22
 443 109 443 109 443 268 c 0,23,24
178 145 m 128,-1,28
 200 104 200 104 238 98 c 1,29,-1
 238 434 l 1,30,31
 198 429 198 429 177 388.5 c 128,-1,32
 156 348 156 348 156 264 c 0,33,27
 156 186 156 186 178 145 c 128,-1,28
EndSplineSet
Colour: ff0000
EndChar
StartChar: uni03D9
Encoding: 985 985 757
Width: 600
Flags: W
LayerCount: 2
Fore
SplineSet
510.5 85.5 m 128,-1,1
 463 14 463 14 377 -8 c 1,2,-1
 377 -205 l 1,3,-1
 223 -222 l 1,4,-1
 223 -8 l 1,5,6
 136 14 136 14 89 85 c 128,-1,7
 42 156 42 156 42 266 c 0,8,9
 42 351 42 351 72.5 414.5 c 128,-1,10
 103 478 103 478 161.5 513.5 c 128,-1,11
 220 549 220 549 300 549 c 0,12,13
 421 549 421 549 489.5 472.5 c 128,-1,14
 558 396 558 396 558 267 c 0,15,0
 558 157 558 157 510.5 85.5 c 128,-1,1
372 139 m 128,-1,17
 395 179 395 179 395 267 c 0,18,19
 395 353 395 353 372 392.5 c 128,-1,20
 349 432 349 432 300 432 c 256,21,22
 251 432 251 432 228 392.5 c 128,-1,23
 205 353 205 353 205 266 c 0,24,25
 205 178 205 178 228 138.5 c 128,-1,26
 251 99 251 99 300 99 c 256,27,16
 349 99 349 99 372 139 c 128,-1,17
EndSplineSet
Colour: ff0000
EndChar
StartChar: uni03DA
Encoding: 986 986 604
Width: 600
Flags: W
LayerCount: 2
Fore
SplineSet
314 -129 m 1,0,1
 355 -106 355 -106 373.5 -89.5 c 128,-1,2
 392 -73 392 -73 392 -52 c 0,3,4
 392 -33 392 -33 366 -17 c 128,-1,5
 340 -1 340 -1 262 32 c 0,6,7
 191 61 191 61 144 98.5 c 128,-1,8
 97 136 97 136 70 196 c 128,-1,9
 43 256 43 256 43 345 c 0,10,11
 43 446 43 446 85 525 c 128,-1,12
 127 604 127 604 208.5 648.5 c 128,-1,13
 290 693 290 693 404 693 c 2,14,-1
 585 693 l 1,15,-1
 567 562 l 1,16,-1
 423 562 l 2,17,18
 314 562 314 562 262.5 505.5 c 128,-1,19
 211 449 211 449 211 349 c 0,20,21
 211 289 211 289 223.5 253 c 128,-1,22
 236 217 236 217 270.5 189.5 c 128,-1,23
 305 162 305 162 373 134 c 0,24,25
 435 109 435 109 472 87 c 128,-1,26
 509 65 509 65 529.5 35.5 c 128,-1,27
 550 6 550 6 550 -35 c 0,28,29
 550 -94 550 -94 507.5 -139 c 128,-1,30
 465 -184 465 -184 373 -223 c 1,31,-1
 314 -129 l 1,0,1
EndSplineSet
Colour: ff0000
EndChar
StartChar: uni03DC
Encoding: 988 988 605
Width: 600
Flags: W
LayerCount: 2
Fore
SplineSet
250 564 m 1,0,-1
 250 396 l 1,1,-1
 380 396 l 2,2,3
 419 396 419 396 447 389 c 128,-1,4
 475 382 475 382 499 367 c 1,5,-1
 462 261 l 1,6,7
 441 269 441 269 420.5 273 c 128,-1,8
 400 277 400 277 370 277 c 2,9,-1
 250 277 l 1,10,-1
 250 0 l 1,11,-1
 86 0 l 1,12,-1
 86 693 l 1,13,-1
 555 693 l 1,14,-1
 539 564 l 1,15,-1
 250 564 l 1,0,-1
EndSplineSet
Colour: ff0000
EndChar
StartChar: uni03DE
Encoding: 990 990 606
Width: 600
Flags: W
LayerCount: 2
Fore
SplineSet
555 285 m 1,0,-1
 554 285 l 1,1,-1
 339 0 l 1,2,-1
 166 0 l 1,3,-1
 382 285 l 1,4,-1
 70 285 l 1,5,-1
 45 413 l 1,6,-1
 260 693 l 1,7,-1
 433 693 l 1,8,-1
 219 413 l 1,9,-1
 529 413 l 1,10,-1
 555 285 l 1,0,-1
EndSplineSet
Colour: ff0000
EndChar
StartChar: uni03DF
Encoding: 991 991 760
Width: 600
Flags: W
LayerCount: 2
Fore
SplineSet
541 379 m 1,0,-1
 451 192 l 2,1,2
 416 120 416 120 400.5 75.5 c 128,-1,3
 385 31 385 31 376 -17 c 1,4,-1
 236 16 l 1,5,6
 238 70 238 70 264 131.5 c 128,-1,7
 290 193 290 193 348 286 c 1,8,-1
 374 331 l 1,9,-1
 98 251 l 1,10,-1
 59 358 l 1,11,-1
 152 551 l 2,12,13
 187 622 187 622 202.5 666.5 c 128,-1,14
 218 711 218 711 227 760 c 1,15,-1
 367 727 l 1,16,17
 365 673 365 673 339 611.5 c 128,-1,18
 313 550 313 550 255 457 c 1,19,-1
 225 406 l 1,20,-1
 503 487 l 1,21,-1
 542 380 l 1,22,-1
 541 379 l 1,0,-1
EndSplineSet
Colour: ff0000
EndChar
StartChar: uni03E1
Encoding: 993 993 761
Width: 600
Flags: W
LayerCount: 2
Fore
SplineSet
434.5 506.5 m 128,-1,1
 551 346 551 346 551 91 c 0,2,3
 551 20 551 20 538.5 -67 c 128,-1,4
 526 -154 526 -154 507 -221 c 1,5,-1
 398 -203 l 1,6,7
 429 -56 429 -56 429 91 c 0,8,9
 429 171 429 171 417 240 c 1,10,-1
 320 0 l 1,11,-1
 218 0 l 1,12,-1
 375 374 l 1,13,14
 358 409 358 409 336 440 c 1,15,-1
 135 0 l 1,16,-1
 9 0 l 1,17,-1
 254 531 l 1,18,19
 175 602 175 602 34 669 c 1,20,-1
 81 762 l 1,21,0
 318 667 318 667 434.5 506.5 c 128,-1,1
EndSplineSet
Colour: ff0000
EndChar
StartChar: uni03F1
Encoding: 1009 1009 768
Width: 600
Flags: W
LayerCount: 2
Fore
SplineSet
457 -112 m 128,-1,1
 493 -139 493 -139 507 -190 c 1,2,-1
 370 -223 l 1,3,4
 363 -207 363 -207 352.5 -198.5 c 128,-1,5
 342 -190 342 -190 319.5 -184.5 c 128,-1,6
 297 -179 297 -179 250 -172 c 0,7,8
 158 -159 158 -159 113 -110.5 c 128,-1,9
 68 -62 68 -62 68 37 c 2,10,-1
 68 275 l 2,11,12
 68 408 68 408 129 478.5 c 128,-1,13
 190 549 190 549 310 549 c 0,14,15
 429 549 429 549 493.5 480.5 c 128,-1,16
 558 412 558 412 558 289 c 0,17,18
 558 216 558 216 532.5 154.5 c 128,-1,19
 507 93 507 93 460 57 c 128,-1,20
 413 21 413 21 352 21 c 0,21,22
 275 21 275 21 226 84 c 1,23,-1
 226 16 l 2,24,25
 226 -15 226 -15 237 -31.5 c 128,-1,26
 248 -48 248 -48 273.5 -57.5 c 128,-1,27
 299 -67 299 -67 349 -74 c 0,28,0
 421 -85 421 -85 457 -112 c 128,-1,1
245.5 392 m 128,-1,30
 226 351 226 351 226 260 c 2,31,-1
 226 191 l 1,32,33
 242 163 242 163 261.5 150 c 128,-1,34
 281 137 281 137 306 137 c 0,35,36
 346 137 346 137 370 175.5 c 128,-1,37
 394 214 394 214 394 287 c 0,38,39
 394 433 394 433 312 433 c 0,40,29
 265 433 265 433 245.5 392 c 128,-1,30
EndSplineSet
Colour: ff0000
EndChar
StartChar: uni03F2
Encoding: 1010 1010 769
Width: 600
Flags: W
LayerCount: 2
Fore
SplineSet
410 119.5 m 128,-1,1
 438 131 438 131 470 153 c 1,2,-1
 540 53 l 1,3,4
 502 21 502 21 452 2 c 128,-1,5
 402 -17 402 -17 343 -17 c 0,6,7
 258 -17 258 -17 196.5 18 c 128,-1,8
 135 53 135 53 102 116 c 128,-1,9
 69 179 69 179 69 262 c 256,10,11
 69 345 69 345 103 410 c 128,-1,12
 137 475 137 475 199.5 512 c 128,-1,13
 262 549 262 549 346 549 c 0,14,15
 405 549 405 549 452 532.5 c 128,-1,16
 499 516 499 516 540 482 c 1,17,-1
 472 387 l 1,18,19
 414 427 414 427 353 427 c 0,20,21
 234 427 234 427 234 262 c 0,22,23
 234 179 234 179 265 143.5 c 128,-1,24
 296 108 296 108 352 108 c 0,25,0
 382 108 382 108 410 119.5 c 128,-1,1
EndSplineSet
Colour: ff0000
EndChar
StartChar: uni03FB
Encoding: 1019 1019 773
Width: 600
Flags: W
LayerCount: 2
Fore
SplineSet
71 531 m 1,0,-1
 246 531 l 1,1,-1
 298 192 l 1,2,-1
 360 531 l 1,3,-1
 532 531 l 1,4,-1
 577 0 l 1,5,-1
 437 0 l 1,6,-1
 431 144 l 2,7,8
 429 183 429 183 429 251 c 0,9,10
 429 315 429 315 432 391 c 2,11,-1
 433 424 l 1,12,-1
 359 67 l 1,13,-1
 227 67 l 1,14,-1
 169 421 l 1,15,-1
 170 286 l 2,16,17
 170 206 170 206 165 140 c 2,18,-1
 138 -212 l 1,19,-1
 2 -222 l 1,20,-1
 71 531 l 1,0,-1
EndSplineSet
Colour: ff0000
EndChar
StartChar: uni03FD
Encoding: 1021 1021 616
Width: 600
Flags: W
LayerCount: 2
Fore
SplineSet
419.5 668.5 m 128,-1,1
 490 626 490 626 528 544.5 c 128,-1,2
 566 463 566 463 566 348 c 0,3,4
 566 232 566 232 525 149.5 c 128,-1,5
 484 67 484 67 411.5 25 c 128,-1,6
 339 -17 339 -17 244 -17 c 0,7,8
 103 -17 103 -17 11 77 c 1,9,-1
 85 170 l 1,10,11
 125 141 125 141 157 125.5 c 128,-1,12
 189 110 189 110 235 110 c 0,13,14
 310 110 310 110 353 168.5 c 128,-1,15
 396 227 396 227 396 348 c 0,16,17
 396 474 396 474 359 531.5 c 128,-1,18
 322 589 322 589 244 589 c 0,19,20
 201 589 201 589 163.5 576.5 c 128,-1,21
 126 564 126 564 88 539 c 1,22,-1
 20 635 l 1,23,24
 73 674 73 674 128 692.5 c 128,-1,25
 183 711 183 711 252 711 c 0,26,0
 349 711 349 711 419.5 668.5 c 128,-1,1
EndSplineSet
Colour: ff0000
EndChar
StartChar: uni0404
Encoding: 1028 1028 323
Width: 600
Flags: W
LayerCount: 2
Fore
SplineSet
480 691.5 m 128,-1,1
 531 672 531 672 580 634 c 1,2,-1
 503 545 l 1,3,4
 469 568 469 568 437.5 580 c 128,-1,5
 406 592 406 592 369 592 c 0,6,7
 300 592 300 592 254 548 c 128,-1,8
 208 504 208 504 201 417 c 1,9,-1
 457 417 l 1,10,-1
 457 292 l 1,11,-1
 201 292 l 1,12,13
 207 200 207 200 251 153.5 c 128,-1,14
 295 107 295 107 365 107 c 0,15,16
 411 107 411 107 445.5 121 c 128,-1,17
 480 135 480 135 517 161 c 1,18,-1
 589 73 l 1,19,20
 497 -17 497 -17 354 -17 c 0,21,22
 258 -17 258 -17 186 25 c 128,-1,23
 114 67 114 67 74 149 c 128,-1,24
 34 231 34 231 34 348 c 0,25,26
 34 461 34 461 76 543 c 128,-1,27
 118 625 118 625 191.5 668 c 128,-1,28
 265 711 265 711 358 711 c 0,29,0
 429 711 429 711 480 691.5 c 128,-1,1
EndSplineSet
Colour: ff0000
EndChar
StartChar: uni0409
Encoding: 1033 1033 320
Width: 600
Flags: W
LayerCount: 2
Fore
SplineSet
364 459 m 1,0,1
 478 459 478 459 539 403.5 c 128,-1,2
 600 348 600 348 600 236 c 0,3,4
 600 118 600 118 538 59 c 128,-1,5
 476 0 476 0 365 0 c 2,6,-1
 239 0 l 1,7,-1
 239 589 l 1,8,-1
 182 589 l 1,9,-1
 169 304 l 2,10,11
 163 190 163 190 149 129.5 c 128,-1,12
 135 69 135 69 112 39.5 c 128,-1,13
 89 10 89 10 44 -20 c 1,14,-1
 -15 74 l 1,15,16
 1 88 1 88 11 110.5 c 128,-1,17
 21 133 21 133 28.5 182.5 c 128,-1,18
 36 232 36 232 41 322 c 2,19,-1
 61 693 l 1,20,-1
 364 693 l 1,21,-1
 364 459 l 1,0,1
364 356 m 1,22,-1
 364 106 l 1,23,-1
 379 106 l 2,24,25
 424 106 424 106 444.5 139 c 128,-1,26
 465 172 465 172 465 235 c 0,27,28
 465 295 465 295 443.5 325.5 c 128,-1,29
 422 356 422 356 374 356 c 2,30,-1
 364 356 l 1,22,-1
EndSplineSet
Colour: ff0000
EndChar
StartChar: uni040A
Encoding: 1034 1034 321
Width: 600
Flags: W
LayerCount: 2
Fore
SplineSet
370 434 m 1,0,1
 479 433 479 433 539.5 382 c 128,-1,2
 600 331 600 331 600 227 c 0,3,4
 600 0 600 0 360 0 c 2,5,-1
 241 0 l 1,6,-1
 241 322 l 1,7,-1
 157 322 l 1,8,-1
 157 0 l 1,9,-1
 28 0 l 1,10,-1
 28 693 l 1,11,-1
 157 693 l 1,12,-1
 157 434 l 1,13,-1
 241 434 l 1,14,-1
 241 693 l 1,15,-1
 370 693 l 1,16,-1
 370 434 l 1,0,1
370 325 m 1,17,-1
 370 113 l 1,18,-1
 375 113 l 1,19,20
 426 114 426 114 447 140.5 c 128,-1,21
 468 167 468 167 468 226 c 0,22,23
 468 279 468 279 446 301.5 c 128,-1,24
 424 324 424 324 375 325 c 1,25,-1
 370 325 l 1,17,-1
EndSplineSet
Colour: ff0000
EndChar
StartChar: uni040F
Encoding: 1039 1039 316
Width: 600
Flags: W
LayerCount: 2
Fore
SplineSet
548 0 m 1,0,-1
 372 0 l 1,1,-1
 372 -174 l 1,2,-1
 247 -174 l 1,3,-1
 227 0 l 1,4,-1
 52 0 l 1,5,-1
 52 693 l 1,6,-1
 216 693 l 1,7,-1
 216 128 l 1,8,-1
 384 128 l 1,9,-1
 384 693 l 1,10,-1
 548 693 l 1,11,-1
 548 0 l 1,0,-1
EndSplineSet
Colour: ff0000
EndChar
StartChar: uni0411
Encoding: 1041 1041 283
Width: 600
Flags: W
LayerCount: 2
Fore
SplineSet
477 568 m 1,0,-1
 221 568 l 1,1,-1
 221 443 l 1,2,-1
 291 443 l 2,3,4
 424 443 424 443 496 389.5 c 128,-1,5
 568 336 568 336 568 228 c 0,6,7
 568 117 568 117 494 58.5 c 128,-1,8
 420 0 420 0 299 0 c 2,9,-1
 57 0 l 1,10,-1
 57 693 l 1,11,-1
 493 693 l 1,12,-1
 477 568 l 1,0,-1
221 326 m 1,13,-1
 221 123 l 1,14,-1
 282 123 l 2,15,16
 341 123 341 123 370.5 147.5 c 128,-1,17
 400 172 400 172 400 227 c 0,18,19
 400 277 400 277 370.5 301.5 c 128,-1,20
 341 326 341 326 280 326 c 2,21,-1
 221 326 l 1,13,-1
EndSplineSet
Colour: ff0000
EndChar
StartChar: uni0414
Encoding: 1044 1044 288
Width: 600
Flags: W
LayerCount: 2
Fore
SplineSet
577 122 m 1,0,-1
 577 -174 l 1,1,-1
 451 -174 l 1,2,-1
 431 -1 l 1,3,-1
 136 0 l 1,4,-1
 116 -174 l 1,5,-1
 -10 -174 l 1,6,-1
 -10 122 l 1,7,-1
 30 122 l 1,8,9
 53 147 53 147 68.5 184 c 128,-1,10
 84 221 84 221 96 289.5 c 128,-1,11
 108 358 108 358 119 475 c 2,12,-1
 139 693 l 1,13,-1
 525 693 l 1,14,-1
 525 122 l 1,15,-1
 577 122 l 1,0,-1
374 577 m 1,16,-1
 276 577 l 1,17,-1
 269 489 l 2,18,19
 259 373 259 373 246 303 c 128,-1,20
 233 233 233 233 212 191.5 c 128,-1,21
 191 150 191 150 158 122 c 1,22,-1
 374 122 l 1,23,-1
 374 577 l 1,16,-1
EndSplineSet
Colour: ff0000
EndChar
StartChar: uni0417
Encoding: 1047 1047 293
Width: 600
Flags: W
LayerCount: 2
Fore
SplineSet
418.5 687.5 m 128,-1,1
 477 664 477 664 509 622 c 128,-1,2
 541 580 541 580 541 526 c 0,3,4
 541 463 541 463 500.5 423.5 c 128,-1,5
 460 384 460 384 384 369 c 1,6,7
 467 361 467 361 514.5 317 c 128,-1,8
 562 273 562 273 562 198 c 0,9,10
 562 133 562 133 528 84.5 c 128,-1,11
 494 36 494 36 428 9.5 c 128,-1,12
 362 -17 362 -17 270 -17 c 0,13,14
 186 -17 186 -17 119.5 8.5 c 128,-1,15
 53 34 53 34 7 82 c 1,16,-1
 91 166 l 1,17,18
 166 103 166 103 267 103 c 0,19,20
 328 103 328 103 363 130 c 128,-1,21
 398 157 398 157 398 205 c 0,22,23
 398 257 398 257 364 283 c 128,-1,24
 330 309 330 309 266 309 c 2,25,-1
 150 309 l 1,26,-1
 169 425 l 1,27,-1
 265 425 l 2,28,29
 319 425 319 425 349.5 447 c 128,-1,30
 380 469 380 469 380 510 c 0,31,32
 380 549 380 549 350 570.5 c 128,-1,33
 320 592 320 592 266 592 c 0,34,35
 172 592 172 592 104 538 c 1,36,-1
 25 621 l 1,37,38
 127 711 127 711 283 711 c 0,39,0
 360 711 360 711 418.5 687.5 c 128,-1,1
EndSplineSet
Colour: ff0000
EndChar
StartChar: uni041A
Encoding: 1050 1050 298
Width: 600
Flags: W
LayerCount: 2
Fore
SplineSet
216 302 m 1,0,-1
 216 0 l 1,1,-1
 52 0 l 1,2,-1
 52 693 l 1,3,-1
 216 693 l 1,4,-1
 216 420 l 1,5,-1
 277 420 l 1,6,-1
 430 693 l 1,7,-1
 589 693 l 1,8,-1
 413 379 l 1,9,-1
 608 0 l 1,10,-1
 429 0 l 1,11,-1
 279 302 l 1,12,-1
 216 302 l 1,0,-1
EndSplineSet
Colour: ff0000
EndChar
StartChar: uni041B
Encoding: 1051 1051 300
Width: 600
Flags: W
LayerCount: 2
Fore
SplineSet
548 0 m 1,0,-1
 384 0 l 1,1,-1
 384 568 l 1,2,-1
 275 568 l 1,3,-1
 265 457 l 2,4,5
 249 288 249 288 226.5 198.5 c 128,-1,6
 204 109 204 109 164.5 62 c 128,-1,7
 125 15 125 15 52 -20 c 1,8,-1
 -12 88 l 1,9,10
 25 116 25 116 46 149 c 128,-1,11
 67 182 67 182 82.5 255.5 c 128,-1,12
 98 329 98 329 112 473 c 2,13,-1
 132 693 l 1,14,-1
 548 693 l 1,15,-1
 548 0 l 1,0,-1
EndSplineSet
Colour: ff0000
EndChar
StartChar: uni0424
Encoding: 1060 1060 310
Width: 600
Flags: W
LayerCount: 2
Fore
SplineSet
357 656 m 1,0,1
 478 648 478 648 537 572.5 c 128,-1,2
 596 497 596 497 596 350 c 0,3,4
 596 204 596 204 536.5 124.5 c 128,-1,5
 477 45 477 45 357 38 c 1,6,-1
 357 -39 l 1,7,-1
 243 -39 l 1,8,-1
 243 38 l 1,9,10
 123 45 123 45 63.5 124 c 128,-1,11
 4 203 4 203 4 350 c 256,12,13
 4 497 4 497 62.5 572.5 c 128,-1,14
 121 648 121 648 243 656 c 1,15,-1
 243 730 l 1,16,-1
 357 730 l 1,17,-1
 357 656 l 1,0,1
196.5 541.5 m 128,-1,19
 176 519 176 519 166.5 473 c 128,-1,20
 157 427 157 427 157 350 c 256,21,22
 157 273 157 273 165.5 226.5 c 128,-1,23
 174 180 174 180 195 156 c 128,-1,24
 216 132 216 132 253 128 c 1,25,-1
 253 568 l 1,26,18
 217 564 217 564 196.5 541.5 c 128,-1,19
347 128 m 1,27,28
 384 132 384 132 405 156 c 128,-1,29
 426 180 426 180 434.5 226.5 c 128,-1,30
 443 273 443 273 443 350 c 256,31,32
 443 427 443 427 434 473 c 128,-1,33
 425 519 425 519 404 541.5 c 128,-1,34
 383 564 383 564 347 568 c 1,35,-1
 347 128 l 1,27,28
EndSplineSet
Colour: ff0000
EndChar
StartChar: uni0426
Encoding: 1062 1062 313
Width: 600
Flags: W
LayerCount: 2
Fore
SplineSet
596 122 m 1,0,-1
 596 -174 l 1,1,-1
 471 -174 l 1,2,-1
 451 0 l 1,3,-1
 52 0 l 1,4,-1
 52 693 l 1,5,-1
 216 693 l 1,6,-1
 216 128 l 1,7,-1
 384 128 l 1,8,-1
 384 693 l 1,9,-1
 548 693 l 1,10,-1
 548 122 l 1,11,-1
 596 122 l 1,0,-1
EndSplineSet
Colour: ff0000
EndChar
StartChar: uni042B
Encoding: 1067 1067 319
Width: 600
Flags: W
LayerCount: 2
Fore
SplineSet
155 462 m 1,0,-1
 164 462 l 2,1,2
 287 462 287 462 352.5 405.5 c 128,-1,3
 418 349 418 349 418 237 c 0,4,5
 418 117 418 117 351.5 58.5 c 128,-1,6
 285 0 285 0 166 0 c 2,7,-1
 21 0 l 1,8,-1
 21 693 l 1,9,-1
 155 693 l 1,10,-1
 155 462 l 1,0,-1
579 0 m 1,11,-1
 445 0 l 1,12,-1
 445 693 l 1,13,-1
 579 693 l 1,14,-1
 579 0 l 1,11,-1
155 351 m 1,15,-1
 155 113 l 1,16,-1
 169 113 l 2,17,18
 224 113 224 113 251.5 140.5 c 128,-1,19
 279 168 279 168 279 236 c 0,20,21
 279 351 279 351 178 351 c 2,22,-1
 155 351 l 1,15,-1
EndSplineSet
Colour: ff0000
EndChar
StartChar: uni042E
Encoding: 1070 1070 329
Width: 600
Flags: W
LayerCount: 2
Fore
SplineSet
509 671 m 128,-1,1
 551 631 551 631 569.5 552 c 128,-1,2
 588 473 588 473 588 347 c 0,3,4
 588 161 588 161 544 72 c 128,-1,5
 500 -17 500 -17 394 -17 c 0,6,7
 293 -17 293 -17 249.5 61.5 c 128,-1,8
 206 140 206 140 202 303 c 1,9,-1
 156 303 l 1,10,-1
 156 0 l 1,11,-1
 31 0 l 1,12,-1
 31 693 l 1,13,-1
 156 693 l 1,14,-1
 156 413 l 1,15,-1
 203 413 l 1,16,17
 209 561 209 561 254 636 c 128,-1,18
 299 711 299 711 394 711 c 0,19,0
 467 711 467 711 509 671 c 128,-1,1
358.5 581.5 m 128,-1,21
 346 560 346 560 341 506 c 128,-1,22
 336 452 336 452 336 348 c 0,23,24
 336 243 336 243 341 189 c 128,-1,25
 346 135 346 135 358 113 c 128,-1,26
 370 91 370 91 394 91 c 256,27,28
 418 91 418 91 430 113 c 128,-1,29
 442 135 442 135 447 189 c 128,-1,30
 452 243 452 243 452 347 c 0,31,32
 452 452 452 452 447 506 c 128,-1,33
 442 560 442 560 430 581.5 c 128,-1,34
 418 603 418 603 394 603 c 0,35,20
 371 603 371 603 358.5 581.5 c 128,-1,21
EndSplineSet
Colour: ff0000
EndChar
StartChar: uni042F
Encoding: 1071 1071 330
Width: 600
Flags: W
LayerCount: 2
Fore
SplineSet
548 0 m 1,0,-1
 384 0 l 1,1,-1
 384 251 l 1,2,-1
 299 251 l 1,3,-1
 179 0 l 1,4,-1
 2 0 l 1,5,-1
 155 281 l 1,6,7
 96 308 96 308 66.5 354.5 c 128,-1,8
 37 401 37 401 37 473 c 0,9,10
 37 583 37 583 108.5 638 c 128,-1,11
 180 693 180 693 321 693 c 2,12,-1
 548 693 l 1,13,-1
 548 0 l 1,0,-1
324 578 m 2,14,15
 206 578 206 578 206 469 c 0,16,17
 206 412 206 412 236.5 387.5 c 128,-1,18
 267 363 267 363 327 363 c 2,19,-1
 384 363 l 1,20,-1
 384 578 l 1,21,-1
 324 578 l 2,14,15
EndSplineSet
Colour: ff0000
EndChar
StartChar: uni0431
Encoding: 1073 1073 420
Width: 600
Flags: W
LayerCount: 2
Fore
SplineSet
455.5 470.5 m 128,-1,1
 502 440 502 440 528.5 382 c 128,-1,2
 555 324 555 324 555 245 c 0,3,4
 555 161 555 161 522.5 102 c 128,-1,5
 490 43 490 43 432.5 13 c 128,-1,6
 375 -17 375 -17 300 -17 c 0,7,8
 44 -17 44 -17 44 300 c 0,9,10
 44 415 44 415 62.5 488.5 c 128,-1,11
 81 562 81 562 127 608.5 c 128,-1,12
 173 655 173 655 257 680 c 0,13,14
 318 698 318 698 356 714 c 128,-1,15
 394 730 394 730 446 759 c 1,16,-1
 503 659 l 1,17,18
 464 632 464 632 427 617 c 128,-1,19
 390 602 390 602 323 581 c 0,20,21
 280 567 280 567 255 549.5 c 128,-1,22
 230 532 230 532 216.5 503.5 c 128,-1,23
 203 475 203 475 198 427 c 1,24,25
 256 501 256 501 351 501 c 0,26,0
 409 501 409 501 455.5 470.5 c 128,-1,1
372.5 128.5 m 128,-1,28
 399 161 399 161 399 243 c 0,29,30
 399 322 399 322 376 355.5 c 128,-1,31
 353 389 353 389 304 389 c 0,32,33
 247 389 247 389 202 326 c 1,34,-1
 202 262 l 2,35,36
 202 179 202 179 226 137.5 c 128,-1,37
 250 96 250 96 300 96 c 0,38,27
 346 96 346 96 372.5 128.5 c 128,-1,28
EndSplineSet
Colour: ff0000
EndChar
StartChar: uni0432
Encoding: 1074 1074 421
Width: 600
Flags: W
LayerCount: 2
Fore
SplineSet
523 249 m 128,-1,1
 558 215 558 215 558 160 c 0,2,3
 558 78 558 78 490.5 39 c 128,-1,4
 423 0 423 0 314 0 c 2,5,-1
 79 0 l 1,6,-1
 79 526 l 1,7,8
 202 549 202 549 298 549 c 0,9,10
 404 549 404 549 469 512 c 128,-1,11
 534 475 534 475 534 407 c 0,12,13
 534 363 534 363 505 334 c 128,-1,14
 476 305 476 305 423 292 c 1,15,0
 488 283 488 283 523 249 c 128,-1,1
237 444 m 1,17,-1
 237 324 l 1,18,-1
 304 324 l 2,19,20
 382 324 382 324 382 385 c 0,21,22
 382 448 382 448 296 448 c 0,23,16
 258 448 258 448 237 444 c 1,17,-1
399 173 m 0,25,26
 399 205 399 205 377 223 c 128,-1,27
 355 241 355 241 313 241 c 2,28,-1
 237 241 l 1,29,-1
 237 104 l 1,30,-1
 310 104 l 2,31,24
 399 104 399 104 399 173 c 0,25,26
EndSplineSet
Colour: ff0000
EndChar
StartChar: uni0433
Encoding: 1075 1075 422
Width: 600
Flags: W
LayerCount: 2
Fore
SplineSet
122 0 m 1,0,-1
 122 531 l 1,1,-1
 539 531 l 1,2,-1
 521 409 l 1,3,-1
 280 409 l 1,4,-1
 280 0 l 1,5,-1
 122 0 l 1,0,-1
EndSplineSet
Colour: ff0000
EndChar
StartChar: uni0438
Encoding: 1080 1080 431
Width: 600
Flags: W
LayerCount: 2
Fore
SplineSet
530 0 m 1,0,-1
 381 0 l 1,1,-1
 381 169 l 2,2,3
 381 294 381 294 407 393 c 1,4,-1
 233 0 l 1,5,-1
 70 0 l 1,6,-1
 70 531 l 1,7,-1
 219 531 l 1,8,-1
 219 360 l 2,9,10
 219 239 219 239 192 137 c 1,11,-1
 366 531 l 1,12,-1
 530 531 l 1,13,-1
 530 0 l 1,0,-1
EndSplineSet
Colour: ff0000
EndChar
StartChar: uni043A
Encoding: 1082 1082 435
Width: 600
Flags: W
LayerCount: 2
Fore
SplineSet
73 531 m 1,0,-1
 231 531 l 1,1,-1
 231 329 l 1,2,-1
 304 329 l 1,3,-1
 419 531 l 1,4,-1
 572 531 l 1,5,-1
 425 285 l 1,6,-1
 587 0 l 1,7,-1
 419 0 l 1,8,-1
 300 224 l 1,9,-1
 231 224 l 1,10,-1
 231 0 l 1,11,-1
 73 0 l 1,12,-1
 73 531 l 1,0,-1
EndSplineSet
Colour: ff0000
EndChar
StartChar: uni043B
Encoding: 1083 1083 437
Width: 600
Flags: W
LayerCount: 2
Fore
SplineSet
528 0 m 1,0,-1
 370 0 l 1,1,-1
 370 415 l 1,2,-1
 256 415 l 1,3,-1
 253 350 l 2,4,5
 247 227 247 227 230 158.5 c 128,-1,6
 213 90 213 90 179 51 c 128,-1,7
 145 12 145 12 80 -20 c 1,8,-1
 14 80 l 1,9,10
 42 100 42 100 58 124.5 c 128,-1,11
 74 149 74 149 85 199 c 128,-1,12
 96 249 96 249 103 344 c 2,13,-1
 117 531 l 1,14,-1
 528 531 l 1,15,-1
 528 0 l 1,0,-1
EndSplineSet
Colour: ff0000
EndChar
StartChar: uni043C
Encoding: 1084 1084 438
Width: 600
Flags: W
LayerCount: 2
Fore
SplineSet
579 0 m 1,0,-1
 439 0 l 1,1,-1
 432 181 l 2,2,3
 430 239 430 239 430 270 c 0,4,5
 430 335 430 335 434 388 c 1,6,-1
 430 388 l 1,7,-1
 358 84 l 1,8,-1
 243 84 l 1,9,-1
 165 388 l 1,10,-1
 161 388 l 1,11,12
 167 333 167 333 167 278 c 0,13,14
 167 257 167 257 165 213 c 2,15,-1
 164 175 l 1,16,-1
 158 0 l 1,17,-1
 21 0 l 1,18,-1
 56 531 l 1,19,-1
 226 531 l 1,20,-1
 302 204 l 1,21,-1
 368 531 l 1,22,-1
 543 531 l 1,23,-1
 579 0 l 1,0,-1
EndSplineSet
Colour: ff0000
EndChar
StartChar: uni043D
Encoding: 1085 1085 439
Width: 600
Flags: W
LayerCount: 2
Fore
SplineSet
372 212 m 1,0,-1
 228 212 l 1,1,-1
 228 0 l 1,2,-1
 70 0 l 1,3,-1
 70 531 l 1,4,-1
 228 531 l 1,5,-1
 228 328 l 1,6,-1
 372 328 l 1,7,-1
 372 531 l 1,8,-1
 530 531 l 1,9,-1
 530 0 l 1,10,-1
 372 0 l 1,11,-1
 372 212 l 1,0,-1
EndSplineSet
Colour: ff0000
EndChar
StartChar: uni043E
Encoding: 1086 1086 440
Width: 600
Flags: W
LayerCount: 2
Fore
SplineSet
489.5 472.5 m 128,-1,1
 558 396 558 396 558 267 c 0,2,3
 558 133 558 133 490 58 c 128,-1,4
 422 -17 422 -17 300 -17 c 256,5,6
 178 -17 178 -17 110 57.5 c 128,-1,7
 42 132 42 132 42 266 c 0,8,9
 42 351 42 351 72.5 414.5 c 128,-1,10
 103 478 103 478 161.5 513.5 c 128,-1,11
 220 549 220 549 300 549 c 0,12,0
 421 549 421 549 489.5 472.5 c 128,-1,1
228 392.5 m 128,-1,14
 205 353 205 353 205 266 c 0,15,16
 205 178 205 178 228 138.5 c 128,-1,17
 251 99 251 99 300 99 c 256,18,19
 349 99 349 99 372 139 c 128,-1,20
 395 179 395 179 395 267 c 0,21,22
 395 353 395 353 372 392.5 c 128,-1,23
 349 432 349 432 300 432 c 256,24,13
 251 432 251 432 228 392.5 c 128,-1,14
EndSplineSet
Colour: ff0000
EndChar
StartChar: uni0444
Encoding: 1092 1092 447
Width: 600
Flags: W
LayerCount: 2
Fore
SplineSet
357 746 m 1,0,-1
 357 500 l 1,1,2
 377 526 377 526 400.5 537.5 c 128,-1,3
 424 549 424 549 454 549 c 0,4,5
 508 549 508 549 536.5 516 c 128,-1,6
 565 483 565 483 575.5 422 c 128,-1,7
 586 361 586 361 586 265 c 0,8,9
 586 -17 586 -17 443 -17 c 0,10,11
 391 -17 391 -17 357 29 c 1,12,-1
 357 -209 l 1,13,-1
 244 -222 l 1,14,-1
 244 28 l 1,15,16
 208 -17 208 -17 156 -17 c 0,17,18
 14 -17 14 -17 14 265 c 0,19,20
 14 406 14 406 45.5 477.5 c 128,-1,21
 77 549 77 549 154 549 c 0,22,23
 182 549 182 549 203.5 537.5 c 128,-1,24
 225 526 225 526 244 501 c 1,25,-1
 244 759 l 1,26,-1
 357 746 l 1,0,-1
172 424 m 128,-1,28
 162 407 162 407 158 370 c 128,-1,29
 154 333 154 333 154 265 c 0,30,31
 154 199 154 199 158 161.5 c 128,-1,32
 162 124 162 124 172 107 c 128,-1,33
 182 90 182 90 201 90 c 0,34,35
 213 90 213 90 221.5 97 c 128,-1,36
 230 104 230 104 244 121 c 1,37,-1
 244 411 l 1,38,39
 233 428 233 428 224 434.5 c 128,-1,40
 215 441 215 441 201 441 c 0,41,27
 182 441 182 441 172 424 c 128,-1,28
380 434 m 128,-1,43
 369 427 369 427 357 411 c 1,44,-1
 357 121 l 1,45,46
 369 104 369 104 378.5 97 c 128,-1,47
 388 90 388 90 401 90 c 0,48,49
 426 90 426 90 436 128 c 128,-1,50
 446 166 446 166 446 265 c 0,51,52
 446 333 446 333 443 370.5 c 128,-1,53
 440 408 440 408 431.5 424.5 c 128,-1,54
 423 441 423 441 406 441 c 0,55,42
 391 441 391 441 380 434 c 128,-1,43
EndSplineSet
Colour: ff0000
EndChar
StartChar: uni0446
Encoding: 1094 1094 450
Width: 600
Flags: W
LayerCount: 2
Fore
SplineSet
586 117 m 1,0,-1
 586 -174 l 1,1,-1
 467 -174 l 1,2,-1
 448 0 l 1,3,-1
 55 0 l 1,4,-1
 55 531 l 1,5,-1
 212 531 l 1,6,-1
 212 117 l 1,7,-1
 358 117 l 1,8,-1
 358 531 l 1,9,-1
 515 531 l 1,10,-1
 515 117 l 1,11,-1
 586 117 l 1,0,-1
EndSplineSet
Colour: ff0000
EndChar
StartChar: uni044A
Encoding: 1098 1098 455
Width: 600
Flags: W
LayerCount: 2
Fore
SplineSet
276 371 m 1,0,-1
 317 371 l 2,1,2
 571 371 571 371 571 187 c 0,3,4
 571 93 571 93 509.5 46.5 c 128,-1,5
 448 0 448 0 334 0 c 2,6,-1
 118 0 l 1,7,-1
 118 418 l 1,8,-1
 14 418 l 1,9,-1
 14 531 l 1,10,-1
 276 531 l 1,11,-1
 276 371 l 1,0,-1
276 267 m 1,12,-1
 276 109 l 1,13,-1
 323 109 l 2,14,15
 366 109 366 109 387 127.5 c 128,-1,16
 408 146 408 146 408 190 c 0,17,18
 408 230 408 230 386.5 248.5 c 128,-1,19
 365 267 365 267 318 267 c 2,20,-1
 276 267 l 1,12,-1
EndSplineSet
Colour: ff0000
EndChar
StartChar: uni044C
Encoding: 1100 1100 454
Width: 600
Flags: W
LayerCount: 2
Fore
SplineSet
246 373 m 1,0,-1
 301 373 l 2,1,2
 429 373 429 373 492.5 327 c 128,-1,3
 556 281 556 281 556 188 c 0,4,5
 556 85 556 85 489.5 42.5 c 128,-1,6
 423 0 423 0 305 0 c 2,7,-1
 88 0 l 1,8,-1
 88 531 l 1,9,-1
 246 531 l 1,10,-1
 246 373 l 1,0,-1
246 269 m 1,11,-1
 246 109 l 1,12,-1
 308 109 l 2,13,14
 351 109 351 109 372 127.5 c 128,-1,15
 393 146 393 146 393 191 c 0,16,17
 393 232 393 232 371.5 250.5 c 128,-1,18
 350 269 350 269 303 269 c 2,19,-1
 246 269 l 1,11,-1
EndSplineSet
Colour: ff0000
EndChar
StartChar: uni044D
Encoding: 1101 1101 461
Width: 600
Flags: W
LayerCount: 2
Fore
SplineSet
418.5 513 m 128,-1,1
 478 477 478 477 509 412.5 c 128,-1,2
 540 348 540 348 540 264 c 0,3,4
 540 181 540 181 507.5 117.5 c 128,-1,5
 475 54 475 54 412.5 18.5 c 128,-1,6
 350 -17 350 -17 263 -17 c 0,7,8
 202 -17 202 -17 155 0 c 128,-1,9
 108 17 108 17 69 52 c 1,10,-1
 139 136 l 1,11,12
 168 116 168 116 195.5 107 c 128,-1,13
 223 98 223 98 259 98 c 0,14,15
 312 98 312 98 342.5 127 c 128,-1,16
 373 156 373 156 380 221 c 1,17,-1
 184 221 l 1,18,-1
 184 321 l 1,19,-1
 378 321 l 1,20,21
 365 434 365 434 264 434 c 0,22,23
 230 434 230 434 201.5 425 c 128,-1,24
 173 416 173 416 143 397 c 1,25,-1
 76 484 l 1,26,27
 121 518 121 518 167 533.5 c 128,-1,28
 213 549 213 549 277 549 c 0,29,0
 359 549 359 549 418.5 513 c 128,-1,1
EndSplineSet
Colour: ff0000
EndChar
StartChar: uni0452
Encoding: 1106 1106 468
Width: 600
Flags: W
LayerCount: 2
Fore
SplineSet
228 685 m 1,0,-1
 369 685 l 1,1,-1
 369 593 l 1,2,-1
 228 593 l 1,3,-1
 228 477 l 1,4,5
 297 549 297 549 384 549 c 0,6,7
 454 549 454 549 492 507.5 c 128,-1,8
 530 466 530 466 530 390 c 2,9,-1
 530 81 l 2,10,11
 530 -12 530 -12 506.5 -68.5 c 128,-1,12
 483 -125 483 -125 438.5 -158.5 c 128,-1,13
 394 -192 394 -192 319 -222 c 1,14,-1
 263 -106 l 1,15,16
 319 -81 319 -81 345.5 -50 c 128,-1,17
 372 -19 372 -19 372 43 c 2,18,-1
 372 371 l 2,19,20
 372 404 372 404 359 418 c 128,-1,21
 346 432 346 432 321 432 c 0,22,23
 297 432 297 432 274.5 415.5 c 128,-1,24
 252 399 252 399 228 367 c 1,25,-1
 228 0 l 1,26,-1
 70 0 l 1,27,-1
 70 593 l 1,28,-1
 8 593 l 1,29,-1
 8 685 l 1,30,-1
 70 685 l 1,31,-1
 70 742 l 1,32,-1
 228 758 l 1,33,-1
 228 685 l 1,0,-1
EndSplineSet
Colour: ff0000
EndChar
StartChar: uni0459
Encoding: 1113 1113 457
Width: 600
Flags: W
LayerCount: 2
Fore
SplineSet
382 366 m 1,0,-1
 391 366 l 2,1,2
 500 366 500 366 551 321.5 c 128,-1,3
 602 277 602 277 602 184 c 0,4,5
 602 94 602 94 548.5 47 c 128,-1,6
 495 0 495 0 402 0 c 2,7,-1
 254 0 l 1,8,-1
 254 426 l 1,9,-1
 195 426 l 1,10,-1
 190 320 l 2,11,12
 185 204 185 204 171 141.5 c 128,-1,13
 157 79 157 79 128 44 c 128,-1,14
 99 9 99 9 42 -20 c 1,15,-1
 -9 78 l 1,16,17
 14 95 14 95 27.5 117 c 128,-1,18
 41 139 41 139 49.5 188.5 c 128,-1,19
 58 238 58 238 62 332 c 2,20,-1
 70 531 l 1,21,-1
 382 531 l 1,22,-1
 382 366 l 1,0,-1
382 273 m 1,23,-1
 382 96 l 1,24,-1
 392 96 l 2,25,26
 431 96 431 96 448 116 c 128,-1,27
 465 136 465 136 465 186 c 0,28,29
 465 233 465 233 448.5 253 c 128,-1,30
 432 273 432 273 391 273 c 2,31,-1
 382 273 l 1,23,-1
EndSplineSet
Colour: ff0000
EndChar
StartChar: uni045F
Encoding: 1119 1119 453
Width: 600
Flags: W
LayerCount: 2
Fore
SplineSet
530 0 m 1,0,-1
 367 0 l 1,1,-1
 367 -174 l 1,2,-1
 248 -174 l 1,3,-1
 229 0 l 1,4,-1
 70 0 l 1,5,-1
 70 531 l 1,6,-1
 227 531 l 1,7,-1
 227 117 l 1,8,-1
 367 117 l 1,9,-1
 373 117 l 1,10,-1
 373 531 l 1,11,-1
 530 531 l 1,12,-1
 530 0 l 1,0,-1
EndSplineSet
Colour: ff0000
EndChar
StartChar: uni0460
Encoding: 1120 1120 332
Width: 600
Flags: W
LayerCount: 2
Fore
SplineSet
570 512 m 128,-1,1
 589 429 589 429 589 304 c 0,2,3
 589 197 589 197 565.5 124.5 c 128,-1,4
 542 52 542 52 502 16 c 128,-1,5
 462 -20 462 -20 412 -20 c 0,6,7
 361 -20 361 -20 336.5 3.5 c 128,-1,8
 312 27 312 27 299 75 c 1,9,10
 268 -20 268 -20 191 -20 c 0,11,12
 109 -20 109 -20 60 62 c 128,-1,13
 11 144 11 144 11 304 c 0,14,15
 11 391 11 391 21 459.5 c 128,-1,16
 31 528 31 528 46 577.5 c 128,-1,17
 61 627 61 627 85 693 c 1,18,-1
 217 693 l 1,19,-1
 204 639 l 2,20,21
 182 547 182 547 170.5 476.5 c 128,-1,22
 159 406 159 406 159 306 c 0,23,24
 159 199 159 199 172 152 c 128,-1,25
 185 105 185 105 209 105 c 0,26,27
 222 105 222 105 230.5 119 c 128,-1,28
 239 133 239 133 239 160 c 2,29,-1
 239 399 l 1,30,-1
 361 399 l 1,31,-1
 361 160 l 2,32,33
 361 132 361 132 368.5 118.5 c 128,-1,34
 376 105 376 105 392 105 c 0,35,36
 441 105 441 105 441 306 c 0,37,38
 441 413 441 413 428.5 488.5 c 128,-1,39
 416 564 416 564 392 656 c 1,40,-1
 383 693 l 1,41,-1
 514 693 l 1,42,0
 551 595 551 595 570 512 c 128,-1,1
EndSplineSet
Colour: ff0000
EndChar
StartChar: uni0462
Encoding: 1122 1122 333
Width: 600
Flags: W
LayerCount: 2
Fore
SplineSet
514.5 389.5 m 128,-1,1
 587 335 587 335 587 230 c 0,2,3
 587 118 587 118 515.5 59 c 128,-1,4
 444 0 444 0 328 0 c 2,5,-1
 126 0 l 1,6,-1
 126 519 l 1,7,-1
 10 519 l 1,8,-1
 10 614 l 1,9,-1
 126 614 l 1,10,-1
 126 693 l 1,11,-1
 290 693 l 1,12,-1
 290 614 l 1,13,-1
 413 614 l 1,14,-1
 413 519 l 1,15,-1
 290 519 l 1,16,-1
 290 444 l 1,17,-1
 318 444 l 2,18,0
 442 444 442 444 514.5 389.5 c 128,-1,1
391.5 147.5 m 128,-1,20
 419 175 419 175 419 229 c 0,21,22
 419 277 419 277 390.5 302 c 128,-1,23
 362 327 362 327 312 327 c 2,24,-1
 290 327 l 1,25,-1
 290 120 l 1,26,-1
 318 120 l 2,27,19
 364 120 364 120 391.5 147.5 c 128,-1,20
EndSplineSet
Colour: ff0000
EndChar
StartChar: uni0464
Encoding: 1124 1124 334
Width: 600
Flags: W
LayerCount: 2
Fore
SplineSet
608 19 m 1,0,1
 549 -17 549 -17 472 -17 c 0,2,3
 241 -17 241 -17 223 293 c 1,4,-1
 177 293 l 1,5,-1
 177 0 l 1,6,-1
 22 0 l 1,7,-1
 22 696 l 1,8,-1
 177 696 l 1,9,-1
 177 413 l 1,10,-1
 224 413 l 1,11,12
 236 558 236 558 302 634.5 c 128,-1,13
 368 711 368 711 485 711 c 0,14,15
 553 711 553 711 607 678 c 1,16,-1
 557 583 l 1,17,18
 524 599 524 599 487 599 c 0,19,20
 434 599 434 599 407.5 553.5 c 128,-1,21
 381 508 381 508 379 412 c 1,22,-1
 536 412 l 1,23,-1
 536 297 l 1,24,-1
 379 297 l 1,25,26
 380 193 380 193 404.5 145 c 128,-1,27
 429 97 429 97 485 97 c 0,28,29
 529 97 529 97 563 114 c 1,30,-1
 608 19 l 1,0,1
EndSplineSet
Colour: ff0000
EndChar
StartChar: uni0466
Encoding: 1126 1126 335
Width: 600
Flags: W
LayerCount: 2
Fore
SplineSet
392 244 m 1,0,-1
 360 244 l 1,1,-1
 360 -1 l 1,2,-1
 240 -1 l 1,3,-1
 240 244 l 1,4,-1
 205 244 l 1,5,-1
 141 0 l 1,6,-1
 -11 0 l 1,7,-1
 201 693 l 1,8,-1
 400 693 l 1,9,-1
 612 0 l 1,10,-1
 456 0 l 1,11,-1
 392 244 l 1,0,-1
363 357 m 1,12,-1
 298 604 l 1,13,-1
 234 357 l 1,14,-1
 363 357 l 1,12,-1
EndSplineSet
Colour: ff0000
EndChar
StartChar: uni0467
Encoding: 1127 1127 472
Width: 600
Flags: W
LayerCount: 2
Fore
SplineSet
383 182 m 1,0,-1
 354 182 l 1,1,-1
 354 0 l 1,2,-1
 243 0 l 1,3,-1
 243 182 l 1,4,-1
 213 182 l 1,5,-1
 159 0 l 1,6,-1
 17 0 l 1,7,-1
 201 531 l 1,8,-1
 400 531 l 1,9,-1
 584 0 l 1,10,-1
 441 0 l 1,11,-1
 383 182 l 1,0,-1
351 283 m 1,12,-1
 295 460 l 1,13,-1
 243 283 l 1,14,-1
 351 283 l 1,12,-1
EndSplineSet
Colour: ff0000
EndChar
StartChar: uni0469
Encoding: 1129 1129 473
Width: 600
Flags: W
LayerCount: 2
Fore
SplineSet
460 179 m 1,0,-1
 434 179 l 1,1,-1
 434 0 l 1,2,-1
 339 0 l 1,3,-1
 339 179 l 1,4,-1
 316 179 l 1,5,-1
 272 0 l 1,6,-1
 156 0 l 1,7,-1
 205 179 l 1,8,-1
 137 179 l 1,9,-1
 137 0 l 1,10,-1
 14 0 l 1,11,-1
 14 531 l 1,12,-1
 137 531 l 1,13,-1
 137 273 l 1,14,-1
 231 273 l 1,15,-1
 302 531 l 1,16,-1
 471 531 l 1,17,-1
 622 0 l 1,18,-1
 507 0 l 1,19,-1
 460 179 l 1,0,-1
436 273 m 1,20,-1
 387 460 l 1,21,-1
 340 273 l 1,22,-1
 436 273 l 1,20,-1
EndSplineSet
Colour: ff0000
EndChar
StartChar: uni046B
Encoding: 1131 1131 474
Width: 600
Flags: W
LayerCount: 2
Fore
SplineSet
596 0 m 1,0,-1
 463 0 l 1,1,-1
 414 202 l 1,2,-1
 366 202 l 1,3,-1
 366 0 l 1,4,-1
 236 0 l 1,5,-1
 236 202 l 1,6,-1
 188 202 l 1,7,-1
 138 0 l 1,8,-1
 5 0 l 1,9,-1
 109 301 l 1,10,-1
 182 301 l 1,11,-1
 73 457 l 1,12,-1
 73 531 l 1,13,-1
 521 531 l 1,14,-1
 521 457 l 1,15,-1
 413 301 l 1,16,-1
 493 301 l 1,17,-1
 596 0 l 1,0,-1
298 301 m 1,18,-1
 383 442 l 1,19,-1
 212 442 l 1,20,-1
 298 301 l 1,18,-1
EndSplineSet
Colour: ff0000
EndChar
StartChar: uni046C
Encoding: 1132 1132 338
Width: 600
Flags: W
LayerCount: 2
Fore
SplineSet
613 0 m 1,0,-1
 491 0 l 1,1,-1
 465 310 l 1,2,-1
 440 310 l 1,3,-1
 440 0 l 1,4,-1
 328 0 l 1,5,-1
 328 310 l 1,6,-1
 303 310 l 1,7,-1
 276 0 l 1,8,-1
 156 0 l 1,9,-1
 198 310 l 1,10,-1
 131 310 l 1,11,-1
 131 -2 l 1,12,-1
 5 -2 l 1,13,-1
 5 693 l 1,14,-1
 131 693 l 1,15,-1
 131 401 l 1,16,-1
 277 401 l 1,17,-1
 188 606 l 1,18,-1
 188 693 l 1,19,-1
 574 693 l 1,20,-1
 574 606 l 1,21,-1
 488 401 l 1,22,-1
 556 401 l 1,23,-1
 613 0 l 1,0,-1
384 401 m 1,24,-1
 460 606 l 1,25,-1
 304 606 l 1,26,-1
 384 401 l 1,24,-1
EndSplineSet
Colour: ff0000
EndChar
StartChar: uni046F
Encoding: 1135 1135 476
Width: 600
Flags: W
LayerCount: 2
Fore
SplineSet
481 751 m 1,0,-1
 340 611 l 1,1,-1
 244 611 l 1,2,-1
 102 751 l 1,3,-1
 159 815 l 1,4,-1
 292 721 l 1,5,-1
 425 815 l 1,6,-1
 481 751 l 1,0,-1
62 -74 m 0,8,9
 62 -22 62 -22 100.5 11 c 128,-1,10
 139 44 139 44 231 67 c 0,11,12
 287 81 287 81 316 92 c 128,-1,13
 345 103 345 103 356.5 115 c 128,-1,14
 368 127 368 127 368 144 c 0,15,16
 368 163 368 163 354.5 171.5 c 128,-1,17
 341 180 341 180 310 180 c 2,18,-1
 149 180 l 1,19,-1
 149 272 l 1,20,-1
 324 417 l 1,21,-1
 76 417 l 1,22,-1
 76 531 l 1,23,-1
 508 531 l 1,24,-1
 508 420 l 1,25,-1
 332 285 l 1,26,-1
 369 285 l 2,27,28
 448 285 448 285 492.5 247 c 128,-1,29
 537 209 537 209 537 142 c 0,30,31
 537 91 537 91 513.5 58 c 128,-1,32
 490 25 490 25 447.5 4.5 c 128,-1,33
 405 -16 405 -16 337 -33 c 0,34,35
 286 -46 286 -46 261 -55 c 128,-1,36
 236 -64 236 -64 228 -72 c 128,-1,37
 220 -80 220 -80 220 -91 c 0,38,39
 220 -103 220 -103 229 -112.5 c 128,-1,40
 238 -122 238 -122 257 -133 c 1,41,-1
 214 -227 l 1,42,7
 62 -171 62 -171 62 -74 c 0,8,9
EndSplineSet
Colour: ff0000
EndChar
StartChar: uni0474
Encoding: 1140 1140 342
Width: 600
Flags: W
LayerCount: 2
Fore
SplineSet
561 592 m 0,1,2
 549 592 549 592 542 585.5 c 128,-1,3
 535 579 535 579 531 564 c 2,4,-1
 387 0 l 1,5,-1
 183 0 l 1,6,-1
 10 693 l 1,7,-1
 183 693 l 1,8,-1
 288 125 l 1,9,-1
 373 573 l 2,10,11
 388 648 388 648 426 680.5 c 128,-1,12
 464 713 464 713 532 713 c 0,13,14
 575 713 575 713 598 704 c 1,15,-1
 577 590 l 1,16,0
 569 592 569 592 561 592 c 0,1,2
EndSplineSet
Colour: ff0000
EndChar
StartChar: uni0479
Encoding: 1145 1145 481
Width: 600
Flags: W
LayerCount: 2
Fore
SplineSet
38 57.5 m 128,-1,1
 -6 132 -6 132 -6 266 c 0,2,3
 -6 350 -6 350 14 414 c 128,-1,4
 34 478 34 478 71.5 513.5 c 128,-1,5
 109 549 109 549 160 549 c 0,6,7
 243 549 243 549 284.5 474 c 128,-1,8
 326 399 326 399 326 267 c 0,9,10
 326 131 326 131 284.5 57 c 128,-1,11
 243 -17 243 -17 160 -17 c 0,12,0
 82 -17 82 -17 38 57.5 c 128,-1,1
338 -150 m 1,13,14
 387 -130 387 -130 413 -97 c 128,-1,15
 439 -64 439 -64 450 0 c 1,16,-1
 400 0 l 1,17,-1
 329 531 l 1,18,-1
 429 531 l 1,19,-1
 470 101 l 1,20,-1
 515 531 l 1,21,-1
 612 531 l 1,22,-1
 535 0 l 2,23,24
 508 -187 508 -187 361 -223 c 1,25,-1
 338 -150 l 1,13,14
209 111.5 m 128,-1,27
 224 158 224 158 224 267 c 0,28,29
 224 375 224 375 209 420.5 c 128,-1,30
 194 466 194 466 160 466 c 0,31,32
 127 466 127 466 111.5 419.5 c 128,-1,33
 96 373 96 373 96 266 c 0,34,35
 96 157 96 157 111 111 c 128,-1,36
 126 65 126 65 160 65 c 256,37,26
 194 65 194 65 209 111.5 c 128,-1,27
EndSplineSet
Colour: ff0000
EndChar
StartChar: uni048A
Encoding: 1162 1162 297
Width: 600
Flags: W
LayerCount: 2
Fore
SplineSet
179 783 m 128,-1,1
 135 828 135 828 128 893 c 1,2,-1
 215 908 l 1,3,4
 222 879 222 879 244 863 c 128,-1,5
 266 847 266 847 300 847 c 256,6,7
 334 847 334 847 356 863 c 128,-1,8
 378 879 378 879 385 908 c 1,9,-1
 472 893 l 1,10,11
 465 828 465 828 421 783 c 128,-1,12
 377 738 377 738 300 738 c 256,13,0
 223 738 223 738 179 783 c 128,-1,1
638 152 m 1,14,-1
 539 -174 l 1,15,-1
 404 -174 l 1,16,-1
 443 0 l 1,17,-1
 398 0 l 1,18,-1
 398 230 l 2,19,20
 398 394 398 394 425 549 c 1,21,-1
 236 0 l 1,22,-1
 52 0 l 1,23,-1
 52 693 l 1,24,-1
 202 693 l 1,25,-1
 202 458 l 2,26,27
 202 360 202 360 195 289.5 c 128,-1,28
 188 219 188 219 174 143 c 1,29,-1
 367 693 l 1,30,-1
 548 693 l 1,31,-1
 548 152 l 1,32,-1
 638 152 l 1,14,-1
EndSplineSet
Colour: ff0000
EndChar
StartChar: uni048B
Encoding: 1163 1163 434
Width: 600
Flags: W
LayerCount: 2
Fore
SplineSet
164 657 m 128,-1,1
 120 702 120 702 113 767 c 1,2,-1
 200 782 l 1,3,4
 207 753 207 753 229 737 c 128,-1,5
 251 721 251 721 285 721 c 256,6,7
 319 721 319 721 341 737 c 128,-1,8
 363 753 363 753 370 782 c 1,9,-1
 457 767 l 1,10,11
 450 702 450 702 406 657 c 128,-1,12
 362 612 362 612 285 612 c 256,13,0
 208 612 208 612 164 657 c 128,-1,1
607 140 m 1,14,-1
 508 -174 l 1,15,-1
 379 -174 l 1,16,-1
 419 0 l 1,17,-1
 356 0 l 1,18,-1
 356 169 l 2,19,20
 356 288 356 288 378 384 c 1,21,-1
 226 0 l 1,22,-1
 65 0 l 1,23,-1
 65 531 l 1,24,-1
 214 531 l 1,25,-1
 214 360 l 2,26,27
 214 239 214 239 187 137 c 1,28,-1
 344 531 l 1,29,-1
 505 531 l 1,30,-1
 505 140 l 1,31,-1
 607 140 l 1,14,-1
EndSplineSet
Colour: ff0000
EndChar
StartChar: uni048C
Encoding: 1164 1164 417
Width: 600
Flags: W
LayerCount: 2
Fore
SplineSet
505 389.5 m 128,-1,1
 578 335 578 335 578 230 c 0,2,3
 578 118 578 118 506.5 59 c 128,-1,4
 435 0 435 0 319 0 c 2,5,-1
 86 0 l 1,6,-1
 86 521 l 1,7,-1
 30 521 l 1,8,-1
 30 613 l 1,9,-1
 86 613 l 1,10,-1
 86 693 l 1,11,-1
 250 693 l 1,12,-1
 250 613 l 1,13,-1
 369 613 l 1,14,-1
 369 521 l 1,15,-1
 250 521 l 1,16,-1
 250 444 l 1,17,-1
 308 444 l 2,18,0
 432 444 432 444 505 389.5 c 128,-1,1
381.5 147.5 m 128,-1,20
 409 175 409 175 409 229 c 0,21,22
 409 277 409 277 380.5 302 c 128,-1,23
 352 327 352 327 302 327 c 2,24,-1
 250 327 l 1,25,-1
 250 120 l 1,26,-1
 308 120 l 2,27,19
 354 120 354 120 381.5 147.5 c 128,-1,20
EndSplineSet
Colour: ff0000
EndChar
StartChar: uni048E
Encoding: 1166 1166 418
Width: 600
Flags: W
LayerCount: 2
Fore
SplineSet
546 349.5 m 128,-1,1
 516 299 516 299 463 269 c 1,2,-1
 525 168 l 1,3,-1
 446 168 l 1,4,-1
 400 243 l 1,5,6
 354 231 354 231 302 231 c 2,7,-1
 226 231 l 1,8,-1
 226 0 l 1,9,-1
 62 0 l 1,10,-1
 62 693 l 1,11,-1
 280 693 l 2,12,13
 424 693 424 693 500 636.5 c 128,-1,14
 576 580 576 580 576 467 c 0,15,0
 576 400 576 400 546 349.5 c 128,-1,1
334 352 m 1,17,-1
 256 479 l 1,18,-1
 335 479 l 1,19,-1
 394 382 l 1,20,21
 417 410 417 410 417 467 c 0,22,23
 417 522 417 522 386 549 c 128,-1,24
 355 576 355 576 292 576 c 2,25,-1
 226 576 l 1,26,-1
 226 349 l 1,27,-1
 301 349 l 2,28,16
 319 349 319 349 334 352 c 1,17,-1
EndSplineSet
Colour: ff0000
EndChar
StartChar: uni048F
Encoding: 1167 1167 555
Width: 600
Flags: W
LayerCount: 2
Fore
SplineSet
513 116 m 128,-1,1
 487 50 487 50 439 16 c 1,2,-1
 505 -92 l 1,3,-1
 426 -92 l 1,4,-1
 378 -12 l 1,5,6
 355 -17 355 -17 335 -17 c 0,7,8
 258 -17 258 -17 208 38 c 1,9,-1
 208 -205 l 1,10,-1
 50 -222 l 1,11,-1
 50 531 l 1,12,-1
 191 531 l 1,13,-1
 198 472 l 1,14,15
 228 511 228 511 266.5 530 c 128,-1,16
 305 549 305 549 345 549 c 0,17,18
 445 549 445 549 492 475.5 c 128,-1,19
 539 402 539 402 539 267 c 0,20,0
 539 182 539 182 513 116 c 128,-1,1
309 99 m 1,21,-1
 236 219 l 1,22,-1
 315 219 l 1,23,-1
 366 136 l 1,24,25
 385 173 385 173 385 265 c 0,26,27
 385 360 385 360 364 396 c 128,-1,28
 343 432 343 432 296 432 c 0,29,30
 269 432 269 432 248 416.5 c 128,-1,31
 227 401 227 401 208 370 c 1,32,-1
 208 146 l 1,33,34
 226 121 226 121 245.5 110 c 128,-1,35
 265 99 265 99 296 99 c 2,36,-1
 309 99 l 1,21,-1
EndSplineSet
Colour: ff0000
EndChar
StartChar: uni0490
Encoding: 1168 1168 287
Width: 600
Flags: W
LayerCount: 2
Fore
SplineSet
559 848 m 1,0,-1
 559 693 l 1,1,-1
 543 564 l 1,2,-1
 254 564 l 1,3,-1
 254 0 l 1,4,-1
 90 0 l 1,5,-1
 90 693 l 1,6,-1
 407 693 l 1,7,-1
 407 848 l 1,8,-1
 559 848 l 1,0,-1
EndSplineSet
Colour: ff0000
EndChar
StartChar: uni0493
Encoding: 1171 1171 482
Width: 600
Flags: W
LayerCount: 2
Fore
SplineSet
306 409 m 1,0,-1
 306 312 l 1,1,-1
 422 312 l 1,2,-1
 422 213 l 1,3,-1
 306 213 l 1,4,-1
 306 0 l 1,5,-1
 148 0 l 1,6,-1
 148 213 l 1,7,-1
 73 213 l 1,8,-1
 73 312 l 1,9,-1
 148 312 l 1,10,-1
 148 531 l 1,11,-1
 565 531 l 1,12,-1
 547 409 l 1,13,-1
 306 409 l 1,0,-1
EndSplineSet
Colour: ff0000
EndChar
StartChar: uni0495
Encoding: 1173 1173 483
Width: 600
Flags: W
LayerCount: 2
Fore
SplineSet
487.5 -175.5 m 128,-1,1
 437 -227 437 -227 343 -227 c 0,2,3
 300 -227 300 -227 269 -215.5 c 128,-1,4
 238 -204 238 -204 208 -182 c 1,5,-1
 268 -93 l 1,6,7
 286 -102 286 -102 298 -106 c 128,-1,8
 310 -110 310 -110 328 -110 c 0,9,10
 354 -110 354 -110 367 -94.5 c 128,-1,11
 380 -79 380 -79 380 -43 c 2,12,-1
 380 168 l 2,13,14
 380 202 380 202 367.5 215.5 c 128,-1,15
 355 229 355 229 329 229 c 0,16,17
 282 229 282 229 240 177 c 1,18,-1
 240 0 l 1,19,-1
 82 0 l 1,20,-1
 82 531 l 1,21,-1
 467 531 l 1,22,-1
 444 416 l 1,23,-1
 240 416 l 1,24,-1
 240 282 l 1,25,26
 267 312 267 312 305 329 c 128,-1,27
 343 346 343 346 386 346 c 0,28,29
 459 346 459 346 498.5 303 c 128,-1,30
 538 260 538 260 538 178 c 2,31,-1
 538 -26 l 2,32,0
 538 -124 538 -124 487.5 -175.5 c 128,-1,1
EndSplineSet
Colour: ff0000
EndChar
StartChar: uni0496
Encoding: 1174 1174 347
Width: 600
Flags: W
LayerCount: 2
Fore
SplineSet
611 122 m 1,0,-1
 611 -174 l 1,1,-1
 505 -174 l 1,2,-1
 485 0 l 1,3,-1
 456 0 l 1,4,-1
 378 320 l 1,5,-1
 350 320 l 1,6,-1
 350 0 l 1,7,-1
 250 0 l 1,8,-1
 250 320 l 1,9,-1
 220 320 l 1,10,-1
 142 0 l 1,11,-1
 2 0 l 1,12,-1
 110 379 l 1,13,-1
 12 693 l 1,14,-1
 147 693 l 1,15,-1
 223 402 l 1,16,-1
 250 402 l 1,17,-1
 250 693 l 1,18,-1
 350 693 l 1,19,-1
 350 402 l 1,20,-1
 377 402 l 1,21,-1
 453 693 l 1,22,-1
 588 693 l 1,23,-1
 490 379 l 1,24,-1
 563 122 l 1,25,-1
 611 122 l 1,0,-1
EndSplineSet
Colour: ff0000
EndChar
StartChar: uni0497
Encoding: 1175 1175 484
Width: 600
Flags: W
LayerCount: 2
Fore
SplineSet
617 117 m 1,0,-1
 617 -174 l 1,1,-1
 518 -174 l 1,2,-1
 498 0 l 1,3,-1
 458 0 l 1,4,-1
 379 232 l 1,5,-1
 354 232 l 1,6,-1
 354 0 l 1,7,-1
 246 0 l 1,8,-1
 246 232 l 1,9,-1
 221 232 l 1,10,-1
 146 0 l 1,11,-1
 5 0 l 1,12,-1
 117 285 l 1,13,-1
 8 531 l 1,14,-1
 145 531 l 1,15,-1
 219 320 l 1,16,-1
 246 320 l 1,17,-1
 246 531 l 1,18,-1
 354 531 l 1,19,-1
 354 320 l 1,20,-1
 381 320 l 1,21,-1
 459 531 l 1,22,-1
 592 531 l 1,23,-1
 484 285 l 1,24,-1
 551 117 l 1,25,-1
 617 117 l 1,0,-1
EndSplineSet
Colour: ff0000
EndChar
StartChar: uni0498
Encoding: 1176 1176 348
Width: 600
Flags: W
LayerCount: 2
Fore
SplineSet
497.5 52 m 128,-1,1
 433 -5 433 -5 317 -15 c 1,2,-1
 317 -48 l 1,3,4
 368 -54 368 -54 394 -80 c 128,-1,5
 420 -106 420 -106 420 -147 c 0,6,7
 420 -198 420 -198 379 -230 c 128,-1,8
 338 -262 338 -262 271 -262 c 0,9,10
 237 -262 237 -262 206.5 -253.5 c 128,-1,11
 176 -245 176 -245 154 -232 c 1,12,-1
 190 -159 l 1,13,14
 224 -176 224 -176 254 -176 c 0,15,16
 307 -176 307 -176 307 -145 c 0,17,18
 307 -126 307 -126 285 -119 c 128,-1,19
 263 -112 263 -112 215 -112 c 1,20,-1
 226 -15 l 1,21,22
 91 -3 91 -3 7 82 c 1,23,-1
 91 166 l 1,24,25
 166 103 166 103 267 103 c 0,26,27
 328 103 328 103 363 130 c 128,-1,28
 398 157 398 157 398 205 c 0,29,30
 398 257 398 257 364 283 c 128,-1,31
 330 309 330 309 266 309 c 2,32,-1
 150 309 l 1,33,-1
 169 425 l 1,34,-1
 265 425 l 2,35,36
 319 425 319 425 349.5 447 c 128,-1,37
 380 469 380 469 380 510 c 0,38,39
 380 549 380 549 350 570.5 c 128,-1,40
 320 592 320 592 266 592 c 0,41,42
 172 592 172 592 104 538 c 1,43,-1
 25 621 l 1,44,45
 127 711 127 711 283 711 c 0,46,47
 360 711 360 711 418.5 687.5 c 128,-1,48
 477 664 477 664 509 622 c 128,-1,49
 541 580 541 580 541 526 c 0,50,51
 541 463 541 463 500.5 423.5 c 128,-1,52
 460 384 460 384 384 369 c 1,53,54
 467 361 467 361 514.5 317 c 128,-1,55
 562 273 562 273 562 198 c 0,56,0
 562 109 562 109 497.5 52 c 128,-1,1
EndSplineSet
Colour: ff0000
EndChar
StartChar: uni0499
Encoding: 1177 1177 485
Width: 600
Flags: W
LayerCount: 2
Fore
SplineSet
478.5 39.5 m 128,-1,1
 421 -4 421 -4 325 -14 c 1,2,-1
 325 -48 l 1,3,4
 376 -54 376 -54 402 -80 c 128,-1,5
 428 -106 428 -106 428 -147 c 0,6,7
 428 -198 428 -198 387 -230 c 128,-1,8
 346 -262 346 -262 279 -262 c 0,9,10
 245 -262 245 -262 214.5 -253.5 c 128,-1,11
 184 -245 184 -245 162 -232 c 1,12,-1
 198 -159 l 1,13,14
 232 -176 232 -176 262 -176 c 0,15,16
 315 -176 315 -176 315 -145 c 0,17,18
 315 -126 315 -126 293 -119 c 128,-1,19
 271 -112 271 -112 223 -112 c 1,20,-1
 234 -16 l 1,21,22
 107 -9 107 -9 26 53 c 1,23,-1
 94 144 l 1,24,25
 136 119 136 119 177 107.5 c 128,-1,26
 218 96 218 96 266 96 c 0,27,28
 319 96 319 96 345.5 113.5 c 128,-1,29
 372 131 372 131 372 162 c 0,30,31
 372 191 372 191 347.5 207 c 128,-1,32
 323 223 323 223 275 223 c 2,33,-1
 160 223 l 1,34,-1
 169 324 l 1,35,-1
 265 324 l 2,36,37
 306 324 306 324 328 339.5 c 128,-1,38
 350 355 350 355 350 383 c 256,39,40
 350 411 350 411 327 425 c 128,-1,41
 304 439 304 439 261 439 c 0,42,43
 220 439 220 439 181.5 429 c 128,-1,44
 143 419 143 419 111 400 c 1,45,-1
 43 484 l 1,46,47
 89 516 89 516 147.5 532.5 c 128,-1,48
 206 549 206 549 271 549 c 0,49,50
 377 549 377 549 443 510 c 128,-1,51
 509 471 509 471 509 401 c 0,52,53
 509 314 509 314 382 281 c 1,54,55
 458 272 458 272 497 242 c 128,-1,56
 536 212 536 212 536 154 c 0,57,0
 536 83 536 83 478.5 39.5 c 128,-1,1
EndSplineSet
Colour: ff0000
EndChar
StartChar: uni049C
Encoding: 1180 1180 350
Width: 600
Flags: W
LayerCount: 2
Fore
SplineSet
236 309 m 1,0,-1
 200 309 l 1,1,-1
 200 0 l 1,2,-1
 52 0 l 1,3,-1
 52 693 l 1,4,-1
 200 693 l 1,5,-1
 200 413 l 1,6,-1
 236 413 l 1,7,-1
 236 573 l 1,8,-1
 291 573 l 1,9,-1
 291 413 l 1,10,-1
 307 413 l 1,11,-1
 427 693 l 1,12,-1
 585 693 l 1,13,-1
 429 379 l 1,14,-1
 604 0 l 1,15,-1
 432 0 l 1,16,-1
 310 309 l 1,17,-1
 291 309 l 1,18,-1
 291 147 l 1,19,-1
 236 147 l 1,20,-1
 236 309 l 1,0,-1
EndSplineSet
Colour: ff0000
EndChar
StartChar: uni049D
Encoding: 1181 1181 487
Width: 600
Flags: W
LayerCount: 2
Fore
SplineSet
73 531 m 1,0,-1
 222 531 l 1,1,-1
 222 318 l 1,2,-1
 256 318 l 1,3,-1
 256 433 l 1,4,-1
 308 433 l 1,5,-1
 308 318 l 1,6,-1
 327 318 l 1,7,-1
 420 531 l 1,8,-1
 572 531 l 1,9,-1
 450 285 l 1,10,-1
 587 0 l 1,11,-1
 422 0 l 1,12,-1
 327 234 l 1,13,-1
 308 234 l 1,14,-1
 308 117 l 1,15,-1
 256 117 l 1,16,-1
 256 234 l 1,17,-1
 222 234 l 1,18,-1
 222 0 l 1,19,-1
 73 0 l 1,20,-1
 73 531 l 1,0,-1
EndSplineSet
Colour: ff0000
EndChar
StartChar: uni049E
Encoding: 1182 1182 351
Width: 600
Flags: W
LayerCount: 2
Fore
SplineSet
603 0 m 1,0,-1
 424 0 l 1,1,-1
 294 302 l 1,2,-1
 231 302 l 1,3,-1
 231 0 l 1,4,-1
 67 0 l 1,5,-1
 67 534 l 1,6,-1
 10 534 l 1,7,-1
 10 629 l 1,8,-1
 67 629 l 1,9,-1
 67 693 l 1,10,-1
 231 693 l 1,11,-1
 231 629 l 1,12,-1
 315 629 l 1,13,-1
 315 534 l 1,14,-1
 231 534 l 1,15,-1
 231 420 l 1,16,-1
 292 420 l 1,17,-1
 425 693 l 1,18,-1
 584 693 l 1,19,-1
 428 379 l 1,20,-1
 603 0 l 1,0,-1
EndSplineSet
Colour: ff0000
EndChar
StartChar: uni04A0
Encoding: 1184 1184 352
Width: 600
Flags: W
LayerCount: 2
Fore
SplineSet
246 305 m 1,0,-1
 246 0 l 1,1,-1
 94 0 l 1,2,-1
 94 573 l 1,3,-1
 0 573 l 1,4,-1
 0 693 l 1,5,-1
 246 693 l 1,6,-1
 246 418 l 1,7,-1
 302 418 l 1,8,-1
 431 693 l 1,9,-1
 587 693 l 1,10,-1
 430 379 l 1,11,-1
 605 0 l 1,12,-1
 432 0 l 1,13,-1
 304 305 l 1,14,-1
 246 305 l 1,0,-1
EndSplineSet
Colour: ff0000
EndChar
StartChar: uni04A1
Encoding: 1185 1185 489
Width: 600
Flags: W
LayerCount: 2
Fore
SplineSet
600 0 m 1,0,-1
 432 0 l 1,1,-1
 323 224 l 1,2,-1
 263 224 l 1,3,-1
 263 0 l 1,4,-1
 105 0 l 1,5,-1
 105 418 l 1,6,-1
 0 418 l 1,7,-1
 0 531 l 1,8,-1
 263 531 l 1,9,-1
 263 329 l 1,10,-1
 327 329 l 1,11,-1
 432 531 l 1,12,-1
 585 531 l 1,13,-1
 448 285 l 1,14,-1
 600 0 l 1,0,-1
EndSplineSet
Colour: ff0000
EndChar
StartChar: uni04A2
Encoding: 1186 1186 353
Width: 600
Flags: W
LayerCount: 2
Fore
SplineSet
596 122 m 1,0,-1
 596 -174 l 1,1,-1
 471 -174 l 1,2,-1
 451 0 l 1,3,-1
 384 0 l 1,4,-1
 384 292 l 1,5,-1
 216 292 l 1,6,-1
 216 0 l 1,7,-1
 52 0 l 1,8,-1
 52 693 l 1,9,-1
 216 693 l 1,10,-1
 216 427 l 1,11,-1
 384 427 l 1,12,-1
 384 693 l 1,13,-1
 548 693 l 1,14,-1
 548 122 l 1,15,-1
 596 122 l 1,0,-1
EndSplineSet
Colour: ff0000
EndChar
StartChar: uni04A3
Encoding: 1187 1187 490
Width: 600
Flags: W
LayerCount: 2
Fore
SplineSet
581 117 m 1,0,-1
 581 -174 l 1,1,-1
 462 -174 l 1,2,-1
 442 0 l 1,3,-1
 352 0 l 1,4,-1
 352 212 l 1,5,-1
 208 212 l 1,6,-1
 208 0 l 1,7,-1
 50 0 l 1,8,-1
 50 531 l 1,9,-1
 208 531 l 1,10,-1
 208 328 l 1,11,-1
 352 328 l 1,12,-1
 352 531 l 1,13,-1
 510 531 l 1,14,-1
 510 117 l 1,15,-1
 581 117 l 1,0,-1
EndSplineSet
Colour: ff0000
EndChar
StartChar: uni04A5
Encoding: 1189 1189 561
Width: 600
Flags: W
LayerCount: 2
Fore
SplineSet
584 413 m 1,0,-1
 474 413 l 1,1,-1
 474 0 l 1,2,-1
 316 0 l 1,3,-1
 316 212 l 1,4,-1
 201 212 l 1,5,-1
 201 0 l 1,6,-1
 43 0 l 1,7,-1
 43 531 l 1,8,-1
 201 531 l 1,9,-1
 201 328 l 1,10,-1
 316 328 l 1,11,-1
 316 531 l 1,12,-1
 608 531 l 1,13,-1
 584 413 l 1,0,-1
EndSplineSet
Colour: ff0000
EndChar
StartChar: uni04A6
Encoding: 1190 1190 354
Width: 600
Flags: W
LayerCount: 2
Fore
SplineSet
550 420 m 128,-1,1
 583 379 583 379 583 312 c 2,2,-1
 583 -45 l 2,3,4
 583 -128 583 -128 536 -177.5 c 128,-1,5
 489 -227 489 -227 412 -227 c 0,6,7
 369 -227 369 -227 337 -215.5 c 128,-1,8
 305 -204 305 -204 277 -182 c 1,9,-1
 332 -101 l 1,10,11
 362 -122 362 -122 396 -122 c 0,12,13
 449 -122 449 -122 449 -55 c 2,14,-1
 449 301 l 2,15,16
 449 325 449 325 439 338.5 c 128,-1,17
 429 352 429 352 411 352 c 0,18,19
 390 352 390 352 370 335 c 1,20,-1
 370 0 l 1,21,-1
 236 0 l 1,22,-1
 236 584 l 1,23,-1
 158 584 l 1,24,-1
 158 0 l 1,25,-1
 23 0 l 1,26,-1
 23 693 l 1,27,-1
 370 693 l 1,28,-1
 370 428 l 1,29,30
 408 461 408 461 459 461 c 0,31,0
 517 461 517 461 550 420 c 128,-1,1
EndSplineSet
Colour: ff0000
EndChar
StartChar: uni04A7
Encoding: 1191 1191 492
Width: 600
Flags: W
LayerCount: 2
Fore
SplineSet
568.5 304 m 128,-1,1
 605 262 605 262 605 189 c 2,2,-1
 605 -36 l 2,3,4
 605 -126 605 -126 557 -176.5 c 128,-1,5
 509 -227 509 -227 430 -227 c 0,6,7
 389 -227 389 -227 358 -215.5 c 128,-1,8
 327 -204 327 -204 298 -182 c 1,9,-1
 353 -101 l 1,10,11
 371 -112 371 -112 384 -116.5 c 128,-1,12
 397 -121 397 -121 418 -121 c 0,13,14
 441 -121 441 -121 454 -106 c 128,-1,15
 467 -91 467 -91 467 -60 c 2,16,-1
 467 189 l 2,17,18
 467 237 467 237 427 237 c 0,19,20
 404 237 404 237 382 223 c 1,21,-1
 382 0 l 1,22,-1
 245 0 l 1,23,-1
 245 421 l 1,24,-1
 156 421 l 1,25,-1
 156 0 l 1,26,-1
 18 0 l 1,27,-1
 18 531 l 1,28,-1
 382 531 l 1,29,-1
 382 317 l 1,30,31
 422 346 422 346 474 346 c 0,32,0
 532 346 532 346 568.5 304 c 128,-1,1
EndSplineSet
Colour: ff0000
EndChar
StartChar: uni04A9
Encoding: 1193 1193 493
Width: 600
Flags: W
LayerCount: 2
Fore
SplineSet
548 109 m 128,-1,1
 521 59 521 59 471 26 c 1,2,3
 506 -25 506 -25 559 -92 c 1,4,-1
 492 -148 l 1,5,6
 428 -72 428 -72 384 -10 c 1,7,8
 349 -17 349 -17 318 -17 c 0,9,10
 234 -17 234 -17 172 18 c 128,-1,11
 110 53 110 53 77 116 c 128,-1,12
 44 179 44 179 44 262 c 256,13,14
 44 345 44 345 78 410 c 128,-1,15
 112 475 112 475 174.5 512 c 128,-1,16
 237 549 237 549 319 549 c 0,17,18
 391 549 391 549 451 516 c 1,19,-1
 399 408 l 1,20,21
 363 427 363 427 326 427 c 0,22,23
 271 427 271 427 239 387.5 c 128,-1,24
 207 348 207 348 207 262 c 0,25,26
 207 184 207 184 235 148 c 128,-1,27
 263 112 263 112 314 108 c 1,28,29
 286 168 286 168 286 217 c 0,30,31
 286 281 286 281 324.5 317.5 c 128,-1,32
 363 354 363 354 430 354 c 0,33,34
 495 354 495 354 535 317.5 c 128,-1,35
 575 281 575 281 575 211 c 0,36,0
 575 159 575 159 548 109 c 128,-1,1
403.5 253 m 128,-1,38
 395 241 395 241 395 220 c 0,39,40
 395 175 395 175 414 129 c 1,41,42
 437 143 437 143 449 167 c 128,-1,43
 461 191 461 191 461 221 c 0,44,45
 461 265 461 265 428 265 c 0,46,37
 412 265 412 265 403.5 253 c 128,-1,38
EndSplineSet
Colour: ff0000
EndChar
StartChar: uni04AA
Encoding: 1194 1194 357
Width: 600
Flags: W
LayerCount: 2
Fore
SplineSet
483 -136 m 0,1,2
 483 -192 483 -192 442 -225 c 128,-1,3
 401 -258 401 -258 330 -258 c 0,4,5
 272 -258 272 -258 225 -233 c 1,6,-1
 256 -154 l 1,7,8
 284 -168 284 -168 319 -168 c 0,9,10
 347 -168 347 -168 361 -154.5 c 128,-1,11
 375 -141 375 -141 375 -119 c 0,12,13
 375 -60 375 -60 305 -14 c 1,14,15
 181 3 181 3 107.5 96.5 c 128,-1,16
 34 190 34 190 34 348 c 0,17,18
 34 461 34 461 76 543 c 128,-1,19
 118 625 118 625 192 668 c 128,-1,20
 266 711 266 711 358 711 c 0,21,22
 430 711 430 711 482 692 c 128,-1,23
 534 673 534 673 580 635 c 1,24,-1
 500 538 l 1,25,26
 437 589 437 589 362 589 c 0,27,28
 291 589 291 589 247.5 529 c 128,-1,29
 204 469 204 469 204 348 c 256,30,31
 204 227 204 227 247 168.5 c 128,-1,32
 290 110 290 110 365 110 c 0,33,34
 411 110 411 110 444 126 c 128,-1,35
 477 142 477 142 515 172 c 1,36,-1
 589 77 l 1,37,38
 514 1 514 1 406 -14 c 1,39,0
 483 -60 483 -60 483 -136 c 0,1,2
EndSplineSet
Colour: ff0000
EndChar
StartChar: uni04AB
Encoding: 1195 1195 494
Width: 600
Flags: W
LayerCount: 2
Fore
SplineSet
450.5 -65 m 128,-1,1
 470 -95 470 -95 470 -136 c 0,2,3
 470 -192 470 -192 429 -225 c 128,-1,4
 388 -258 388 -258 317 -258 c 0,5,6
 259 -258 259 -258 212 -233 c 1,7,-1
 243 -154 l 1,8,9
 271 -168 271 -168 306 -168 c 0,10,11
 334 -168 334 -168 348 -154.5 c 128,-1,12
 362 -141 362 -141 362 -119 c 0,13,14
 362 -60 362 -60 291 -13 c 1,15,16
 187 2 187 2 128 75.5 c 128,-1,17
 69 149 69 149 69 262 c 0,18,19
 69 345 69 345 103 410 c 128,-1,20
 137 475 137 475 199.5 512 c 128,-1,21
 262 549 262 549 346 549 c 0,22,23
 405 549 405 549 452 532.5 c 128,-1,24
 499 516 499 516 540 482 c 1,25,-1
 472 387 l 1,26,27
 414 427 414 427 353 427 c 0,28,29
 234 427 234 427 234 262 c 0,30,31
 234 179 234 179 265 143.5 c 128,-1,32
 296 108 296 108 352 108 c 0,33,34
 382 108 382 108 410 119.5 c 128,-1,35
 438 131 438 131 470 153 c 1,36,-1
 540 53 l 1,37,38
 479 0 479 0 392 -13 c 1,39,0
 431 -35 431 -35 450.5 -65 c 128,-1,1
EndSplineSet
Colour: ff0000
EndChar
StartChar: uni04AD
Encoding: 1197 1197 495
Width: 600
Flags: W
LayerCount: 2
Fore
SplineSet
379 414 m 1,0,-1
 379 117 l 1,1,-1
 449 117 l 1,2,-1
 449 -174 l 1,3,-1
 330 -174 l 1,4,-1
 311 0 l 1,5,-1
 221 0 l 1,6,-1
 221 414 l 1,7,-1
 43 414 l 1,8,-1
 43 531 l 1,9,-1
 563 531 l 1,10,-1
 545 414 l 1,11,-1
 379 414 l 1,0,-1
EndSplineSet
Colour: ff0000
EndChar
StartChar: uni04B4
Encoding: 1204 1204 562
Width: 600
Flags: W
LayerCount: 2
Fore
SplineSet
566 122 m 1,0,-1
 566 -174 l 1,1,-1
 460 -174 l 1,2,-1
 440 0 l 1,3,-1
 91 0 l 1,4,-1
 91 587 l 1,5,-1
 0 587 l 1,6,-1
 0 693 l 1,7,-1
 328 693 l 1,8,-1
 313 587 l 1,9,-1
 236 587 l 1,10,-1
 236 128 l 1,11,-1
 373 128 l 1,12,-1
 373 693 l 1,13,-1
 518 693 l 1,14,-1
 518 122 l 1,15,-1
 566 122 l 1,0,-1
EndSplineSet
Colour: ff0000
EndChar
StartChar: uni04B6
Encoding: 1206 1206 362
Width: 600
Flags: W
LayerCount: 2
Fore
SplineSet
596 122 m 1,0,-1
 596 -174 l 1,1,-1
 471 -174 l 1,2,-1
 451 0 l 1,3,-1
 384 0 l 1,4,-1
 384 243 l 1,5,6
 323 198 323 198 240 198 c 0,7,8
 138 198 138 198 81.5 258.5 c 128,-1,9
 25 319 25 319 25 434 c 2,10,-1
 25 693 l 1,11,-1
 189 693 l 1,12,-1
 189 439 l 2,13,14
 189 374 189 374 211.5 346.5 c 128,-1,15
 234 319 234 319 286 319 c 0,16,17
 344 319 344 319 384 355 c 1,18,-1
 384 693 l 1,19,-1
 548 693 l 1,20,-1
 548 122 l 1,21,-1
 596 122 l 1,0,-1
EndSplineSet
Colour: ff0000
EndChar
StartChar: uni04B9
Encoding: 1209 1209 500
Width: 600
Flags: W
LayerCount: 2
Fore
SplineSet
526 531 m 1,0,-1
 526 0 l 1,1,-1
 368 0 l 1,2,-1
 368 198 l 1,3,4
 343 178 343 178 314 166 c 1,5,-1
 314 81 l 1,6,-1
 254 81 l 1,7,-1
 254 151 l 1,8,9
 236 148 236 148 216 148 c 0,10,11
 135 148 135 148 91.5 192 c 128,-1,12
 48 236 48 236 48 313 c 2,13,-1
 48 531 l 1,14,-1
 206 531 l 1,15,-1
 206 333 l 2,16,17
 206 275 206 275 254 267 c 1,18,-1
 254 400 l 1,19,-1
 314 400 l 1,20,-1
 314 271 l 1,21,22
 345 280 345 280 368 300 c 1,23,-1
 368 531 l 1,24,-1
 526 531 l 1,0,-1
EndSplineSet
Colour: ff0000
EndChar
StartChar: uni04BA
Encoding: 1210 1210 364
Width: 600
Flags: W
LayerCount: 2
Fore
SplineSet
521.5 409 m 128,-1,1
 575 348 575 348 575 231 c 2,2,-1
 575 0 l 1,3,-1
 411 0 l 1,4,-1
 411 230 l 2,5,6
 411 295 411 295 389.5 322 c 128,-1,7
 368 349 368 349 317 349 c 0,8,9
 256 349 256 349 216 311 c 1,10,-1
 216 0 l 1,11,-1
 52 0 l 1,12,-1
 52 693 l 1,13,-1
 216 693 l 1,14,-1
 216 420 l 1,15,16
 279 470 279 470 363 470 c 0,17,0
 468 470 468 470 521.5 409 c 128,-1,1
EndSplineSet
Colour: ff0000
EndChar
StartChar: uni04BC
Encoding: 1212 1212 366
Width: 600
Flags: W
LayerCount: 2
Fore
SplineSet
571 286 m 1,1,-1
 282 286 l 1,2,3
 283 183 283 183 308.5 138 c 128,-1,4
 334 93 334 93 383 93 c 0,5,6
 411 93 411 93 435 104 c 128,-1,7
 459 115 459 115 489 136 c 1,8,-1
 548 57 l 1,9,10
 510 21 510 21 465.5 2 c 128,-1,11
 421 -17 421 -17 374 -17 c 0,12,13
 263 -17 263 -17 205.5 60 c 128,-1,14
 148 137 148 137 140 290 c 1,15,16
 71 290 71 290 33 330.5 c 128,-1,17
 -5 371 -5 371 -5 437 c 0,18,19
 -5 468 -5 468 2 491.5 c 128,-1,20
 9 515 9 515 23 539 c 1,21,-1
 109 505 l 1,22,23
 108 502 108 502 101.5 484.5 c 128,-1,24
 95 467 95 467 95 445 c 0,25,26
 95 419 95 419 106 406 c 128,-1,27
 117 393 117 393 140 392 c 1,28,29
 148 547 148 547 205.5 629 c 128,-1,30
 263 711 263 711 365 711 c 0,31,32
 576 711 576 711 576 357 c 0,33,0
 576 319 576 319 571 286 c 1,1,-1
420.5 556 m 128,-1,35
 403 602 403 602 365 602 c 0,36,37
 324 602 324 602 304.5 556 c 128,-1,38
 285 510 285 510 282 392 c 1,39,-1
 436 392 l 1,40,34
 438 510 438 510 420.5 556 c 128,-1,35
EndSplineSet
Colour: ff0000
EndChar
StartChar: uni04BD
Encoding: 1213 1213 503
Width: 600
Flags: W
LayerCount: 2
Fore
SplineSet
572 219 m 1,1,-1
 294 219 l 1,2,3
 298 92 298 92 393 92 c 0,4,5
 426 92 426 92 451 101.5 c 128,-1,6
 476 111 476 111 501 128 c 1,7,-1
 562 50 l 1,8,9
 485 -17 485 -17 388 -17 c 0,10,11
 279 -17 279 -17 220.5 45.5 c 128,-1,12
 162 108 162 108 153 218 c 1,13,14
 84 219 84 219 44.5 255 c 128,-1,15
 5 291 5 291 5 356 c 0,16,17
 5 384 5 384 13 406.5 c 128,-1,18
 21 429 21 429 35 452 c 1,19,-1
 119 418 l 1,20,21
 105 384 105 384 105 358 c 0,22,23
 105 315 105 315 153 315 c 1,24,25
 165 420 165 420 220.5 484.5 c 128,-1,26
 276 549 276 549 368 549 c 0,27,28
 469 549 469 549 522 477.5 c 128,-1,29
 575 406 575 406 575 276 c 0,30,0
 575 243 575 243 572 219 c 1,1,-1
434 315 m 1,31,32
 433 380 433 380 417.5 413 c 128,-1,33
 402 446 402 446 367 446 c 256,34,35
 332 446 332 446 313.5 414.5 c 128,-1,36
 295 383 295 383 292 315 c 1,37,-1
 434 315 l 1,31,32
EndSplineSet
Colour: ff0000
EndChar
StartChar: uni04C3
Encoding: 1219 1219 370
Width: 600
Flags: W
LayerCount: 2
Fore
SplineSet
533.5 341 m 128,-1,1
 568 292 568 292 568 202 c 2,2,-1
 568 -26 l 2,3,4
 568 -123 568 -123 515.5 -175 c 128,-1,5
 463 -227 463 -227 368 -227 c 0,6,7
 325 -227 325 -227 293 -215.5 c 128,-1,8
 261 -204 261 -204 232 -182 c 1,9,-1
 292 -90 l 1,10,11
 312 -99 312 -99 323.5 -103 c 128,-1,12
 335 -107 335 -107 352 -107 c 0,13,14
 378 -107 378 -107 391 -91.5 c 128,-1,15
 404 -76 404 -76 404 -40 c 2,16,-1
 404 200 l 2,17,18
 404 247 404 247 385 269.5 c 128,-1,19
 366 292 366 292 324 292 c 2,20,-1
 216 292 l 1,21,-1
 216 0 l 1,22,-1
 52 0 l 1,23,-1
 52 693 l 1,24,-1
 216 693 l 1,25,-1
 216 410 l 1,26,-1
 281 410 l 1,27,-1
 429 693 l 1,28,-1
 589 693 l 1,29,-1
 428 404 l 1,30,0
 499 390 499 390 533.5 341 c 128,-1,1
EndSplineSet
Colour: ff0000
EndChar
StartChar: uni04C4
Encoding: 1220 1220 507
Width: 600
Flags: W
LayerCount: 2
Fore
SplineSet
544 -26 m 2,0,1
 544 -124 544 -124 493.5 -175.5 c 128,-1,2
 443 -227 443 -227 349 -227 c 0,3,4
 306 -227 306 -227 274 -215.5 c 128,-1,5
 242 -204 242 -204 213 -182 c 1,6,-1
 274 -93 l 1,7,8
 292 -102 292 -102 304 -106 c 128,-1,9
 316 -110 316 -110 333 -110 c 0,10,11
 386 -110 386 -110 386 -43 c 2,12,-1
 386 153 l 2,13,14
 386 208 386 208 330 208 c 2,15,-1
 228 208 l 1,16,-1
 228 0 l 1,17,-1
 70 0 l 1,18,-1
 70 531 l 1,19,-1
 228 531 l 1,20,-1
 228 313 l 1,21,-1
 290 313 l 1,22,-1
 409 531 l 1,23,-1
 558 531 l 1,24,-1
 429 302 l 1,25,26
 484 292 484 292 514 251.5 c 128,-1,27
 544 211 544 211 544 146 c 2,28,-1
 544 -26 l 2,0,1
EndSplineSet
Colour: ff0000
EndChar
StartChar: uni04C6
Encoding: 1222 1222 508
Width: 600
Flags: W
LayerCount: 2
Fore
SplineSet
591 140 m 1,0,-1
 492 -174 l 1,1,-1
 364 -174 l 1,2,-1
 403 0 l 1,3,-1
 334 0 l 1,4,-1
 334 415 l 1,5,-1
 250 415 l 1,6,-1
 247 350 l 2,7,8
 241 227 241 227 224 158.5 c 128,-1,9
 207 90 207 90 173 51 c 128,-1,10
 139 12 139 12 74 -20 c 1,11,-1
 8 80 l 1,12,13
 36 100 36 100 52 124.5 c 128,-1,14
 68 149 68 149 79 199 c 128,-1,15
 90 249 90 249 97 344 c 2,16,-1
 111 531 l 1,17,-1
 492 531 l 1,18,-1
 492 140 l 1,19,-1
 591 140 l 1,0,-1
EndSplineSet
Colour: ff0000
EndChar
StartChar: uni04C7
Encoding: 1223 1223 372
Width: 600
Flags: W
LayerCount: 2
Fore
SplineSet
548 -26 m 2,0,1
 548 -123 548 -123 495.5 -175 c 128,-1,2
 443 -227 443 -227 348 -227 c 0,3,4
 305 -227 305 -227 273 -215.5 c 128,-1,5
 241 -204 241 -204 212 -182 c 1,6,-1
 272 -90 l 1,7,8
 292 -99 292 -99 303.5 -103 c 128,-1,9
 315 -107 315 -107 332 -107 c 0,10,11
 358 -107 358 -107 371 -91.5 c 128,-1,12
 384 -76 384 -76 384 -40 c 2,13,-1
 384 292 l 1,14,-1
 216 292 l 1,15,-1
 216 0 l 1,16,-1
 52 0 l 1,17,-1
 52 693 l 1,18,-1
 216 693 l 1,19,-1
 216 427 l 1,20,-1
 384 427 l 1,21,-1
 384 693 l 1,22,-1
 548 693 l 1,23,-1
 548 -26 l 2,0,1
EndSplineSet
Colour: ff0000
EndChar
StartChar: uni04C8
Encoding: 1224 1224 509
Width: 600
Flags: W
LayerCount: 2
Fore
SplineSet
530 -26 m 2,0,1
 530 -124 530 -124 479.5 -175.5 c 128,-1,2
 429 -227 429 -227 336 -227 c 0,3,4
 293 -227 293 -227 261 -215.5 c 128,-1,5
 229 -204 229 -204 200 -182 c 1,6,-1
 260 -93 l 1,7,8
 280 -102 280 -102 291.5 -106 c 128,-1,9
 303 -110 303 -110 320 -110 c 0,10,11
 346 -110 346 -110 359 -94.5 c 128,-1,12
 372 -79 372 -79 372 -43 c 2,13,-1
 372 212 l 1,14,-1
 228 212 l 1,15,-1
 228 0 l 1,16,-1
 70 0 l 1,17,-1
 70 531 l 1,18,-1
 228 531 l 1,19,-1
 228 328 l 1,20,-1
 372 328 l 1,21,-1
 372 531 l 1,22,-1
 530 531 l 1,23,-1
 530 -26 l 2,0,1
EndSplineSet
Colour: ff0000
EndChar
StartChar: uni04C9
Encoding: 1225 1225 373
Width: 600
Flags: W
LayerCount: 2
Fore
SplineSet
599 152 m 1,0,-1
 500 -174 l 1,1,-1
 365 -174 l 1,2,-1
 405 0 l 1,3,-1
 345 0 l 1,4,-1
 345 290 l 1,5,-1
 207 290 l 1,6,-1
 207 0 l 1,7,-1
 43 0 l 1,8,-1
 43 693 l 1,9,-1
 207 693 l 1,10,-1
 207 429 l 1,11,-1
 345 429 l 1,12,-1
 345 693 l 1,13,-1
 509 693 l 1,14,-1
 509 152 l 1,15,-1
 599 152 l 1,0,-1
EndSplineSet
Colour: ff0000
EndChar
StartChar: uni04CA
Encoding: 1226 1226 510
Width: 600
Flags: W
LayerCount: 2
Fore
SplineSet
595 140 m 1,0,-1
 496 -174 l 1,1,-1
 368 -174 l 1,2,-1
 407 0 l 1,3,-1
 339 0 l 1,4,-1
 339 212 l 1,5,-1
 224 212 l 1,6,-1
 224 0 l 1,7,-1
 66 0 l 1,8,-1
 66 531 l 1,9,-1
 224 531 l 1,10,-1
 224 328 l 1,11,-1
 339 328 l 1,12,-1
 339 531 l 1,13,-1
 497 531 l 1,14,-1
 497 140 l 1,15,-1
 595 140 l 1,0,-1
EndSplineSet
Colour: ff0000
EndChar
StartChar: uni04CB
Encoding: 1227 1227 374
Width: 600
Flags: W
LayerCount: 2
Fore
SplineSet
548 693 m 1,0,-1
 548 0 l 1,1,-1
 465 0 l 1,2,-1
 445 -174 l 1,3,-1
 320 -174 l 1,4,-1
 320 122 l 1,5,-1
 384 122 l 1,6,-1
 384 243 l 1,7,8
 323 198 323 198 240 198 c 0,9,10
 138 198 138 198 81.5 258.5 c 128,-1,11
 25 319 25 319 25 434 c 2,12,-1
 25 693 l 1,13,-1
 189 693 l 1,14,-1
 189 439 l 2,15,16
 189 374 189 374 211.5 346.5 c 128,-1,17
 234 319 234 319 286 319 c 0,18,19
 344 319 344 319 384 355 c 1,20,-1
 384 693 l 1,21,-1
 548 693 l 1,0,-1
EndSplineSet
Colour: ff0000
EndChar
StartChar: uni04CC
Encoding: 1228 1228 511
Width: 600
Flags: W
LayerCount: 2
Fore
SplineSet
526 531 m 1,0,-1
 526 0 l 1,1,-1
 431 0 l 1,2,-1
 411 -174 l 1,3,-1
 292 -174 l 1,4,-1
 292 117 l 1,5,-1
 368 117 l 1,6,-1
 368 227 l 1,7,8
 308 178 308 178 216 178 c 0,9,10
 135 178 135 178 91.5 222 c 128,-1,11
 48 266 48 266 48 343 c 2,12,-1
 48 531 l 1,13,-1
 206 531 l 1,14,-1
 206 362 l 2,15,16
 206 294 206 294 274 294 c 0,17,18
 299 294 299 294 324 303.5 c 128,-1,19
 349 313 349 313 368 329 c 1,20,-1
 368 531 l 1,21,-1
 526 531 l 1,0,-1
EndSplineSet
Colour: ff0000
EndChar
StartChar: uni04CD
Encoding: 1229 1229 375
Width: 600
Flags: W
LayerCount: 2
Fore
SplineSet
630 152 m 1,0,-1
 531 -174 l 1,1,-1
 415 -174 l 1,2,-1
 455 0 l 1,3,-1
 403 0 l 1,4,-1
 395 297 l 2,5,6
 394 319 394 319 394 358 c 0,7,8
 394 407 394 407 397 456 c 128,-1,9
 400 505 400 505 404 560 c 1,10,-1
 345 118 l 1,11,-1
 221 118 l 1,12,-1
 157 560 l 1,13,14
 168 437 168 437 168 347 c 1,15,-1
 167 294 l 1,16,-1
 161 0 l 1,17,-1
 21 0 l 1,18,-1
 60 693 l 1,19,-1
 229 693 l 1,20,-1
 286 245 l 1,21,-1
 339 693 l 1,22,-1
 508 693 l 1,23,-1
 538 152 l 1,24,-1
 630 152 l 1,0,-1
EndSplineSet
Colour: ff0000
EndChar
StartChar: uni04CE
Encoding: 1230 1230 512
Width: 600
Flags: W
LayerCount: 2
Fore
SplineSet
616 140 m 1,0,-1
 516 -174 l 1,1,-1
 408 -174 l 1,2,-1
 447 0 l 1,3,-1
 390 0 l 1,4,-1
 382 181 l 2,5,6
 378 267 378 267 375 404 c 1,7,-1
 328 84 l 1,8,-1
 214 84 l 1,9,-1
 162 404 l 1,10,11
 163 374 163 374 163 320 c 0,12,13
 163 249 163 249 160 175 c 2,14,-1
 153 0 l 1,15,-1
 21 0 l 1,16,-1
 56 531 l 1,17,-1
 226 531 l 1,18,-1
 273 204 l 1,19,-1
 309 531 l 1,20,-1
 489 531 l 1,21,-1
 516 140 l 1,22,-1
 616 140 l 1,0,-1
EndSplineSet
Colour: ff0000
EndChar
StartChar: uni04D9
Encoding: 1241 1241 516
Width: 600
Flags: W
LayerCount: 2
Fore
SplineSet
491 472.5 m 128,-1,1
 558 396 558 396 558 267 c 0,2,3
 558 187 558 187 527.5 122.5 c 128,-1,4
 497 58 497 58 438.5 20.5 c 128,-1,5
 380 -17 380 -17 298 -17 c 0,6,7
 179 -17 179 -17 110.5 55 c 128,-1,8
 42 127 42 127 42 256 c 0,9,10
 42 288 42 288 45 312 c 1,11,-1
 405 312 l 1,12,13
 402 375 402 375 371.5 406 c 128,-1,14
 341 437 341 437 286 437 c 0,15,16
 207 437 207 437 145 391 c 1,17,-1
 80 479 l 1,18,19
 167 549 167 549 293 549 c 0,20,0
 424 549 424 549 491 472.5 c 128,-1,1
375.5 124 m 128,-1,22
 402 153 402 153 405 217 c 1,23,-1
 190 217 l 1,24,-1
 190 212 l 1,25,26
 192 155 192 155 219 125 c 128,-1,27
 246 95 246 95 298 95 c 0,28,21
 349 95 349 95 375.5 124 c 128,-1,22
EndSplineSet
Colour: ff0000
EndChar
StartChar: uni04E0
Encoding: 1248 1248 383
Width: 600
Flags: W
LayerCount: 2
Fore
SplineSet
503 353.5 m 128,-1,1
 559 305 559 305 559 213 c 0,2,3
 559 148 559 148 525 95 c 128,-1,4
 491 42 491 42 428 11 c 128,-1,5
 365 -20 365 -20 281 -20 c 0,6,7
 198 -20 198 -20 144 3 c 128,-1,8
 90 26 90 26 41 70 c 1,9,-1
 117 157 l 1,10,11
 157 126 157 126 193 113 c 128,-1,12
 229 100 229 100 274 100 c 0,13,14
 327 100 327 100 358 127 c 128,-1,15
 389 154 389 154 389 211 c 0,16,17
 389 264 389 264 356 285.5 c 128,-1,18
 323 307 323 307 259 307 c 2,19,-1
 162 307 l 1,20,-1
 162 393 l 1,21,-1
 348 570 l 1,22,-1
 80 570 l 1,23,-1
 80 693 l 1,24,-1
 522 693 l 1,25,-1
 522 575 l 1,26,-1
 342 402 l 1,27,-1
 349 402 l 2,28,0
 447 402 447 402 503 353.5 c 128,-1,1
EndSplineSet
Colour: ff0000
EndChar
StartChar: uni04E1
Encoding: 1249 1249 520
Width: 600
Flags: W
LayerCount: 2
Fore
SplineSet
482 164.5 m 128,-1,1
 544 114 544 114 544 18 c 0,2,3
 544 -50 544 -50 510.5 -104.5 c 128,-1,4
 477 -159 477 -159 414.5 -190.5 c 128,-1,5
 352 -222 352 -222 270 -222 c 0,6,7
 189 -222 189 -222 136.5 -200 c 128,-1,8
 84 -178 84 -178 36 -136 c 1,9,-1
 111 -49 l 1,10,11
 146 -77 146 -77 180.5 -91 c 128,-1,12
 215 -105 215 -105 261 -105 c 0,13,14
 316 -105 316 -105 348 -76 c 128,-1,15
 380 -47 380 -47 380 9 c 256,16,17
 380 65 380 65 346.5 90 c 128,-1,18
 313 115 313 115 256 115 c 2,19,-1
 151 115 l 1,20,-1
 151 211 l 1,21,-1
 339 414 l 1,22,-1
 69 414 l 1,23,-1
 69 531 l 1,24,-1
 513 531 l 1,25,-1
 513 424 l 1,26,-1
 317 215 l 1,27,-1
 324 215 l 2,28,0
 420 215 420 215 482 164.5 c 128,-1,1
EndSplineSet
Colour: ff0000
EndChar
StartChar: uni04E8
Encoding: 1256 1256 387
Width: 600
Flags: W
LayerCount: 2
Fore
SplineSet
505.5 80.5 m 128,-1,1
 434 -17 434 -17 300 -17 c 0,2,3
 165 -17 165 -17 94 79.5 c 128,-1,4
 23 176 23 176 23 347 c 0,5,6
 23 516 23 516 94.5 613.5 c 128,-1,7
 166 711 166 711 300 711 c 0,8,9
 435 711 435 711 506 614.5 c 128,-1,10
 577 518 577 518 577 347 c 0,11,0
 577 178 577 178 505.5 80.5 c 128,-1,1
218.5 545.5 m 128,-1,13
 191 500 191 500 186 402 c 1,14,-1
 413 402 l 1,15,16
 408 500 408 500 381.5 545.5 c 128,-1,17
 355 591 355 591 300 591 c 0,18,12
 246 591 246 591 218.5 545.5 c 128,-1,13
383.5 151 m 128,-1,20
 410 199 410 199 414 301 c 1,21,-1
 186 301 l 1,22,23
 189 199 189 199 216.5 151 c 128,-1,24
 244 103 244 103 300 103 c 0,25,19
 357 103 357 103 383.5 151 c 128,-1,20
EndSplineSet
Colour: ff0000
EndChar
StartChar: uni04F7
Encoding: 1271 1271 531
Width: 600
Flags: W
LayerCount: 2
Fore
SplineSet
280 409 m 1,0,-1
 280 117 l 1,1,-1
 350 117 l 1,2,-1
 350 -174 l 1,3,-1
 231 -174 l 1,4,-1
 212 0 l 1,5,-1
 122 0 l 1,6,-1
 122 531 l 1,7,-1
 539 531 l 1,8,-1
 521 409 l 1,9,-1
 280 409 l 1,0,-1
EndSplineSet
Colour: ff0000
EndChar
StartChar: uni04FA
Encoding: 1274 1274 396
Width: 600
Flags: W
LayerCount: 2
Fore
SplineSet
323 564 m 1,0,-1
 323 433 l 1,1,-1
 466 433 l 1,2,-1
 466 335 l 1,3,-1
 323 335 l 1,4,-1
 323 122 l 1,5,-1
 397 122 l 1,6,-1
 397 -26 l 2,7,8
 397 -124 397 -124 344.5 -175.5 c 128,-1,9
 292 -227 292 -227 196 -227 c 0,10,11
 153 -227 153 -227 121.5 -215.5 c 128,-1,12
 90 -204 90 -204 61 -182 c 1,13,-1
 121 -90 l 1,14,15
 139 -99 139 -99 151.5 -103 c 128,-1,16
 164 -107 164 -107 181 -107 c 0,17,18
 207 -107 207 -107 220 -91.5 c 128,-1,19
 233 -76 233 -76 233 -40 c 2,20,-1
 233 0 l 1,21,-1
 159 0 l 1,22,-1
 159 335 l 1,23,-1
 82 335 l 1,24,-1
 82 433 l 1,25,-1
 159 433 l 1,26,-1
 159 693 l 1,27,-1
 628 693 l 1,28,-1
 612 564 l 1,29,-1
 323 564 l 1,0,-1
EndSplineSet
Colour: ff0000
EndChar
StartChar: uni04FB
Encoding: 1275 1275 533
Width: 600
Flags: W
LayerCount: 2
Fore
SplineSet
306 409 m 1,0,-1
 306 312 l 1,1,-1
 422 312 l 1,2,-1
 422 213 l 1,3,-1
 306 213 l 1,4,-1
 306 117 l 1,5,-1
 374 117 l 1,6,-1
 374 -26 l 2,7,8
 374 -124 374 -124 323.5 -175.5 c 128,-1,9
 273 -227 273 -227 180 -227 c 0,10,11
 137 -227 137 -227 105 -215.5 c 128,-1,12
 73 -204 73 -204 44 -182 c 1,13,-1
 105 -93 l 1,14,15
 123 -102 123 -102 135 -106 c 128,-1,16
 147 -110 147 -110 164 -110 c 0,17,18
 190 -110 190 -110 203 -94.5 c 128,-1,19
 216 -79 216 -79 216 -43 c 2,20,-1
 216 0 l 1,21,-1
 148 0 l 1,22,-1
 148 213 l 1,23,-1
 73 213 l 1,24,-1
 73 312 l 1,25,-1
 148 312 l 1,26,-1
 148 531 l 1,27,-1
 565 531 l 1,28,-1
 547 409 l 1,29,-1
 306 409 l 1,0,-1
EndSplineSet
Colour: ff0000
EndChar
StartChar: uni04FC
Encoding: 1276 1276 397
Width: 600
Flags: W
LayerCount: 2
Fore
SplineSet
609 -26 m 2,0,1
 609 -124 609 -124 557 -175.5 c 128,-1,2
 505 -227 505 -227 409 -227 c 0,3,4
 366 -227 366 -227 334 -215.5 c 128,-1,5
 302 -204 302 -204 273 -182 c 1,6,-1
 334 -90 l 1,7,8
 352 -99 352 -99 364 -103 c 128,-1,9
 376 -107 376 -107 393 -107 c 0,10,11
 419 -107 419 -107 432 -91.5 c 128,-1,12
 445 -76 445 -76 445 -40 c 2,13,-1
 445 0 l 1,14,-1
 416 0 l 1,15,-1
 294 264 l 1,16,-1
 173 0 l 1,17,-1
 -1 0 l 1,18,-1
 196 368 l 1,19,-1
 14 693 l 1,20,-1
 191 693 l 1,21,-1
 296 471 l 1,22,-1
 403 693 l 1,23,-1
 576 693 l 1,24,-1
 391 375 l 1,25,-1
 527 122 l 1,26,-1
 609 122 l 1,27,-1
 609 -26 l 2,0,1
EndSplineSet
Colour: ff0000
EndChar
StartChar: uni04FF
Encoding: 1279 1279 535
Width: 600
Flags: W
LayerCount: 2
Fore
SplineSet
578 0 m 1,0,-1
 399 0 l 1,1,-1
 298 209 l 1,2,-1
 193 0 l 1,3,-1
 22 0 l 1,4,-1
 181 244 l 1,5,-1
 71 244 l 1,6,-1
 71 330 l 1,7,-1
 171 330 l 1,8,-1
 39 531 l 1,9,-1
 214 531 l 1,10,-1
 298 348 l 1,11,-1
 385 531 l 1,12,-1
 551 531 l 1,13,-1
 423 330 l 1,14,-1
 529 330 l 1,15,-1
 529 244 l 1,16,-1
 421 244 l 1,17,-1
 578 0 l 1,0,-1
EndSplineSet
Colour: ff0000
EndChar
StartChar: uni0502
Encoding: 1282 1282 400
Width: 600
Flags: W
LayerCount: 2
Fore
SplineSet
583 246 m 0,1,2
 583 113 583 113 538 48 c 128,-1,3
 493 -17 493 -17 403 -17 c 0,4,5
 323 -17 323 -17 281 48 c 1,6,7
 259 17 259 17 232.5 1 c 128,-1,8
 206 -15 206 -15 170 -15 c 0,9,10
 126 -15 126 -15 90 10.5 c 128,-1,11
 54 36 54 36 32 87 c 128,-1,12
 10 138 10 138 10 209 c 0,13,14
 10 281 10 281 37 334 c 128,-1,15
 64 387 64 387 110.5 415 c 128,-1,16
 157 443 157 443 214 443 c 2,17,-1
 252 443 l 1,18,-1
 252 693 l 1,19,-1
 376 693 l 1,20,-1
 376 139 l 2,21,22
 376 114 376 114 385 102 c 128,-1,23
 394 90 394 90 408 90 c 0,24,25
 433 90 433 90 445 127.5 c 128,-1,26
 457 165 457 165 457 245 c 0,27,28
 457 312 457 312 452 379 c 1,29,-1
 577 379 l 1,30,0
 583 321 583 321 583 246 c 0,1,2
224.5 99.5 m 128,-1,32
 238 109 238 109 252 131 c 1,33,-1
 252 341 l 1,34,-1
 220 341 l 2,35,36
 178 341 178 341 156.5 310 c 128,-1,37
 135 279 135 279 135 210 c 0,38,39
 135 90 135 90 193 90 c 0,40,31
 211 90 211 90 224.5 99.5 c 128,-1,32
EndSplineSet
Colour: ff0000
EndChar
StartChar: uni0503
Encoding: 1283 1283 537
Width: 600
Flags: W
LayerCount: 2
Fore
SplineSet
603 256 m 0,1,2
 603 118 603 118 552 50.5 c 128,-1,3
 501 -17 501 -17 410 -17 c 0,4,5
 368 -17 368 -17 332.5 2 c 128,-1,6
 297 21 297 21 274 58 c 1,7,8
 254 21 254 21 229.5 2 c 128,-1,9
 205 -17 205 -17 168 -17 c 0,10,11
 90 -17 90 -17 45 58.5 c 128,-1,12
 0 134 0 134 0 267 c 0,13,14
 0 347 0 347 22.5 411.5 c 128,-1,15
 45 476 45 476 83 512.5 c 128,-1,16
 121 549 121 549 166 549 c 0,17,18
 214 549 214 549 243 515 c 1,19,-1
 243 757 l 1,20,-1
 381 742 l 1,21,-1
 381 142 l 2,22,23
 381 89 381 89 416 89 c 0,24,25
 440 89 440 89 452 128.5 c 128,-1,26
 464 168 464 168 464 255 c 0,27,28
 464 319 464 319 458 379 c 1,29,-1
 597 379 l 1,30,0
 603 321 603 321 603 256 c 0,1,2
219 100 m 128,-1,32
 230 111 230 111 243 135 c 1,33,-1
 243 417 l 1,34,35
 223 443 223 443 199 443 c 0,36,37
 172 443 172 443 158 401.5 c 128,-1,38
 144 360 144 360 144 266 c 0,39,40
 144 165 144 165 156.5 127 c 128,-1,41
 169 89 169 89 195 89 c 0,42,31
 208 89 208 89 219 100 c 128,-1,32
EndSplineSet
Colour: ff0000
EndChar
StartChar: uni0504
Encoding: 1284 1284 401
Width: 600
Flags: W
LayerCount: 2
Fore
SplineSet
584 256 m 0,1,2
 584 -17 584 -17 381 -17 c 0,3,4
 306 -17 306 -17 258.5 16 c 128,-1,5
 211 49 211 49 179 116 c 2,6,-1
 109 265 l 1,7,-1
 37 265 l 1,8,-1
 37 376 l 1,9,-1
 112 376 l 2,10,11
 167 376 167 376 194.5 401.5 c 128,-1,12
 222 427 222 427 222 482 c 0,13,14
 222 533 222 533 193 556.5 c 128,-1,15
 164 580 164 580 105 580 c 2,16,-1
 16 580 l 1,17,-1
 16 693 l 1,18,-1
 105 693 l 2,19,20
 248 693 248 693 319 641 c 128,-1,21
 390 589 390 589 390 482 c 0,22,23
 390 414 390 414 354.5 368 c 128,-1,24
 319 322 319 322 259 295 c 1,25,-1
 332 145 l 2,26,27
 342 123 342 123 353 114.5 c 128,-1,28
 364 106 364 106 380 106 c 0,29,30
 407 106 407 106 419.5 140 c 128,-1,31
 432 174 432 174 432 255 c 0,32,33
 432 312 432 312 427 379 c 1,34,-1
 578 379 l 1,35,0
 584 321 584 321 584 256 c 0,1,2
EndSplineSet
Colour: ff0000
EndChar
StartChar: uni0505
Encoding: 1285 1285 538
Width: 600
Flags: W
LayerCount: 2
Fore
SplineSet
583 256 m 0,1,2
 583 118 583 118 528.5 50.5 c 128,-1,3
 474 -17 474 -17 374 -17 c 0,4,5
 304 -17 304 -17 252.5 13.5 c 128,-1,6
 201 44 201 44 162 119 c 2,7,-1
 135 171 l 1,8,-1
 47 171 l 1,9,-1
 47 284 l 1,10,-1
 117 284 l 2,11,12
 201 284 201 284 201 354 c 0,13,14
 201 388 201 388 179.5 405 c 128,-1,15
 158 422 158 422 119 422 c 2,16,-1
 3 422 l 1,17,-1
 4 531 l 1,18,-1
 117 531 l 2,19,20
 239 531 239 531 301 485.5 c 128,-1,21
 363 440 363 440 363 357 c 0,22,23
 363 303 363 303 340.5 268.5 c 128,-1,24
 318 234 318 234 274 210 c 1,25,-1
 308 149 l 2,26,27
 338 95 338 95 376 95 c 0,28,29
 406 95 406 95 419 132 c 128,-1,30
 432 169 432 169 432 255 c 0,31,32
 432 319 432 319 426 379 c 1,33,-1
 577 379 l 1,34,0
 583 321 583 321 583 256 c 0,1,2
EndSplineSet
Colour: ff0000
EndChar
StartChar: uni0506
Encoding: 1286 1286 402
Width: 600
Flags: W
LayerCount: 2
Fore
SplineSet
566 122 m 1,0,-1
 566 -174 l 1,1,-1
 440 -174 l 1,2,-1
 420 0 l 1,3,-1
 369 0 l 1,4,-1
 219 265 l 1,5,-1
 87 265 l 1,6,-1
 87 378 l 1,7,-1
 234 378 l 2,8,9
 343 378 343 378 343 482 c 0,10,11
 343 532 343 532 314.5 555 c 128,-1,12
 286 578 286 578 227 578 c 2,13,-1
 57 578 l 1,14,-1
 57 693 l 1,15,-1
 226 693 l 2,16,17
 369 693 369 693 440.5 641 c 128,-1,18
 512 589 512 589 512 482 c 0,19,20
 512 412 512 412 474 364.5 c 128,-1,21
 436 317 436 317 373 292 c 1,22,-1
 479 122 l 1,23,-1
 566 122 l 1,0,-1
EndSplineSet
Colour: ff0000
EndChar
StartChar: uni0507
Encoding: 1287 1287 539
Width: 600
Flags: W
LayerCount: 2
Fore
SplineSet
537 117 m 1,0,-1
 537 -174 l 1,1,-1
 418 -174 l 1,2,-1
 398 0 l 1,3,-1
 355 0 l 1,4,-1
 256 171 l 1,5,-1
 117 171 l 1,6,-1
 117 284 l 1,7,-1
 227 284 l 2,8,9
 311 284 311 284 311 354 c 0,10,11
 311 388 311 388 290 405 c 128,-1,12
 269 422 269 422 230 422 c 2,13,-1
 73 422 l 1,14,-1
 74 531 l 1,15,-1
 228 531 l 2,16,17
 349 531 349 531 411 486 c 128,-1,18
 473 441 473 441 473 357 c 0,19,20
 473 309 473 309 454.5 274 c 128,-1,21
 436 239 436 239 393 212 c 1,22,-1
 455 117 l 1,23,-1
 537 117 l 1,0,-1
EndSplineSet
Colour: ff0000
EndChar
StartChar: uni050D
Encoding: 1293 1293 542
Width: 600
Flags: W
LayerCount: 2
Fore
SplineSet
428 530.5 m 128,-1,1
 474 512 474 512 516 477 c 1,2,-1
 445 388 l 1,3,4
 412 411 412 411 386 421.5 c 128,-1,5
 360 432 360 432 331 432 c 0,6,7
 215 432 215 432 215 259 c 0,8,9
 215 176 215 176 238.5 136.5 c 128,-1,10
 262 97 262 97 309 97 c 0,11,12
 332 97 332 97 347.5 100.5 c 128,-1,13
 363 104 363 104 382 110 c 1,14,-1
 382 207 l 1,15,-1
 329 207 l 1,16,-1
 311 310 l 1,17,-1
 530 310 l 1,18,-1
 530 42 l 1,19,20
 481 14 481 14 428.5 -2 c 128,-1,21
 376 -18 376 -18 309 -18 c 0,22,23
 187 -18 187 -18 119.5 53 c 128,-1,24
 52 124 52 124 52 260 c 0,25,26
 52 349 52 349 88.5 414.5 c 128,-1,27
 125 480 125 480 186.5 514.5 c 128,-1,28
 248 549 248 549 321 549 c 0,29,0
 382 549 382 549 428 530.5 c 128,-1,1
EndSplineSet
Colour: ff0000
EndChar
StartChar: uni050F
Encoding: 1295 1295 543
Width: 600
Flags: W
LayerCount: 2
Fore
SplineSet
557 227 m 0,1,2
 557 149 557 149 527.5 94 c 128,-1,3
 498 39 498 39 445.5 11 c 128,-1,4
 393 -17 393 -17 325 -17 c 0,5,6
 237 -17 237 -17 184 32 c 128,-1,7
 131 81 131 81 131 172 c 2,8,-1
 131 417 l 1,9,-1
 0 417 l 1,10,-1
 0 531 l 1,11,-1
 444 531 l 1,12,-1
 425 417 l 1,13,-1
 289 417 l 1,14,-1
 289 147 l 2,15,16
 289 121 289 121 300 108 c 128,-1,17
 311 95 311 95 331 95 c 0,18,19
 364 95 364 95 385 128 c 128,-1,20
 406 161 406 161 406 226 c 0,21,22
 406 299 406 299 400 359 c 1,23,-1
 551 359 l 1,24,0
 557 301 557 301 557 227 c 0,1,2
EndSplineSet
Colour: ff0000
EndChar
StartChar: uni0511
Encoding: 1297 1297 544
Width: 600
Flags: W
LayerCount: 2
Fore
SplineSet
430 223 m 1,0,-1
 325 223 l 2,1,2
 277 223 277 223 252.5 207 c 128,-1,3
 228 191 228 191 228 162 c 0,4,5
 228 131 228 131 255 113.5 c 128,-1,6
 282 96 282 96 335 96 c 0,7,8
 383 96 383 96 423 107.5 c 128,-1,9
 463 119 463 119 505 143 c 1,10,-1
 574 53 l 1,11,12
 477 -17 477 -17 332 -17 c 0,13,14
 212 -17 212 -17 138 27 c 128,-1,15
 64 71 64 71 64 152 c 0,16,17
 64 211 64 211 104.5 243 c 128,-1,18
 145 275 145 275 218 281 c 1,19,20
 154 293 154 293 122.5 321 c 128,-1,21
 91 349 91 349 91 396 c 0,22,23
 91 441 91 441 122.5 475.5 c 128,-1,24
 154 510 154 510 208.5 529.5 c 128,-1,25
 263 549 263 549 332 549 c 0,26,27
 463 549 463 549 557 484 c 1,28,-1
 489 400 l 1,29,30
 424 439 424 439 342 439 c 0,31,32
 299 439 299 439 274.5 425 c 128,-1,33
 250 411 250 411 250 383 c 256,34,35
 250 355 250 355 272 339.5 c 128,-1,36
 294 324 294 324 335 324 c 2,37,-1
 439 324 l 1,38,-1
 430 223 l 1,0,-1
EndSplineSet
Colour: ff0000
EndChar
StartChar: uni0512
Encoding: 1298 1298 408
Width: 600
Flags: W
LayerCount: 2
Fore
SplineSet
548 -26 m 2,0,1
 548 -123 548 -123 495.5 -175 c 128,-1,2
 443 -227 443 -227 348 -227 c 0,3,4
 305 -227 305 -227 273 -215.5 c 128,-1,5
 241 -204 241 -204 212 -182 c 1,6,-1
 272 -90 l 1,7,8
 292 -99 292 -99 303.5 -103 c 128,-1,9
 315 -107 315 -107 332 -107 c 0,10,11
 358 -107 358 -107 371 -91.5 c 128,-1,12
 384 -76 384 -76 384 -40 c 2,13,-1
 384 568 l 1,14,-1
 275 568 l 1,15,-1
 265 457 l 2,16,17
 249 288 249 288 226.5 198.5 c 128,-1,18
 204 109 204 109 164.5 62 c 128,-1,19
 125 15 125 15 52 -20 c 1,20,-1
 -12 88 l 1,21,22
 25 116 25 116 46 149 c 128,-1,23
 67 182 67 182 82.5 255.5 c 128,-1,24
 98 329 98 329 112 473 c 2,25,-1
 132 693 l 1,26,-1
 548 693 l 1,27,-1
 548 -26 l 2,0,1
EndSplineSet
Colour: ff0000
EndChar
StartChar: uni0513
Encoding: 1299 1299 545
Width: 600
Flags: W
LayerCount: 2
Fore
SplineSet
528 0 m 1,0,-1
 527 0 l 1,1,-1
 527 -26 l 2,2,3
 527 -124 527 -124 476.5 -175.5 c 128,-1,4
 426 -227 426 -227 333 -227 c 0,5,6
 290 -227 290 -227 258 -215.5 c 128,-1,7
 226 -204 226 -204 197 -182 c 1,8,-1
 257 -93 l 1,9,10
 277 -102 277 -102 288.5 -106 c 128,-1,11
 300 -110 300 -110 317 -110 c 0,12,13
 343 -110 343 -110 356 -94.5 c 128,-1,14
 369 -79 369 -79 369 -43 c 2,15,-1
 369 1 l 1,16,-1
 370 1 l 1,17,-1
 370 415 l 1,18,-1
 256 415 l 1,19,-1
 253 350 l 2,20,21
 247 227 247 227 230 158.5 c 128,-1,22
 213 90 213 90 179 51 c 128,-1,23
 145 12 145 12 80 -20 c 1,24,-1
 14 80 l 1,25,26
 42 100 42 100 58 124.5 c 128,-1,27
 74 149 74 149 85 199 c 128,-1,28
 96 249 96 249 103 344 c 2,29,-1
 117 531 l 1,30,-1
 528 531 l 1,31,-1
 528 0 l 1,0,-1
EndSplineSet
Colour: ff0000
EndChar
StartChar: uni0515
Encoding: 1301 1301 546
Width: 600
Flags: W
LayerCount: 2
Fore
SplineSet
608 0 m 1,0,-1
 471 0 l 1,1,-1
 399 199 l 1,2,-1
 332 0 l 1,3,-1
 198 0 l 1,4,-1
 318 279 l 1,5,-1
 256 423 l 1,6,-1
 205 423 l 1,7,-1
 195 292 l 2,8,9
 188 188 188 188 172 129.5 c 128,-1,10
 156 71 156 71 131.5 40 c 128,-1,11
 107 9 107 9 65 -20 c 1,12,-1
 -2 67 l 1,13,14
 24 91 24 91 40 142 c 128,-1,15
 56 193 56 193 64 296 c 2,16,-1
 82 531 l 1,17,-1
 345 531 l 1,18,-1
 404 361 l 1,19,-1
 460 531 l 1,20,-1
 590 531 l 1,21,-1
 487 285 l 1,22,-1
 608 0 l 1,0,-1
EndSplineSet
Colour: ff0000
EndChar
StartChar: uni051E
Encoding: 1310 1310 414
Width: 600
Flags: W
LayerCount: 2
Fore
SplineSet
608 0 m 1,0,-1
 429 0 l 1,1,-1
 278 302 l 1,2,-1
 216 302 l 1,3,-1
 216 0 l 1,4,-1
 52 0 l 1,5,-1
 52 693 l 1,6,-1
 216 693 l 1,7,-1
 216 420 l 1,8,-1
 276 420 l 1,9,-1
 335 525 l 1,10,-1
 243 568 l 1,11,-1
 282 652 l 1,12,-1
 381 606 l 1,13,-1
 430 693 l 1,14,-1
 589 693 l 1,15,-1
 508 548 l 1,16,-1
 604 504 l 1,17,-1
 565 420 l 1,18,-1
 462 467 l 1,19,-1
 413 379 l 1,20,-1
 608 0 l 1,0,-1
EndSplineSet
Colour: ff0000
EndChar
StartChar: uni051F
Encoding: 1311 1311 551
Width: 600
Flags: W
LayerCount: 2
Fore
SplineSet
587 0 m 1,0,-1
 420 0 l 1,1,-1
 301 224 l 1,2,-1
 232 224 l 1,3,-1
 232 0 l 1,4,-1
 74 0 l 1,5,-1
 74 531 l 1,6,-1
 232 531 l 1,7,-1
 232 329 l 1,8,-1
 305 329 l 1,9,-1
 341 392 l 1,10,-1
 268 425 l 1,11,-1
 304 502 l 1,12,-1
 383 465 l 1,13,-1
 420 531 l 1,14,-1
 573 531 l 1,15,-1
 501 411 l 1,16,-1
 575 377 l 1,17,-1
 539 301 l 1,18,-1
 458 338 l 1,19,-1
 426 285 l 1,20,-1
 587 0 l 1,0,-1
EndSplineSet
Colour: ff0000
EndChar
StartChar: uni0521
Encoding: 1313 1313 552
Width: 600
Flags: W
LayerCount: 2
Fore
SplineSet
569.5 304 m 128,-1,1
 606 262 606 262 606 189 c 2,2,-1
 606 -36 l 2,3,4
 606 -126 606 -126 558 -176.5 c 128,-1,5
 510 -227 510 -227 431 -227 c 0,6,7
 390 -227 390 -227 359 -215.5 c 128,-1,8
 328 -204 328 -204 299 -182 c 1,9,-1
 354 -101 l 1,10,11
 372 -112 372 -112 385 -116.5 c 128,-1,12
 398 -121 398 -121 419 -121 c 0,13,14
 442 -121 442 -121 455 -106 c 128,-1,15
 468 -91 468 -91 468 -60 c 2,16,-1
 468 189 l 2,17,18
 468 237 468 237 428 237 c 0,19,20
 405 237 405 237 383 223 c 1,21,-1
 383 0 l 1,22,-1
 245 0 l 1,23,-1
 245 419 l 1,24,-1
 182 419 l 1,25,-1
 174 292 l 2,26,27
 168 189 168 189 152 130 c 128,-1,28
 136 71 136 71 111.5 40 c 128,-1,29
 87 9 87 9 44 -20 c 1,30,-1
 -24 67 l 1,31,32
 2 91 2 91 18 142 c 128,-1,33
 34 193 34 193 43 296 c 1,34,-1
 61 531 l 1,35,-1
 383 531 l 1,36,-1
 383 317 l 1,37,38
 423 346 423 346 475 346 c 0,39,0
 533 346 533 346 569.5 304 c 128,-1,1
EndSplineSet
Colour: ff0000
EndChar
StartChar: uni0523
Encoding: 1315 1315 553
Width: 600
Flags: W
LayerCount: 2
Fore
SplineSet
568.5 304 m 128,-1,1
 605 262 605 262 605 189 c 2,2,-1
 605 -36 l 2,3,4
 605 -126 605 -126 557 -176.5 c 128,-1,5
 509 -227 509 -227 430 -227 c 0,6,7
 389 -227 389 -227 358 -215.5 c 128,-1,8
 327 -204 327 -204 298 -182 c 1,9,-1
 353 -101 l 1,10,11
 371 -112 371 -112 384 -116.5 c 128,-1,12
 397 -121 397 -121 418 -121 c 0,13,14
 441 -121 441 -121 454 -106 c 128,-1,15
 467 -91 467 -91 467 -60 c 2,16,-1
 467 189 l 2,17,18
 467 237 467 237 427 237 c 0,19,20
 404 237 404 237 382 223 c 1,21,-1
 382 0 l 1,22,-1
 247 0 l 1,23,-1
 247 214 l 1,24,-1
 154 214 l 1,25,-1
 154 0 l 1,26,-1
 18 0 l 1,27,-1
 18 531 l 1,28,-1
 154 531 l 1,29,-1
 154 325 l 1,30,-1
 247 325 l 1,31,-1
 247 531 l 1,32,-1
 382 531 l 1,33,-1
 382 317 l 1,34,35
 422 346 422 346 474 346 c 0,36,0
 532 346 532 346 568.5 304 c 128,-1,1
EndSplineSet
Colour: ff0000
EndChar
StartChar: uni0525
Encoding: 1317 1317 491
Width: 600
Flags: W
LayerCount: 2
Fore
SplineSet
591 117 m 1,0,-1
 591 -174 l 1,1,-1
 472 -174 l 1,2,-1
 452 0 l 1,3,-1
 363 0 l 1,4,-1
 363 414 l 1,5,-1
 217 414 l 1,6,-1
 217 0 l 1,7,-1
 60 0 l 1,8,-1
 60 531 l 1,9,-1
 520 531 l 1,10,-1
 520 117 l 1,11,-1
 591 117 l 1,0,-1
EndSplineSet
Colour: ff0000
EndChar
StartChar: uni0526
Encoding: 1318 1318 365
Width: 600
Flags: W
LayerCount: 2
Fore
SplineSet
604 122 m 1,0,-1
 604 -174 l 1,1,-1
 478 -174 l 1,2,-1
 459 0 l 1,3,-1
 392 0 l 1,4,-1
 392 230 l 2,5,6
 392 294 392 294 371 321.5 c 128,-1,7
 350 349 350 349 306 349 c 0,8,9
 256 349 256 349 216 311 c 1,10,-1
 216 0 l 1,11,-1
 52 0 l 1,12,-1
 52 693 l 1,13,-1
 216 693 l 1,14,-1
 216 421 l 1,15,16
 280 470 280 470 353 470 c 0,17,18
 451 470 451 470 503.5 408.5 c 128,-1,19
 556 347 556 347 556 231 c 2,20,-1
 556 122 l 1,21,-1
 604 122 l 1,0,-1
EndSplineSet
Colour: ff0000
EndChar
StartChar: uni0527
Encoding: 1319 1319 502
Width: 600
Flags: W
LayerCount: 2
Fore
SplineSet
592 117 m 1,0,-1
 592 -174 l 1,1,-1
 473 -174 l 1,2,-1
 453 0 l 1,3,-1
 363 0 l 1,4,-1
 363 318 l 2,5,6
 363 352 363 352 351 365.5 c 128,-1,7
 339 379 339 379 312 379 c 0,8,9
 265 379 265 379 223 327 c 1,10,-1
 223 0 l 1,11,-1
 65 0 l 1,12,-1
 65 742 l 1,13,-1
 223 758 l 1,14,-1
 223 431 l 1,15,16
 251 462 251 462 289 479 c 128,-1,17
 327 496 327 496 369 496 c 0,18,19
 441 496 441 496 481 452.5 c 128,-1,20
 521 409 521 409 521 328 c 2,21,-1
 521 117 l 1,22,-1
 592 117 l 1,0,-1
EndSplineSet
Colour: ff0000
EndChar
StartChar: uni0528
Encoding: 1320 1320 281
Width: 600
Flags: W
LayerCount: 2
Fore
SplineSet
548 693 m 1,0,-1
 548 0 l 1,1,-1
 384 0 l 1,2,-1
 384 292 l 1,3,-1
 216 292 l 1,4,-1
 216 -26 l 2,5,6
 216 -124 216 -124 163.5 -175.5 c 128,-1,7
 111 -227 111 -227 15 -227 c 0,8,9
 -28 -227 -28 -227 -59.5 -215.5 c 128,-1,10
 -91 -204 -91 -204 -120 -182 c 1,11,-1
 -60 -90 l 1,12,13
 -40 -99 -40 -99 -28.5 -103 c 128,-1,14
 -17 -107 -17 -107 0 -107 c 0,15,16
 26 -107 26 -107 39 -91.5 c 128,-1,17
 52 -76 52 -76 52 -40 c 2,18,-1
 52 693 l 1,19,-1
 216 693 l 1,20,-1
 216 427 l 1,21,-1
 384 427 l 1,22,-1
 384 693 l 1,23,-1
 548 693 l 1,0,-1
EndSplineSet
Colour: ff0000
EndChar
StartChar: uni052E
Encoding: 1326 1326 280
Width: 600
Flags: W
LayerCount: 2
Fore
SplineSet
571 122 m 1,0,-1
 571 -174 l 1,1,-1
 446 -174 l 1,2,-1
 426 0 l 1,3,-1
 359 0 l 1,4,-1
 359 568 l 1,5,-1
 280 568 l 1,6,-1
 269 457 l 2,7,8
 253 288 253 288 230.5 198.5 c 128,-1,9
 208 109 208 109 169 62 c 128,-1,10
 130 15 130 15 57 -20 c 1,11,-1
 -8 88 l 1,12,13
 30 116 30 116 51 149 c 128,-1,14
 72 182 72 182 87.5 255.5 c 128,-1,15
 103 329 103 329 116 473 c 2,16,-1
 137 693 l 1,17,-1
 523 693 l 1,18,-1
 523 122 l 1,19,-1
 571 122 l 1,0,-1
EndSplineSet
Colour: ff0000
EndChar
StartChar: uni052F
Encoding: 1327 1327 558
Width: 600
Flags: W
LayerCount: 2
Fore
SplineSet
578 117 m 1,0,-1
 578 -174 l 1,1,-1
 459 -174 l 1,2,-1
 439 0 l 1,3,-1
 349 0 l 1,4,-1
 349 415 l 1,5,-1
 256 415 l 1,6,-1
 253 350 l 2,7,8
 247 227 247 227 230 158.5 c 128,-1,9
 213 90 213 90 179 51 c 128,-1,10
 145 12 145 12 80 -20 c 1,11,-1
 14 80 l 1,12,13
 42 100 42 100 58 124.5 c 128,-1,14
 74 149 74 149 85 199 c 128,-1,15
 96 249 96 249 103 344 c 2,16,-1
 117 531 l 1,17,-1
 507 531 l 1,18,-1
 507 117 l 1,19,-1
 578 117 l 1,0,-1
EndSplineSet
Colour: ff0000
EndChar
StartChar: uni1FBF
Encoding: 8127 8127 1461
Width: 600
Flags: W
LayerCount: 2
Fore
SplineSet
357 817 m 128,-1,1
 379 795 379 795 379 762 c 0,2,3
 379 725 379 725 356 679 c 2,4,-1
 307 582 l 1,5,-1
 227 582 l 1,6,-1
 254 697 l 1,7,8
 222 724 222 724 222 762 c 0,9,10
 222 794 222 794 244.5 816.5 c 128,-1,11
 267 839 267 839 301 839 c 256,12,0
 335 839 335 839 357 817 c 128,-1,1
EndSplineSet
Colour: ff0000
EndChar
StartChar: uni1FC0
Encoding: 8128 8128 1475
Width: 600
Flags: W
LayerCount: 2
Fore
SplineSet
318 642 m 128,-1,1
 302 649 302 649 283 662 c 0,2,3
 258 680 258 680 242 680 c 0,4,5
 224 680 224 680 213 670 c 128,-1,6
 202 660 202 660 189 636 c 1,7,-1
 110 674 l 1,8,9
 131 727 131 727 163.5 759.5 c 128,-1,10
 196 792 196 792 239 792 c 0,11,12
 262 792 262 792 278.5 785 c 128,-1,13
 295 778 295 778 314 765 c 0,14,15
 327 756 327 756 336 751.5 c 128,-1,16
 345 747 345 747 355 747 c 0,17,18
 371 747 371 747 382 757 c 128,-1,19
 393 767 393 767 407 790 c 1,20,-1
 486 752 l 1,21,22
 465 699 465 699 432 667 c 128,-1,23
 399 635 399 635 356 635 c 0,24,0
 334 635 334 635 318 642 c 128,-1,1
EndSplineSet
Colour: ff0000
EndChar
StartChar: uni1FC1
Encoding: 8129 8129 1472
Width: 600
Flags: W
LayerCount: 2
Fore
SplineSet
321 792 m 128,-1,1
 305 799 305 799 286 812 c 0,2,3
 261 830 261 830 245 830 c 0,4,5
 227 830 227 830 216 820 c 128,-1,6
 205 810 205 810 192 786 c 1,7,-1
 113 824 l 1,8,9
 134 877 134 877 166.5 909.5 c 128,-1,10
 199 942 199 942 242 942 c 0,11,12
 265 942 265 942 281.5 935 c 128,-1,13
 298 928 298 928 317 915 c 0,14,15
 330 906 330 906 339 901.5 c 128,-1,16
 348 897 348 897 358 897 c 0,17,18
 374 897 374 897 385 907 c 128,-1,19
 396 917 396 917 410 940 c 1,20,-1
 489 902 l 1,21,22
 468 849 468 849 435 817 c 128,-1,23
 402 785 402 785 359 785 c 0,24,0
 337 785 337 785 321 792 c 128,-1,1
126 620.5 m 128,-1,26
 102 644 102 644 102 678 c 0,27,28
 102 711 102 711 126 734 c 128,-1,29
 150 757 150 757 184 757 c 0,30,31
 219 757 219 757 243 734 c 128,-1,32
 267 711 267 711 267 678 c 0,33,34
 267 644 267 644 243 620.5 c 128,-1,35
 219 597 219 597 184 597 c 0,36,25
 150 597 150 597 126 620.5 c 128,-1,26
357.5 620.5 m 128,-1,38
 333 644 333 644 333 678 c 0,39,40
 333 711 333 711 357.5 734 c 128,-1,41
 382 757 382 757 416 757 c 256,42,43
 450 757 450 757 474 734 c 128,-1,44
 498 711 498 711 498 678 c 0,45,46
 498 644 498 644 474.5 620.5 c 128,-1,47
 451 597 451 597 416 597 c 0,48,37
 382 597 382 597 357.5 620.5 c 128,-1,38
EndSplineSet
Colour: ff0000
EndChar
StartChar: uni1FCF
Encoding: 8143 8143 1468
Width: 600
Flags: W
LayerCount: 2
Fore
SplineSet
306.5 800 m 128,-1,1
 291 807 291 807 270 820 c 1,2,3
 245 838 245 838 229 838 c 0,4,5
 211 838 211 838 200 828 c 128,-1,6
 189 818 189 818 176 794 c 1,7,-1
 97 832 l 1,8,9
 117 884 117 884 150.5 917.5 c 128,-1,10
 184 951 184 951 226 951 c 0,11,12
 249 951 249 951 266 943.5 c 128,-1,13
 283 936 283 936 301 923 c 0,14,15
 314 914 314 914 323 909.5 c 128,-1,16
 332 905 332 905 342 905 c 0,17,18
 358 905 358 905 369 915 c 128,-1,19
 380 925 380 925 394 948 c 1,20,-1
 474 910 l 1,21,22
 453 857 453 857 419.5 825 c 128,-1,23
 386 793 386 793 343 793 c 0,24,0
 322 793 322 793 306.5 800 c 128,-1,1
251 642 m 1,25,26
 207 665 207 665 207 708 c 0,27,28
 207 741 207 741 229.5 763.5 c 128,-1,29
 252 786 252 786 286 786 c 256,30,31
 320 786 320 786 342.5 763.5 c 128,-1,32
 365 741 365 741 365 708 c 0,33,34
 365 690 365 690 358.5 671.5 c 128,-1,35
 352 653 352 653 336 625 c 2,36,-1
 311 581 l 1,37,-1
 237 581 l 1,38,-1
 251 642 l 1,25,26
EndSplineSet
Colour: ff0000
EndChar
StartChar: uni1FD3
Encoding: 8147 8147 845
Width: 600
Flags: W
LayerCount: 2
Fore
SplineSet
446 866 m 1,0,-1
 288 726 l 1,1,-1
 229 779 l 1,2,-1
 360 949 l 1,3,-1
 446 866 l 1,0,-1
224.5 736 m 128,-1,5
 248 713 248 713 248 680 c 256,6,7
 248 647 248 647 224.5 624 c 128,-1,8
 201 601 201 601 168 601 c 0,9,10
 133 601 133 601 109.5 624 c 128,-1,11
 86 647 86 647 86 680 c 0,12,13
 86 714 86 714 109.5 736.5 c 128,-1,14
 133 759 133 759 168 759 c 0,15,4
 201 759 201 759 224.5 736 c 128,-1,5
468.5 736.5 m 128,-1,17
 492 714 492 714 492 680 c 0,18,19
 492 647 492 647 468.5 624 c 128,-1,20
 445 601 445 601 411 601 c 256,21,22
 377 601 377 601 353.5 624 c 128,-1,23
 330 647 330 647 330 680 c 0,24,25
 330 714 330 714 353 736.5 c 128,-1,26
 376 759 376 759 411 759 c 0,27,16
 445 759 445 759 468.5 736.5 c 128,-1,17
38 416 m 1,28,-1
 51 531 l 1,29,-1
 359 531 l 1,30,-1
 359 166 l 2,31,32
 359 108 359 108 428 108 c 0,33,34
 464 108 464 108 503 124 c 1,35,-1
 541 18 l 1,36,37
 475 -17 475 -17 387 -17 c 0,38,39
 301 -17 301 -17 251 31 c 128,-1,40
 201 79 201 79 201 160 c 2,41,-1
 201 416 l 1,42,-1
 38 416 l 1,28,-1
EndSplineSet
Colour: ff0000
EndChar
StartChar: uni1FD7
Encoding: 8151 8151 846
Width: 600
Flags: W
LayerCount: 2
Fore
SplineSet
311 792 m 128,-1,1
 295 799 295 799 276 812 c 0,2,3
 251 830 251 830 235 830 c 0,4,5
 217 830 217 830 206 820 c 128,-1,6
 195 810 195 810 182 786 c 1,7,-1
 103 824 l 1,8,9
 124 877 124 877 156.5 909.5 c 128,-1,10
 189 942 189 942 232 942 c 0,11,12
 255 942 255 942 271.5 935 c 128,-1,13
 288 928 288 928 307 915 c 0,14,15
 320 906 320 906 329 901.5 c 128,-1,16
 338 897 338 897 348 897 c 0,17,18
 364 897 364 897 375 907 c 128,-1,19
 386 917 386 917 400 940 c 1,20,-1
 479 902 l 1,21,22
 458 849 458 849 425 817 c 128,-1,23
 392 785 392 785 349 785 c 0,24,0
 327 785 327 785 311 792 c 128,-1,1
116 620.5 m 128,-1,26
 92 644 92 644 92 678 c 0,27,28
 92 711 92 711 116 734 c 128,-1,29
 140 757 140 757 174 757 c 0,30,31
 209 757 209 757 233 734 c 128,-1,32
 257 711 257 711 257 678 c 0,33,34
 257 644 257 644 233 620.5 c 128,-1,35
 209 597 209 597 174 597 c 0,36,25
 140 597 140 597 116 620.5 c 128,-1,26
347.5 620.5 m 128,-1,38
 323 644 323 644 323 678 c 0,39,40
 323 711 323 711 347.5 734 c 128,-1,41
 372 757 372 757 406 757 c 256,42,43
 440 757 440 757 464 734 c 128,-1,44
 488 711 488 711 488 678 c 0,45,46
 488 644 488 644 464.5 620.5 c 128,-1,47
 441 597 441 597 406 597 c 0,48,37
 372 597 372 597 347.5 620.5 c 128,-1,38
38 416 m 1,49,-1
 51 531 l 1,50,-1
 359 531 l 1,51,-1
 359 166 l 2,52,53
 359 108 359 108 428 108 c 0,54,55
 464 108 464 108 503 124 c 1,56,-1
 541 18 l 1,57,58
 475 -17 475 -17 387 -17 c 0,59,60
 301 -17 301 -17 251 31 c 128,-1,61
 201 79 201 79 201 160 c 2,62,-1
 201 416 l 1,63,-1
 38 416 l 1,49,-1
EndSplineSet
Colour: ff0000
EndChar
StartChar: uni1FDF
Encoding: 8159 8159 1469
Width: 600
Flags: W
LayerCount: 2
Fore
SplineSet
318 801 m 128,-1,1
 302 808 302 808 283 821 c 0,2,3
 258 839 258 839 242 839 c 0,4,5
 224 839 224 839 213 829 c 128,-1,6
 202 819 202 819 189 795 c 1,7,-1
 110 833 l 1,8,9
 131 886 131 886 163.5 919 c 128,-1,10
 196 952 196 952 239 952 c 0,11,12
 262 952 262 952 279 944.5 c 128,-1,13
 296 937 296 937 314 924 c 0,14,15
 327 915 327 915 336 910.5 c 128,-1,16
 345 906 345 906 355 906 c 0,17,18
 371 906 371 906 382 916 c 128,-1,19
 393 926 393 926 407 949 c 1,20,-1
 486 911 l 1,21,22
 465 858 465 858 432 826 c 128,-1,23
 399 794 399 794 356 794 c 0,24,0
 334 794 334 794 318 801 c 128,-1,1
272 581 m 1,25,-1
 249 625 l 1,26,27
 232 654 232 654 225.5 672 c 128,-1,28
 219 690 219 690 219 708 c 0,29,30
 219 742 219 742 241 764 c 128,-1,31
 263 786 263 786 297 786 c 0,32,33
 332 786 332 786 354 763.5 c 128,-1,34
 376 741 376 741 376 708 c 0,35,36
 376 666 376 666 335 643 c 1,37,-1
 347 581 l 1,38,-1
 272 581 l 1,25,-1
EndSplineSet
Colour: ff0000
EndChar
StartChar: uni1FE2
Encoding: 8162 8162 870
Width: 600
Flags: W
LayerCount: 2
Fore
SplineSet
362 779 m 1,0,-1
 302 726 l 1,1,-1
 145 866 l 1,2,-1
 231 949 l 1,3,-1
 362 779 l 1,0,-1
235 736.5 m 128,-1,5
 258 714 258 714 258 680 c 0,6,7
 258 647 258 647 235 624 c 128,-1,8
 212 601 212 601 178 601 c 256,9,10
 144 601 144 601 120 624 c 128,-1,11
 96 647 96 647 96 680 c 256,12,13
 96 713 96 713 120 736 c 128,-1,14
 144 759 144 759 178 759 c 256,15,4
 212 759 212 759 235 736.5 c 128,-1,5
478.5 736.5 m 128,-1,17
 502 714 502 714 502 680 c 0,18,19
 502 647 502 647 478.5 624 c 128,-1,20
 455 601 455 601 420 601 c 0,21,22
 387 601 387 601 363.5 624 c 128,-1,23
 340 647 340 647 340 680 c 256,24,25
 340 713 340 713 363.5 736 c 128,-1,26
 387 759 387 759 420 759 c 0,27,16
 455 759 455 759 478.5 736.5 c 128,-1,17
551 256 m 0,29,30
 551 165 551 165 515 103.5 c 128,-1,31
 479 42 479 42 418 12.5 c 128,-1,32
 357 -17 357 -17 282 -17 c 0,33,34
 184 -17 184 -17 124.5 34 c 128,-1,35
 65 85 65 85 65 180 c 2,36,-1
 65 531 l 1,37,-1
 223 531 l 1,38,-1
 223 189 l 2,39,40
 223 141 223 141 240.5 120 c 128,-1,41
 258 99 258 99 293 99 c 0,42,43
 339 99 339 99 366 139.5 c 128,-1,44
 393 180 393 180 393 265 c 0,45,46
 393 389 393 389 366 531 c 1,47,-1
 522 531 l 1,48,28
 551 388 551 388 551 256 c 0,29,30
EndSplineSet
Colour: ff0000
EndChar
StartChar: uni1FED
Encoding: 8173 8173 1470
Width: 600
Flags: W
LayerCount: 2
Fore
SplineSet
363 779 m 1,0,-1
 303 726 l 1,1,-1
 146 866 l 1,2,-1
 232 949 l 1,3,-1
 363 779 l 1,0,-1
236 736.5 m 128,-1,5
 259 714 259 714 259 680 c 0,6,7
 259 647 259 647 236 624 c 128,-1,8
 213 601 213 601 179 601 c 256,9,10
 145 601 145 601 121 624 c 128,-1,11
 97 647 97 647 97 680 c 256,12,13
 97 713 97 713 121 736 c 128,-1,14
 145 759 145 759 179 759 c 256,15,4
 213 759 213 759 236 736.5 c 128,-1,5
479.5 736.5 m 128,-1,17
 503 714 503 714 503 680 c 0,18,19
 503 647 503 647 479.5 624 c 128,-1,20
 456 601 456 601 421 601 c 0,21,22
 388 601 388 601 364.5 624 c 128,-1,23
 341 647 341 647 341 680 c 256,24,25
 341 713 341 713 364.5 736 c 128,-1,26
 388 759 388 759 421 759 c 0,27,16
 456 759 456 759 479.5 736.5 c 128,-1,17
EndSplineSet
Colour: ff0000
EndChar
StartChar: uni1FEE
Encoding: 8174 8174 1471
Width: 600
Flags: W
LayerCount: 2
Fore
SplineSet
457 866 m 1,0,-1
 299 726 l 1,1,-1
 240 779 l 1,2,-1
 371 949 l 1,3,-1
 457 866 l 1,0,-1
235.5 736 m 128,-1,5
 259 713 259 713 259 680 c 256,6,7
 259 647 259 647 235.5 624 c 128,-1,8
 212 601 212 601 179 601 c 0,9,10
 144 601 144 601 120.5 624 c 128,-1,11
 97 647 97 647 97 680 c 0,12,13
 97 714 97 714 120.5 736.5 c 128,-1,14
 144 759 144 759 179 759 c 0,15,4
 212 759 212 759 235.5 736 c 128,-1,5
479.5 736.5 m 128,-1,17
 503 714 503 714 503 680 c 0,18,19
 503 647 503 647 479.5 624 c 128,-1,20
 456 601 456 601 422 601 c 256,21,22
 388 601 388 601 364.5 624 c 128,-1,23
 341 647 341 647 341 680 c 0,24,25
 341 714 341 714 364 736.5 c 128,-1,26
 387 759 387 759 422 759 c 0,27,16
 456 759 456 759 479.5 736.5 c 128,-1,17
EndSplineSet
Colour: ff0000
EndChar
StartChar: uni1FEF
Encoding: 8175 8175 1473
Width: 600
Flags: W
LayerCount: 2
Fore
SplineSet
442 703 m 1,0,-1
 399 622 l 1,1,-1
 163 716 l 1,2,-1
 224 835 l 1,3,-1
 442 703 l 1,0,-1
EndSplineSet
Colour: ff0000
EndChar
StartChar: uni1FFD
Encoding: 8189 8189 1474
Width: 600
Flags: W
LayerCount: 2
Fore
SplineSet
438 716 m 1,0,-1
 201 622 l 1,1,-1
 158 703 l 1,2,-1
 376 835 l 1,3,-1
 438 716 l 1,0,-1
EndSplineSet
Colour: ff0000
EndChar
StartChar: quotedblbase
Encoding: 8222 8222 1035
Width: 600
Flags: W
LayerCount: 2
Fore
SplineSet
119.5 134.5 m 128,-1,1
 147 161 147 161 186 161 c 0,2,3
 226 161 226 161 253 135 c 128,-1,4
 280 109 280 109 280 71 c 0,5,6
 280 48 280 48 273 25 c 128,-1,7
 266 2 266 2 248 -33 c 1,8,-1
 177 -182 l 1,9,-1
 88 -182 l 1,10,-1
 132 -5 l 1,11,12
 92 23 92 23 92 71 c 0,13,0
 92 108 92 108 119.5 134.5 c 128,-1,1
351.5 135 m 128,-1,15
 379 161 379 161 419 161 c 256,16,17
 459 161 459 161 485.5 135 c 128,-1,18
 512 109 512 109 512 71 c 0,19,20
 512 48 512 48 505.5 24.5 c 128,-1,21
 499 1 499 1 481 -33 c 1,22,-1
 409 -182 l 1,23,-1
 320 -182 l 1,24,-1
 364 -5 l 1,25,26
 324 23 324 23 324 71 c 0,27,14
 324 109 324 109 351.5 135 c 128,-1,15
EndSplineSet
Colour: ff0000
EndChar
StartChar: ellipsis
Encoding: 8230 8230 983
Width: 600
Flags: W
LayerCount: 2
Fore
SplineSet
39.5 126 m 128,-1,1
 65 151 65 151 100 151 c 256,2,3
 135 151 135 151 160.5 126 c 128,-1,4
 186 101 186 101 186 66 c 256,5,6
 186 31 186 31 160.5 5.5 c 128,-1,7
 135 -20 135 -20 100 -20 c 256,8,9
 65 -20 65 -20 39.5 5.5 c 128,-1,10
 14 31 14 31 14 66 c 256,11,0
 14 101 14 101 39.5 126 c 128,-1,1
239.5 126 m 128,-1,13
 265 151 265 151 300 151 c 256,14,15
 335 151 335 151 360.5 126 c 128,-1,16
 386 101 386 101 386 66 c 256,17,18
 386 31 386 31 360.5 5.5 c 128,-1,19
 335 -20 335 -20 300 -20 c 256,20,21
 265 -20 265 -20 239.5 5.5 c 128,-1,22
 214 31 214 31 214 66 c 256,23,12
 214 101 214 101 239.5 126 c 128,-1,13
440 126 m 128,-1,25
 465 151 465 151 500 151 c 256,26,27
 535 151 535 151 560.5 126 c 128,-1,28
 586 101 586 101 586 66 c 256,29,30
 586 31 586 31 560.5 5.5 c 128,-1,31
 535 -20 535 -20 500 -20 c 256,32,33
 465 -20 465 -20 440 5.5 c 128,-1,34
 415 31 415 31 415 66 c 256,35,24
 415 101 415 101 440 126 c 128,-1,25
EndSplineSet
Colour: ff0000
EndChar
StartChar: perthousand
Encoding: 8240 8240 1103
Width: 600
Flags: W
LayerCount: 2
Fore
SplineSet
270 672 m 128,-1,1
 306 633 306 633 306 568 c 0,2,3
 306 502 306 502 270.5 464 c 128,-1,4
 235 426 235 426 173 426 c 0,5,6
 110 426 110 426 74 463.5 c 128,-1,7
 38 501 38 501 38 568 c 0,8,9
 38 631 38 631 74.5 671 c 128,-1,10
 111 711 111 711 173 711 c 0,11,0
 234 711 234 711 270 672 c 128,-1,1
145.5 618 m 128,-1,13
 139 602 139 602 139 568 c 0,14,15
 139 535 139 535 146 518 c 128,-1,16
 153 501 153 501 173 501 c 256,17,18
 193 501 193 501 199.5 517.5 c 128,-1,19
 206 534 206 534 206 568 c 256,20,21
 206 602 206 602 199.5 618 c 128,-1,22
 193 634 193 634 173 634 c 0,23,12
 152 634 152 634 145.5 618 c 128,-1,13
591 453 m 1,24,-1
 37 272 l 1,25,-1
 14 340 l 1,26,-1
 568 522 l 1,27,-1
 591 453 l 1,24,-1
270 236.5 m 128,-1,29
 306 198 306 198 306 133 c 0,30,31
 306 67 306 67 270.5 29 c 128,-1,32
 235 -9 235 -9 173 -9 c 0,33,34
 109 -9 109 -9 73.5 28.5 c 128,-1,35
 38 66 38 66 38 133 c 0,36,37
 38 196 38 196 74 235.5 c 128,-1,38
 110 275 110 275 173 275 c 0,39,28
 234 275 234 275 270 236.5 c 128,-1,29
555.5 236.5 m 128,-1,41
 591 198 591 198 591 133 c 0,42,43
 591 66 591 66 555.5 28.5 c 128,-1,44
 520 -9 520 -9 458 -9 c 0,45,46
 395 -9 395 -9 359.5 28.5 c 128,-1,47
 324 66 324 66 324 133 c 0,48,49
 324 196 324 196 360 235.5 c 128,-1,50
 396 275 396 275 458 275 c 256,51,40
 520 275 520 275 555.5 236.5 c 128,-1,41
145 181.5 m 128,-1,53
 138 165 138 165 138 133 c 0,54,55
 138 100 138 100 145.5 83 c 128,-1,56
 153 66 153 66 173 66 c 256,57,58
 193 66 193 66 199.5 82.5 c 128,-1,59
 206 99 206 99 206 133 c 256,60,61
 206 167 206 167 199.5 182.5 c 128,-1,62
 193 198 193 198 173 198 c 0,63,52
 152 198 152 198 145 181.5 c 128,-1,53
430.5 182 m 128,-1,65
 424 166 424 166 424 133 c 256,66,67
 424 100 424 100 431 83 c 128,-1,68
 438 66 438 66 458 66 c 256,69,70
 478 66 478 66 484.5 82.5 c 128,-1,71
 491 99 491 99 491 133 c 0,72,73
 491 166 491 166 484.5 182 c 128,-1,74
 478 198 478 198 458 198 c 0,75,64
 437 198 437 198 430.5 182 c 128,-1,65
EndSplineSet
Colour: ff0000
EndChar
StartChar: fraction
Encoding: 8260 8260 920
Width: 600
Flags: W
LayerCount: 2
Fore
SplineSet
-288 251 m 1,0,-1
 247 507 l 1,1,-1
 288 431 l 1,2,-1
 -246 175 l 1,3,-1
 -288 251 l 1,0,-1
EndSplineSet
EndChar
StartChar: uni204A
Encoding: 8266 8266 994
Width: 600
Flags: W
LayerCount: 2
Fore
SplineSet
114 -191 m 1,0,-1
 362 412 l 1,1,-1
 58 412 l 1,2,-1
 58 531 l 1,3,-1
 522 531 l 1,4,-1
 522 424 l 1,5,-1
 264 -237 l 1,6,-1
 114 -191 l 1,0,-1
EndSplineSet
Colour: ff0000
EndChar
StartChar: uni20B9
Encoding: 8377 8377 1063
Width: 600
Flags: W
LayerCount: 2
Fore
SplineSet
538 609 m 1,0,-1
 391 609 l 1,1,2
 448 582 448 582 470 520 c 1,3,-1
 538 520 l 1,4,-1
 538 438 l 1,5,-1
 480 438 l 1,6,7
 475 387 475 387 445 349.5 c 128,-1,8
 415 312 415 312 357 284 c 1,9,-1
 526 0 l 1,10,-1
 345 0 l 1,11,-1
 207 256 l 1,12,-1
 71 256 l 1,13,-1
 71 350 l 1,14,-1
 188 350 l 2,15,16
 298 350 298 350 318 438 c 1,17,-1
 71 438 l 1,18,-1
 71 520 l 1,19,-1
 317 520 l 1,20,21
 306 562 306 562 272 580.5 c 128,-1,22
 238 599 238 599 188 599 c 2,23,-1
 162 599 l 1,24,-1
 71 599 l 1,25,-1
 71 693 l 1,26,-1
 538 693 l 1,27,-1
 538 609 l 1,0,-1
EndSplineSet
Colour: ff0000
EndChar
StartChar: uni20BA
Encoding: 8378 8378 1061
Width: 600
Flags: W
LayerCount: 2
Fore
SplineSet
566 118 m 1,0,1
 523 57 523 57 464 28.5 c 128,-1,2
 405 0 405 0 329 0 c 2,3,-1
 112 0 l 1,4,-1
 112 167 l 1,5,-1
 68 147 l 1,6,-1
 33 219 l 1,7,-1
 112 256 l 1,8,-1
 112 323 l 1,9,-1
 69 303 l 1,10,-1
 33 375 l 1,11,-1
 112 412 l 1,12,-1
 112 693 l 1,13,-1
 276 693 l 1,14,-1
 275 487 l 1,15,-1
 410 550 l 1,16,-1
 444 477 l 1,17,-1
 275 398 l 1,18,-1
 275 332 l 1,19,-1
 409 394 l 1,20,-1
 444 321 l 1,21,-1
 274 243 l 1,22,-1
 274 131 l 1,23,-1
 341 131 l 2,24,25
 387 131 387 131 416.5 148 c 128,-1,26
 446 165 446 165 475 197 c 1,27,-1
 566 118 l 1,0,1
EndSplineSet
Colour: ff0000
EndChar
StartChar: uni20BD
Encoding: 8381 8381 1062
Width: 600
Flags: W
LayerCount: 2
Fore
SplineSet
256 250 m 1,0,-1
 256 193 l 1,1,-1
 394 193 l 1,2,-1
 394 110 l 1,3,-1
 256 110 l 1,4,-1
 256 0 l 1,5,-1
 92 0 l 1,6,-1
 92 110 l 1,7,-1
 31 110 l 1,8,-1
 31 193 l 1,9,-1
 92 193 l 1,10,-1
 92 250 l 1,11,-1
 31 250 l 1,12,-1
 31 352 l 1,13,-1
 92 352 l 1,14,-1
 92 693 l 1,15,-1
 271 693 l 2,16,17
 414 693 414 693 490.5 636.5 c 128,-1,18
 567 580 567 580 567 470 c 0,19,20
 567 364 567 364 492.5 307 c 128,-1,21
 418 250 418 250 292 250 c 2,22,-1
 256 250 l 1,0,-1
256 352 m 1,23,-1
 282 352 l 2,24,25
 398 352 398 352 398 470 c 0,26,27
 398 526 398 526 367 552.5 c 128,-1,28
 336 579 336 579 273 579 c 2,29,-1
 256 579 l 1,30,-1
 256 352 l 1,23,-1
EndSplineSet
Colour: ff0000
EndChar
StartChar: uni2113
Encoding: 8467 8467 1386
Width: 600
Flags: W
LayerCount: 2
Fore
SplineSet
460 124 m 1,1,-1
 497 18 l 1,2,3
 433 -17 433 -17 344 -17 c 0,4,5
 251 -17 251 -17 204.5 36.5 c 128,-1,6
 158 90 158 90 158 187 c 2,7,-1
 158 234 l 1,8,-1
 85 193 l 1,9,-1
 52 255 l 1,10,-1
 158 318 l 1,11,-1
 158 539 l 2,12,13
 158 643 158 643 206 701 c 128,-1,14
 254 759 254 759 353 759 c 0,15,16
 429 759 429 759 471.5 719.5 c 128,-1,17
 514 680 514 680 514 609 c 0,18,19
 514 527 514 527 462 460 c 128,-1,20
 410 393 410 393 316 330 c 1,21,-1
 316 167 l 2,22,23
 316 108 316 108 384 108 c 0,24,0
 421 108 421 108 460 124 c 1,1,-1
327 644 m 128,-1,26
 316 627 316 627 316 590 c 2,27,-1
 316 432 l 1,28,29
 358 472 358 472 378.5 513.5 c 128,-1,30
 399 555 399 555 399 601 c 0,31,32
 399 661 399 661 360 661 c 0,33,25
 338 661 338 661 327 644 c 128,-1,26
EndSplineSet
Colour: ff0000
EndChar
StartChar: estimated
Encoding: 8494 8494 1385
Width: 600
Flags: W
LayerCount: 2
Fore
SplineSet
497.5 636.5 m 128,-1,1
 566 572 566 572 583 468 c 1,2,-1
 583 334 l 1,3,-1
 151 334 l 1,4,-1
 151 73 l 1,5,6
 208 26 208 26 305 26 c 0,7,8
 373 26 373 26 422.5 51.5 c 128,-1,9
 472 77 472 77 498 123 c 1,10,-1
 547 123 l 1,11,12
 515 61 515 61 455.5 24.5 c 128,-1,13
 396 -12 396 -12 304 -12 c 0,14,15
 181 -12 181 -12 110.5 49.5 c 128,-1,16
 40 111 40 111 21 214 c 1,17,-1
 21 468 l 1,18,19
 38 572 38 572 106.5 636.5 c 128,-1,20
 175 701 175 701 302 701 c 256,21,0
 429 701 429 701 497.5 636.5 c 128,-1,1
151 620 m 1,23,-1
 151 373 l 1,24,-1
 450 373 l 1,25,-1
 450 619 l 1,26,27
 426 638 426 638 387 650 c 128,-1,28
 348 662 348 662 303 662 c 0,29,22
 205 662 205 662 151 620 c 1,23,-1
EndSplineSet
Colour: ff0000
EndChar
StartChar: arrowdown
Encoding: 8595 8595 1145
Width: 600
Flags: W
LayerCount: 2
Fore
SplineSet
373 195 m 1,0,1
 389 224 389 224 406.5 246 c 128,-1,2
 424 268 424 268 456 299 c 2,3,-1
 526 368 l 1,4,-1
 617 271 l 1,5,-1
 300 -26 l 1,6,-1
 -17 271 l 1,7,-1
 74 368 l 1,8,-1
 145 298 l 2,9,10
 177 266 177 266 195 244 c 128,-1,11
 213 222 213 222 227 196 c 1,12,-1
 227 664 l 1,13,-1
 373 664 l 1,14,-1
 373 195 l 1,0,1
EndSplineSet
Colour: ff0000
EndChar
StartChar: arrowboth
Encoding: 8596 8596 1149
Width: 600
Flags: W
LayerCount: 2
Fore
SplineSet
440 9 m 1,0,-1
 336 98 l 1,1,-1
 391 158 l 2,2,3
 459 231 459 231 509 265 c 1,4,-1
 91 265 l 1,5,6
 144 229 144 229 210 158 c 2,7,-1
 265 98 l 1,8,-1
 161 9 l 1,9,-1
 -127 329 l 1,10,-1
 157 645 l 1,11,-1
 261 556 l 1,12,-1
 210 500 l 2,13,14
 175 462 175 462 147 437 c 128,-1,15
 119 412 119 412 89 393 c 1,16,-1
 511 393 l 1,17,18
 481 412 481 412 453 437.5 c 128,-1,19
 425 463 425 463 391 500 c 2,20,-1
 339 556 l 1,21,-1
 443 645 l 1,22,-1
 727 329 l 1,23,-1
 440 9 l 1,0,-1
EndSplineSet
Colour: ff0000
EndChar
StartChar: uni2196
Encoding: 8598 8598 1148
Width: 600
Flags: W
LayerCount: 2
Fore
SplineSet
143 379 m 1,0,1
 152 343 152 343 156 323 c 128,-1,2
 160 303 160 303 160 273 c 1,3,-1
 159 248 l 1,4,-1
 152 114 l 1,5,-1
 11 123 l 1,6,-1
 33 585 l 1,7,-1
 494 607 l 1,8,-1
 503 479 l 1,9,-1
 346 471 l 2,10,11
 312 470 312 470 289.5 472 c 128,-1,12
 267 474 267 474 238 481 c 1,13,-1
 589 141 l 1,14,-1
 490 41 l 1,15,-1
 143 379 l 1,0,1
EndSplineSet
Colour: ff0000
EndChar
StartChar: uni2199
Encoding: 8601 8601 1146
Width: 600
Flags: W
LayerCount: 2
Fore
SplineSet
589 483 m 1,0,-1
 238 143 l 1,1,2
 266 149 266 149 288.5 151 c 128,-1,3
 311 153 311 153 346 152 c 2,4,-1
 503 144 l 1,5,-1
 494 17 l 1,6,-1
 33 39 l 1,7,-1
 11 501 l 1,8,-1
 152 509 l 1,9,-1
 159 375 l 2,10,11
 161 333 161 333 157 307.5 c 128,-1,12
 153 282 153 282 143 244 c 1,13,-1
 490 583 l 1,14,-1
 589 483 l 1,0,-1
EndSplineSet
Colour: ff0000
EndChar
StartChar: partialdiff
Encoding: 8706 8706 1101
Width: 600
Flags: W
LayerCount: 2
Fore
SplineSet
449 582.5 m 128,-1,1
 543 468 543 468 543 272 c 0,2,3
 543 193 543 193 514 127 c 128,-1,4
 485 61 485 61 428 22 c 128,-1,5
 371 -17 371 -17 292 -17 c 0,6,7
 221 -17 221 -17 166.5 12.5 c 128,-1,8
 112 42 112 42 81.5 96.5 c 128,-1,9
 51 151 51 151 51 224 c 0,10,11
 51 291 51 291 75.5 344 c 128,-1,12
 100 397 100 397 144 427 c 128,-1,13
 188 457 188 457 244 457 c 0,14,15
 328 457 328 457 382 390 c 1,16,17
 361 486 361 486 294.5 544.5 c 128,-1,18
 228 603 228 603 109 632 c 1,19,-1
 144 740 l 1,20,0
 355 697 355 697 449 582.5 c 128,-1,1
232 312 m 128,-1,22
 209 282 209 282 209 219 c 0,23,24
 209 160 209 160 231.5 127.5 c 128,-1,25
 254 95 254 95 294 95 c 0,26,27
 379 95 379 95 381 250 c 1,28,-1
 381 286 l 1,29,30
 360 315 360 315 338.5 328.5 c 128,-1,31
 317 342 317 342 290 342 c 0,32,21
 255 342 255 342 232 312 c 128,-1,22
EndSplineSet
Colour: ff0000
EndChar
StartChar: product
Encoding: 8719 8719 1108
Width: 600
Flags: W
LayerCount: 2
Fore
SplineSet
574 574 m 1,0,-1
 514 574 l 1,1,-1
 514 -205 l 1,2,-1
 367 -222 l 1,3,-1
 367 574 l 1,4,-1
 236 574 l 1,5,-1
 236 -205 l 1,6,-1
 86 -222 l 1,7,-1
 86 574 l 1,8,-1
 26 574 l 1,9,-1
 26 693 l 1,10,-1
 574 693 l 1,11,-1
 574 574 l 1,0,-1
EndSplineSet
Colour: ff0000
EndChar
StartChar: summation
Encoding: 8721 8721 1111
Width: 600
Flags: W
LayerCount: 2
Fore
SplineSet
529 574 m 1,0,-1
 248 574 l 1,1,-1
 414 381 l 1,2,-1
 414 314 l 1,3,-1
 248 119 l 1,4,-1
 529 119 l 1,5,-1
 529 0 l 1,6,-1
 75 0 l 1,7,-1
 75 114 l 1,8,-1
 272 346 l 1,9,-1
 75 579 l 1,10,-1
 75 693 l 1,11,-1
 529 693 l 1,12,-1
 529 574 l 1,0,-1
EndSplineSet
Colour: ff0000
EndChar
StartChar: minus
Encoding: 8722 8722 1096
Width: 600
Flags: W
LayerCount: 2
Fore
SplineSet
517 251 m 1,0,-1
 83 251 l 1,1,-1
 83 374 l 1,2,-1
 517 374 l 1,3,-1
 517 251 l 1,0,-1
EndSplineSet
EndChar
StartChar: radical
Encoding: 8730 8730 1109
Width: 600
Flags: W
LayerCount: 2
Fore
SplineSet
724 754 m 1,0,-1
 534 754 l 1,1,-1
 322 0 l 1,2,-1
 142 0 l 1,3,-1
 -26 461 l 1,4,-1
 121 505 l 1,5,-1
 227 140 l 1,6,-1
 418 874 l 1,7,-1
 724 874 l 1,8,-1
 724 754 l 1,0,-1
EndSplineSet
Colour: ff0000
EndChar
StartChar: infinity
Encoding: 8734 8734 1087
Width: 600
Flags: W
LayerCount: 2
Fore
SplineSet
572.5 462 m 128,-1,1
 611 406 611 406 611 315 c 0,2,3
 611 225 611 225 572 169 c 128,-1,4
 533 113 533 113 445 113 c 0,5,6
 394 113 394 113 358.5 137.5 c 128,-1,7
 323 162 323 162 296 210 c 1,8,9
 271 164 271 164 236.5 138.5 c 128,-1,10
 202 113 202 113 151 113 c 0,11,12
 65 113 65 113 27 169 c 128,-1,13
 -11 225 -11 225 -11 316 c 256,14,15
 -11 407 -11 407 28 462.5 c 128,-1,16
 67 518 67 518 155 518 c 0,17,18
 205 518 205 518 241 493.5 c 128,-1,19
 277 469 277 469 304 420 c 1,20,21
 329 466 329 466 363 492 c 128,-1,22
 397 518 397 518 448 518 c 0,23,0
 534 518 534 518 572.5 462 c 128,-1,1
114 316 m 0,25,26
 114 268 114 268 128 242.5 c 128,-1,27
 142 217 142 217 169 217 c 0,28,29
 199 217 199 217 216 245.5 c 128,-1,30
 233 274 233 274 248 331 c 1,31,32
 231 372 231 372 214 393.5 c 128,-1,33
 197 415 197 415 171 415 c 0,34,24
 114 415 114 415 114 316 c 0,25,26
384.5 386.5 m 128,-1,36
 368 358 368 358 351 301 c 1,37,38
 367 261 367 261 384.5 239 c 128,-1,39
 402 217 402 217 429 217 c 0,40,41
 486 217 486 217 486 316 c 0,42,43
 486 364 486 364 472 389.5 c 128,-1,44
 458 415 458 415 430 415 c 0,45,35
 401 415 401 415 384.5 386.5 c 128,-1,36
EndSplineSet
Colour: ff0000
EndChar
StartChar: intersection
Encoding: 8745 8745 1091
Width: 600
Flags: W
LayerCount: 2
Fore
SplineSet
435.5 581.5 m 128,-1,1
 498 545 498 545 534.5 482.5 c 128,-1,2
 571 420 571 420 571 347 c 2,3,-1
 571 1 l 1,4,-1
 448 1 l 1,5,-1
 448 347 l 2,6,7
 448 387 448 387 428 421 c 128,-1,8
 408 455 408 455 374 475 c 128,-1,9
 340 495 340 495 300 495 c 256,10,11
 260 495 260 495 226 475 c 128,-1,12
 192 455 192 455 172 421 c 128,-1,13
 152 387 152 387 152 347 c 2,14,-1
 152 1 l 1,15,-1
 29 1 l 1,16,-1
 29 347 l 2,17,18
 29 420 29 420 65.5 482.5 c 128,-1,19
 102 545 102 545 164.5 581.5 c 128,-1,20
 227 618 227 618 300 618 c 256,21,0
 373 618 373 618 435.5 581.5 c 128,-1,1
EndSplineSet
Colour: ff0000
EndChar
StartChar: integral
Encoding: 8747 8747 1088
Width: 600
Flags: W
LayerCount: 2
Fore
SplineSet
562 829 m 1,1,-1
 519 726 l 1,2,3
 473 746 473 746 435 746 c 0,4,5
 406 746 406 746 393 729 c 128,-1,6
 380 712 380 712 380 675 c 2,7,-1
 380 -31 l 2,8,9
 380 -125 380 -125 326.5 -173.5 c 128,-1,10
 273 -222 273 -222 184 -222 c 0,11,12
 106 -222 106 -222 38 -188 c 1,13,-1
 81 -85 l 1,14,15
 125 -105 125 -105 165 -105 c 0,16,17
 198 -105 198 -105 211 -89.5 c 128,-1,18
 224 -74 224 -74 224 -37 c 2,19,-1
 224 669 l 2,20,21
 224 762 224 762 270 812 c 128,-1,22
 316 862 316 862 412 862 c 0,23,0
 489 862 489 862 562 829 c 1,1,-1
EndSplineSet
Colour: ff0000
EndChar
StartChar: approxequal
Encoding: 8776 8776 1076
Width: 600
Flags: W
LayerCount: 2
Fore
SplineSet
276.5 485 m 128,-1,1
 300 476 300 476 330 458 c 0,2,3
 351 446 351 446 362.5 440.5 c 128,-1,4
 374 435 374 435 388 435 c 0,5,6
 412 435 412 435 425.5 448 c 128,-1,7
 439 461 439 461 454 489 c 1,8,-1
 541 443 l 1,9,10
 513 387 513 387 475.5 353 c 128,-1,11
 438 319 438 319 381 319 c 0,12,13
 346 319 346 319 321.5 328.5 c 128,-1,14
 297 338 297 338 270 355 c 0,15,16
 251 366 251 366 238.5 371.5 c 128,-1,17
 226 377 226 377 212 377 c 0,18,19
 188 377 188 377 174.5 364 c 128,-1,20
 161 351 161 351 146 324 c 1,21,-1
 59 369 l 1,22,23
 87 425 87 425 125 459.5 c 128,-1,24
 163 494 163 494 219 494 c 0,25,0
 253 494 253 494 276.5 485 c 128,-1,1
278.5 292.5 m 128,-1,27
 303 283 303 283 330 266 c 0,28,29
 349 255 349 255 361.5 249.5 c 128,-1,30
 374 244 374 244 388 244 c 0,31,32
 412 244 412 244 425.5 256.5 c 128,-1,33
 439 269 439 269 454 296 c 1,34,-1
 541 250 l 1,35,36
 513 194 513 194 475.5 160 c 128,-1,37
 438 126 438 126 381 126 c 0,38,39
 346 126 346 126 321.5 135.5 c 128,-1,40
 297 145 297 145 270 162 c 0,41,42
 251 173 251 173 238.5 178.5 c 128,-1,43
 226 184 226 184 212 184 c 0,44,45
 188 184 188 184 174.5 171 c 128,-1,46
 161 158 161 158 146 131 c 1,47,-1
 59 177 l 1,48,49
 87 233 87 233 125 267.5 c 128,-1,50
 163 302 163 302 219 302 c 0,51,26
 254 302 254 302 278.5 292.5 c 128,-1,27
EndSplineSet
Colour: ff0000
EndChar
StartChar: equivalence
Encoding: 8801 8801 1084
Width: 600
Flags: W
LayerCount: 2
Fore
SplineSet
527 461 m 1,0,-1
 73 461 l 1,1,-1
 73 585 l 1,2,-1
 527 585 l 1,3,-1
 527 461 l 1,0,-1
527 252 m 1,4,-1
 73 252 l 1,5,-1
 73 375 l 1,6,-1
 527 375 l 1,7,-1
 527 252 l 1,4,-1
527 42 m 1,8,-1
 73 42 l 1,9,-1
 73 165 l 1,10,-1
 527 165 l 1,11,-1
 527 42 l 1,8,-1
EndSplineSet
Colour: ff0000
EndChar
StartChar: lessequal
Encoding: 8804 8804 1093
Width: 600
Flags: W
LayerCount: 2
Fore
SplineSet
523 537 m 1,0,-1
 210 410 l 1,1,-1
 523 292 l 1,2,-1
 473 176 l 1,3,-1
 76 340 l 1,4,-1
 76 479 l 1,5,-1
 473 647 l 1,6,-1
 523 537 l 1,0,-1
514 0 m 1,7,-1
 80 0 l 1,8,-1
 80 120 l 1,9,-1
 514 120 l 1,10,-1
 514 0 l 1,7,-1
EndSplineSet
Colour: ff0000
EndChar
StartChar: house
Encoding: 8962 8962 1392
Width: 600
Flags: W
LayerCount: 2
Fore
SplineSet
560 308 m 1,0,-1
 560 0 l 1,1,-1
 40 0 l 1,2,-1
 40 308 l 1,3,-1
 299 539 l 1,4,-1
 560 308 l 1,0,-1
110 277 m 1,5,-1
 110 65 l 1,6,-1
 490 65 l 1,7,-1
 490 277 l 1,8,-1
 299 448 l 1,9,-1
 110 277 l 1,5,-1
EndSplineSet
Colour: ff0000
EndChar
StartChar: integraltp
Encoding: 8992 8992 1090
Width: 600
Flags: W
LayerCount: 2
Fore
SplineSet
562 829 m 1,1,-1
 519 726 l 1,2,3
 473 746 473 746 435 746 c 0,4,5
 406 746 406 746 393 729 c 128,-1,6
 380 712 380 712 380 675 c 2,7,-1
 380 -500 l 1,8,-1
 224 -500 l 1,9,-1
 224 669 l 2,10,11
 224 762 224 762 270 812 c 128,-1,12
 316 862 316 862 412 862 c 0,13,0
 489 862 489 862 562 829 c 1,1,-1
EndSplineSet
Colour: ff0000
EndChar
StartChar: integralbt
Encoding: 8993 8993 1089
Width: 600
Flags: W
LayerCount: 2
Fore
SplineSet
380 -31 m 2,0,1
 380 -125 380 -125 326.5 -173.5 c 128,-1,2
 273 -222 273 -222 184 -222 c 0,3,4
 106 -222 106 -222 38 -188 c 1,5,-1
 81 -85 l 1,6,7
 125 -105 125 -105 165 -105 c 0,8,9
 198 -105 198 -105 211 -89.5 c 128,-1,10
 224 -74 224 -74 224 -37 c 2,11,-1
 224 1000 l 1,12,-1
 380 1000 l 1,13,-1
 380 -31 l 2,0,1
EndSplineSet
Colour: ff0000
EndChar
StartChar: uni2326
Encoding: 8998 8998 1396
Width: 600
Flags: W
LayerCount: 2
Fore
SplineSet
740 352 m 1,0,-1
 400 28 l 1,1,-1
 -30 28 l 2,2,3
 -53 28 -53 28 -66.5 42 c 128,-1,4
 -80 56 -80 56 -80 78 c 2,5,-1
 -80 623 l 2,6,7
 -80 646 -80 646 -66.5 659.5 c 128,-1,8
 -53 673 -53 673 -30 673 c 2,9,-1
 400 673 l 1,10,-1
 740 352 l 1,0,-1
220 422 m 1,11,-1
 86 557 l 1,12,-1
 19 488 l 1,13,-1
 153 355 l 1,14,-1
 19 221 l 1,15,-1
 86 154 l 1,16,-1
 220 288 l 1,17,-1
 354 154 l 1,18,-1
 421 221 l 1,19,-1
 287 355 l 1,20,-1
 421 488 l 1,21,-1
 354 557 l 1,22,-1
 220 422 l 1,11,-1
EndSplineSet
Colour: ff0000
EndChar
StartChar: uni2328
Encoding: 9000 9000 1397
Width: 600
Flags: W
LayerCount: 2
Fore
SplineSet
691.5 619.5 m 128,-1,1
 705 606 705 606 705 583 c 2,2,-1
 705 88 l 2,3,4
 705 66 705 66 691.5 52 c 128,-1,5
 678 38 678 38 655 38 c 2,6,-1
 -25 38 l 2,7,8
 -48 38 -48 38 -61.5 52 c 128,-1,9
 -75 66 -75 66 -75 88 c 2,10,-1
 -75 583 l 2,11,12
 -75 606 -75 606 -61.5 619.5 c 128,-1,13
 -48 633 -48 633 -25 633 c 2,14,-1
 655 633 l 2,15,0
 678 633 678 633 691.5 619.5 c 128,-1,1
5 558 m 2,16,17
 -3 558 -3 558 -9 552 c 128,-1,18
 -15 546 -15 546 -15 538 c 2,19,-1
 -15 464 l 2,20,21
 -15 456 -15 456 -9 450 c 128,-1,22
 -3 444 -3 444 5 444 c 2,23,-1
 79 444 l 2,24,25
 87 444 87 444 93 450 c 128,-1,26
 99 456 99 456 99 464 c 2,27,-1
 99 538 l 2,28,29
 99 546 99 546 93 552 c 128,-1,30
 87 558 87 558 79 558 c 2,31,-1
 5 558 l 2,16,17
177 558 m 2,32,33
 169 558 169 558 163 552 c 128,-1,34
 157 546 157 546 157 538 c 2,35,-1
 157 464 l 2,36,37
 157 456 157 456 163 450 c 128,-1,38
 169 444 169 444 177 444 c 2,39,-1
 251 444 l 2,40,41
 259 444 259 444 265 450 c 128,-1,42
 271 456 271 456 271 464 c 2,43,-1
 271 538 l 2,44,45
 271 546 271 546 265 552 c 128,-1,46
 259 558 259 558 251 558 c 2,47,-1
 177 558 l 2,32,33
349 558 m 2,48,49
 341 558 341 558 335 552 c 128,-1,50
 329 546 329 546 329 538 c 2,51,-1
 329 464 l 2,52,53
 329 456 329 456 335 450 c 128,-1,54
 341 444 341 444 349 444 c 2,55,-1
 423 444 l 2,56,57
 431 444 431 444 437 450 c 128,-1,58
 443 456 443 456 443 464 c 2,59,-1
 443 538 l 2,60,61
 443 546 443 546 437 552 c 128,-1,62
 431 558 431 558 423 558 c 2,63,-1
 349 558 l 2,48,49
530 558 m 2,64,65
 522 558 522 558 516 552 c 128,-1,66
 510 546 510 546 510 538 c 2,67,-1
 510 464 l 2,68,69
 510 456 510 456 516 450 c 128,-1,70
 522 444 522 444 530 444 c 256,71,72
 538 444 538 444 544 438 c 128,-1,73
 550 432 550 432 550 424 c 2,74,-1
 550 294 l 2,75,76
 550 286 550 286 556 280 c 128,-1,77
 562 274 562 274 570 274 c 2,78,-1
 624 274 l 2,79,80
 632 274 632 274 638 280 c 128,-1,81
 644 286 644 286 644 294 c 2,82,-1
 644 538 l 2,83,84
 644 546 644 546 638 552 c 128,-1,85
 632 558 632 558 624 558 c 2,86,-1
 530 558 l 2,64,65
45 388 m 2,87,88
 37 388 37 388 31 382 c 128,-1,89
 25 376 25 376 25 368 c 2,90,-1
 25 294 l 2,91,92
 25 286 25 286 31 280 c 128,-1,93
 37 274 37 274 45 274 c 2,94,-1
 119 274 l 2,95,96
 127 274 127 274 133 280 c 128,-1,97
 139 286 139 286 139 294 c 2,98,-1
 139 368 l 2,99,100
 139 376 139 376 133 382 c 128,-1,101
 127 388 127 388 119 388 c 2,102,-1
 45 388 l 2,87,88
217 388 m 2,103,104
 209 388 209 388 203 382 c 128,-1,105
 197 376 197 376 197 368 c 2,106,-1
 197 294 l 2,107,108
 197 286 197 286 203 280 c 128,-1,109
 209 274 209 274 217 274 c 2,110,-1
 291 274 l 2,111,112
 299 274 299 274 305 280 c 128,-1,113
 311 286 311 286 311 294 c 2,114,-1
 311 368 l 2,115,116
 311 376 311 376 305 382 c 128,-1,117
 299 388 299 388 291 388 c 2,118,-1
 217 388 l 2,103,104
389 388 m 2,119,120
 381 388 381 388 375 382 c 128,-1,121
 369 376 369 376 369 368 c 2,122,-1
 369 294 l 2,123,124
 369 286 369 286 375 280 c 128,-1,125
 381 274 381 274 389 274 c 2,126,-1
 463 274 l 2,127,128
 471 274 471 274 477 280 c 128,-1,129
 483 286 483 286 483 294 c 2,130,-1
 483 368 l 2,131,132
 483 376 483 376 477 382 c 128,-1,133
 471 388 471 388 463 388 c 2,134,-1
 389 388 l 2,119,120
99 223 m 2,135,136
 91 223 91 223 85 217 c 128,-1,137
 79 211 79 211 79 203 c 2,138,-1
 79 129 l 2,139,140
 79 121 79 121 85 115 c 128,-1,141
 91 109 91 109 99 109 c 2,142,-1
 535 109 l 2,143,144
 543 109 543 109 549 115 c 128,-1,145
 555 121 555 121 555 129 c 2,146,-1
 555 203 l 2,147,148
 555 211 555 211 549 217 c 128,-1,149
 543 223 543 223 535 223 c 2,150,-1
 99 223 l 2,135,136
EndSplineSet
Colour: ff0000
EndChar
